<svg version="1.0" xmlns="http://www.w3.org/2000/svg" width="91.8667" height="170.6667" viewBox="0 0 689 1280"><path d="M312 1c-10.1 1.4-33.8 6.8-42.6 9.6-30.5 9.8-55.5 28.6-72.1 54.1-6 9.2-9.3 16-13.3 27.8l-2.7 8-9.4 2.6c-5.2 1.4-12.3 3.8-15.8 5.2-35.2 14.5-65.9 48.7-74.6 83.1-1.9 7.5-2.6 14.1-3.6 36.2-2.1 45.4 1.4 75 11.6 98 2.4 5.4 2.4 5.9.8 6.8-5.5 3-9.8 11.4-11.5 22-1.2 7.9-.3 15.2 4.3 34.1 5.3 21.6 14.8 43.9 23.4 54.8 7.1 9 16 13.8 19.3 10.5.7-.7 1.2-.8 1.2-.2 0 3.5 2.3 18.7 3.5 22.7 6.7 22.9 26.4 39.7 73.6 63l24.7 12.2-.5 14.5c-.3 8-.8 14.8-1.2 15.2-.8 1-31 10-32.1 9.6-.4-.2-11.9-14.5-25.5-31.8-15.3-19.6-25.8-32-27.6-32.9-5.5-2.7-7.1-.4-20.5 30.5-6.7 15.3-12.6 28.5-13.2 29.4-.7 1.1-3.8 1.9-10.3 2.7-34.6 4.2-47.4 6.4-49.6 8.5l-2.3 2.1v81.6l-23 29.8c-24.3 31.4-25.2 33-20.8 37 5.5 4.8 25.3 10.1 48.1 12.7 7.1.8 13 1.6 13.3 1.8.2.2-2.6 5.8-6.1 12.4-10 18.2-10.8 21.6-10.6 41.6.2 16.4 1.3 22.9 4.9 29.4.6 1.1.1 3.6-1.8 8.3-1.6 3.6-3.1 8-3.5 9.8-.6 3-.5 3.2 3.2 4.2 2.1.6 22.2 3.3 44.8 6.1 36.2 4.4 75.4 9.9 76.3 10.5.2.2-2.4 4-5.7 8.6-8.7 12.3-18.5 28.7-25.7 43.3-5.5 11-6.4 13.6-6.4 18.3 0 6.2 2.3 11.3 6.9 15.7 1.7 1.7 3.1 3.5 3.1 4.1 0 .7-3.2 8.8-7.1 18.1-6.1 14.5-7.1 17.7-7.1 22.9-.1 6.6 2.4 12.8 6.8 17.2l2.5 2.5-2.1 12.1c-2.3 13-2 17.7 1.1 23.8 2.1 4.2 9.9 11.5 18.4 17.2 3.3 2.2 10 7 14.9 10.6 7.7 5.7 9.2 7.4 12.2 13.3 3.9 7.7 8.7 19.5 11.6 28.3 5.7 17.5 13.6 57.2 12.4 62.1-.9 3.5-8.8 11.1-15.9 15.3-11 6.5-30.1 13.1-56.6 19.6-16.1 4-19.8 7.7-12 12.4 3.8 2.3 21.1 5.7 36.4 7.1 20.6 1.9 32.6 1.4 84.9-3.7 38.9-3.7 38.2-3.2 35.2-25-1.9-14.7-2.2-13.2 6.4-37.3 10-28.2 12.7-45.8 9.6-62.4-1-4.8-1.6-8.9-1.4-9 .2-.2 3.2-1.3 6.8-2.5 9.1-3.2 16.6-7.7 22.9-13.6 9.4-8.8 14.3-17.6 24-42.6 6.5-16.9 12.1-29.3 12.8-28.5.3.3-.2 6.8-1.2 14.6-1 7.9-1.5 15.9-1.1 18.2.9 5.7 4.1 12.7 7.4 16.1 3.2 3.4 11.9 8.7 18.5 11.2 2.6 1 4.6 2.1 4.5 2.4-.2.3-1.8 3.5-3.6 7-4.8 9.2-7.2 19.5-7.2 31.4 0 15.6 3.2 28.4 15.5 62.7 2.5 6.8 2.7 8.3 2.1 16-2 25.8-2.1 23.2 1.2 26.4 3.4 3.1 1.6 2.8 40.2 6.6 48 4.6 67.6 4.9 90.5 1.5 20.4-3 27.5-5.7 27.5-10.5 0-3.1-3.5-4.6-22-9.4-33.3-8.5-50.3-15.7-60.2-25.6-6.8-6.9-6.9-6.9-3.7-25.8 3.1-18.8 9.2-41.5 14.8-56l5.1-12.9 7.3-2.8c20.4-7.8 51.7-25.9 58.2-33.7 4.4-5.2 6.5-10.6 6.5-17.3v-6l5.1-1.2c6.2-1.5 13.5-6 18.3-11.4 2-2.1 3.6-3.5 3.6-3 0 .4 1.1 2.5 2.5 4.5 2 2.9 3 7 5 19.4 3.9 23.9 4.4 26.4 6 28.9 2.1 3.1 6.9 5.4 12.9 6.2 4.7.6 5.1.8 5.7 3.9 1.8 8.7 11.7 12.1 26 9.1 6.4-1.4 12.2-6.4 14.1-12.1 1.6-4.6 2.2-5.1 8.8-6.8 6.2-1.6 14.1-9.8 15.9-16.3 1.4-4.9 1.3-9.9-1.1-35.8-1-11.2-.9-13.2.6-16.8 2.3-5.8 2-13.2-.9-24.5-3.2-12.8-7.6-24.6-14.1-38.3-5.6-11.6-7.2-13.4-14.2-15.8l-3.7-1.3-1.1-19.4c-.7-10.6-1.7-39.8-2.3-64.8-.7-25-1.4-47-1.7-48.8-.8-4-2.2-4.1-13.2-.9-10.2 3-11.7 2.2-12.5-6.8-.2-3.3-3.2-17.6-6.6-31.9-3.4-14.2-6-26-5.7-26.3.2-.3 7.8-2 16.7-3.9 33.2-6.9 55.3-14.7 62.5-21.9 4.9-4.9 4.3-6-21.1-35.5-12.9-15-23.5-27.8-23.5-28.3 0-2.1-7-72.3-7.6-76.1-1.2-7.3-1-7.3-30.2-8.1l-26.1-.7-12.2-24.2c-6.7-13.2-13.5-26.2-15-28.8l-2.8-4.8 5-5.7c9.6-10.9 17.8-25.2 22.3-38.6 2-6.1 4.6-20.7 4.6-26.2 0-4.1.2-4.4 4.6-6.5 12.5-6.1 26.1-25.9 34.7-50.7 4.7-13.3 8.9-32.4 8.9-39.9-.1-15.9-11.5-31.4-23.1-31.4-2.6 0-5.5.6-6.6 1.4-1.1.7-3.1 1.7-4.4 2.1-2.3.7-2.3.6-1.7-3.1.4-2.2 2.1-7.4 3.7-11.7 5.8-15.2 10.8-41.2 12.9-66.8 1.9-22.6-.9-41.7-8.4-56.8-12-24.3-42.9-58.1-89.6-98-17.4-14.9-45.4-32.6-69-43.8-13.1-6.1-50.4-20-58.7-21.7C358.9 1.3 327.4-1.1 312 1zm211.7 534.6c-5.1 9.3-14 25.4-19.7 35.8-6.7 12.2-10.6 18.3-11 17.5-.4-.8-1.4-4-2.1-7.2l-1.2-5.7-6.1-1.9c-3.4-1-7.5-2.2-9.2-2.5-2.9-.7-3.2-1.1-3.8-5.9-.3-2.9-.6-7.3-.6-9.8v-4.5l7.8-3.4c14.1-6.1 38.6-18.8 46.7-24.3 4.4-3 8.1-5.3 8.3-5.2.2.2-3.9 7.9-9.1 17.1zM166.6 779.1c-.9 6.2-1.8 11.4-2 11.6-.5.6-10.6-4.5-10.6-5.3 0-.4 3-5.4 6.8-11.2 7.8-12.2 8.1-11.9 5.8 4.9zm371.2 34.5c1.1 2.1 4 6.1 6.5 8.8l4.6 4.9-1.1 4.8c-.9 4-.8 6.7.7 15 1.8 9.6 1.8 10.2.1 12.7-3.1 4.8-5.9 11.6-5.8 14.2 0 1.4 2.3 7 5.1 12.5 6.5 12.9 13.4 31.3 21.1 56 6.6 21.4 6.6 20.7.9 27.3-3.5 4-4.5 7.4-3.3 12.1.8 3 .4 5.2-2.3 13.1-1.8 5.2-3.3 9.7-3.4 10 0 .3-2.4-7.8-5.4-18l-5.4-18.4 2.1-6.4 2.1-6.3-2.7-11c-5.8-23.4-15-47.4-24.7-64.4l-5-8.8 2-5.1c2.2-5.7 5.3-16.4 7.1-24.6.7-3 1.5-13.2 1.8-22.5.4-15.1.6-16.6 1.7-13.4.7 1.9 2.2 5.3 3.3 7.5z"/></svg>