<svg version="1.0" xmlns="http://www.w3.org/2000/svg" width="320pt" height="174.5pt" viewBox="0 0 1280 698"><path d="M904.5 4.5c-3.3 2.5-8.1 6.3-10.7 8.6-4.6 3.9-4.8 4.3-4.8 9.4 0 6 1.6 10.5 3.7 10.5 2.5 0 10.3-2.2 10.9-3.1.2-.5-.2-2.2-1.1-4l-1.7-3.1-2.4 2.3c-2.5 2.3-3.2 3.5-1.4 2.4 1.7-1.1 3.2.5 1.9 2.1-1.1 1.4-5.5 1-7.3-.7-.5-.5 1.9-3.5 5.7-7.2 3.7-3.5 6.7-6.9 6.7-7.5 0-.7 1-1.2 2.3-1.2 1.2 0 3.1-.7 4.1-1.5 2.8-2.1 3.3-1.9 3.4 1.9.1 3.1-.3 3.6-3.7 4.9-2.4 1-4.1 2.4-4.5 3.9-.9 3.4-.8 3.7 1.4 3.1 1.1-.3 2.7.1 3.6.8 3.1 2.6 7.9-5.8 8.6-15.1.3-3.1 0-3.5-1.9-3.4-2.6.1-2.7 0-1.2-2.7.7-1.5.7-2.4-.2-3.5-2-2.4-5.1-1.5-11.4 3.1zm-4.1 13c-.4.8-1 1.5-1.5 1.5s-.9-.7-.9-1.5.7-1.5 1.5-1.5c.9 0 1.2.6.9 1.5zM544 4.2c0 .7.7 2.2 1.5 3.2 2.5 3.3 1.7 4.1-1.3 1.3-1.5-1.5-3.6-2.7-4.6-2.7-1.7 0-1.8.9-1.4 11.2.4 9.1.9 12.1 2.6 15.5 1.9 3.6 2.7 4.3 5.2 4.3 1.6 0 3.2.5 3.5 1.1 1 1.6-.4 2.4-1.7 1.1-.7-.7-1.6-1.2-2.1-1.2s.5 1.1 2.1 2.5c4.9 4.1 5.3 3.5 4.7-7.8-.4-7.2-.3-9.5.4-8 1.2 2.6 3.1 3.1 3.1.8 0-2 1.6-1.9 2.4.1.4.9-.3 3.2-1.4 5.1-2.3 3.9-2.6 8.1-.7 10.6 1.1 1.6 1.6 1.2 5-3.8 3.8-5.7 4.4-8.3 2.7-11.6-.9-1.6-.7-1.9 1.1-1.9 2 0 2.1-.4 1.6-4.1-.4-3.4-1.5-5-5.4-8.5C553.8 4.7 543.9.6 544 4.2zm9.1 9.8c2.1 1.2 2.6 4 .6 4s-5.8-3-5.2-4.1c.8-1.2 2.2-1.1 4.6.1zM950.8 10c-9.4 3.5-16.1 7.9-19.4 13-2.1 3.1-2.5 4.7-2.2 9.6.3 5.6.4 5.9 2.8 5.7 5.1-.5 19.2-5.7 23.1-8.5 5-3.6 7.9-8.3 7.9-12.9 0-4.5-1.8-9.9-3.3-9.9-.7.1-4.7 1.4-8.9 3zm6.2 4.5c0 .8-1 2-2.2 2.6l-2.2 1.2 2.2 1.7 2.1 1.7-2.8 2.7c-1.8 1.8-3.1 2.4-3.5 1.7-.4-.6-.4-1.6-.1-2.1 1.6-2.7-2.1-.4-7.7 4.6-6.7 6-10.3 8.2-11.6 7-.4-.5 2.4-3.7 6.3-7.2 5.5-5 6.7-6.6 5.7-7.6-1.7-1.7-1.5-2.9.4-2.1 2.4.9 9.2-1.7 9.7-3.8.6-2.2 3.7-2.6 3.7-.4zm-9 15c0 1.5-1.8 3-2.7 2.2-.2-.3-.2-1.5.2-2.6.7-2.3 2.5-1.9 2.5.4zM841 11.7c-8.2 5.7-12.6 20.4-8.5 28.2 1.5 3.1 6.1 5.5 9.3 4.9 1.9-.3 2-.5.6-4.3-2.2-6.2-1.7-26.5.6-26.5.7 0 2.2 16.2 2.4 25.7.1 5.1 1.8 5.8 2.7 1.1.3-1.8 1.1-4.6 1.8-6.2.9-2.2.9-3.2-.1-4.4-1.1-1.3-1-1.4.8-.8 1.9.6 2.2.2 2.8-4 .7-5.1-.6-11.5-2.8-13.3-2.5-2.1-7-2.3-9.6-.4zM362.5 15.2c-5.1 21.9-4.7 31.1 1.6 34.3l2.6 1.4.7-13.3c.7-13.8-.2-21.4-3-23.7-1-.8-1.4-.6-1.9 1.3zM330.6 16.6c-3.8.7-7.1 1.6-7.3 1.8-.2.2 3.1 3.5 7.4 7.2 4.2 3.8 10 9 12.9 11.6 5.1 4.8 5.1 4.8 6.9 2.8 2.6-2.8 3.3-12.7 1.2-16.6-3.9-7.4-9.4-9.2-21.1-6.8zM370.5 33.9c0 17.8.1 18.8 1.8 17.9 2.8-1.5 7.3-8.3 8.7-13.2.7-2.5 1-7.3.8-10.7-.4-5.6-.8-6.5-4.1-9.5-2-1.9-4.5-3.4-5.4-3.4-1.7 0-1.8 1.5-1.8 18.9zM585.5 17.2c-7.2 2.6-13.2 9.2-16 17.9l-1.7 5 2.7 3.5c2 2.6 3 3.2 3.9 2.5 2.6-2.2 6.6-11 7.3-16.2.7-4.9 1.1-5.4 3.6-5.7 2-.3 3.2-1.3 4.7-4.3 1.9-3.6 1.9-3.9.3-3.8-1 0-3.1.5-4.8 1.1zM275.7 26.2c6.9 22.6 16.4 30.8 30.5 26.6l3.9-1.2-.6-5c-1.6-12.6-6.7-20.8-15.2-24.3-5.5-2.3-10.3-3.6-10.3-2.8 0 1.1 13.7 19.9 15.9 21.9 1.1 1.1 2.1 2.5 2.1 3.3 0 .7.5 2.2 1.2 3.3.7 1 .9 2.2.5 2.6-1.2 1.2-8.5-6.5-12.4-13.1-6-10-9.4-14.3-13.2-17-2.1-1.4-4-2.5-4.3-2.5-.4 0 .5 3.7 1.9 8.2zM591.5 21.9c-1 2.2-1.5 4.6-1.2 5.4.3.8-.6 2.3-2.2 3.5-2.7 2-10.8 15.9-9.8 16.9.3.3 2.4.2 4.6-.2 4.9-.8 7.2-3.6 9.5-11.4 2-6.9 3.2-18.1 1.9-18.1-.6 0-1.8 1.8-2.8 3.9z"/><path d="M870 19.2c-7.5 2.1-14.3 9.8-16.5 18.6-1.1 4.2-1 5 .7 7.4 1.1 1.6 2.2 2.8 2.6 2.8.4 0 2-2.4 3.5-5.3 2.7-5.3 9.5-13 13-14.8 4-2.2.4 3.8-8.2 13.6-3.4 3.8-6.9 8.2-7.7 9.7-1.2 2.3-2.2 2.8-5 2.8-12.4 0-20.8 16.8-13.3 26.4 1.2 1.5 3.6 3.3 5.5 4.1 3.9 1.6 4.9 3.4 4 6.9-.7 2.7-3.8 4-11.9 5.2-2.6.3-5 1-5.3 1.5-.3.5-2.7-.3-5.4-1.7-5.7-3-9.7-2.9-9.2.1.2 1.1.4 3.3.4 4.9.3 6.8 14.4 7.8 37.8 2.6 10.6-2.4 17.2-3.3 24.6-3.4l10.1-.1 4.1 3.7c4.5 4.1 10.1 7.2 14.7 8.2 2.9.6 3 .8 2.7 5.5-.7 9.2 4.9 15.1 14.3 15.1 6.5 0 8.8-1.7 12.6-9.3 1.7-3.4 3.3-6.3 3.4-6.5.1-.2 1.6 1.1 3.3 2.8 2.7 2.7 3.7 3 8.9 3 7 0 13.3-1.6 15-3.9 6.4-8 5.5-20.9-1.7-24.6-3.7-1.9-5.8-1.9-10.5 0-3.5 1.5-7.5 1.3-7.5-.5 0-2.5 1.7-4.1 6-5.5 2.7-.9 5.4-2.3 6.1-3.1 1.1-1.4.7-1.5-3.7-1-4.3.5-4.5.5-1.6-.4 1.7-.6 3.2-1.7 3.2-2.4 0-1.1-.8-1.1-4-.3-8.6 2.3-6.1-2.8 2.9-6 5.9-2 14.7-7 13.9-7.8-.2-.3-3.2.7-6.5 2-3.4 1.4-7.7 2.8-9.5 3.1-4 .6 1.7-2.2 22.4-11.2 11.4-4.9 13.7-6.2 13.2-7.6-.4-1.3 0-1.8 1.3-1.6 4.6.4 9.4-.3 8.8-1.2-.3-.6-1.5-1-2.5-1s-2.1-.4-2.5-.9c-.3-.6.3-.9 1.2-.9 1 .1 2.8-.2 4.1-.6 1.6-.6 2.2-.3 2.2.9 0 .8 1.1 2.1 2.5 2.7 4.1 1.8 3 3.5-2.7 4.1-6.6.6-15.7 3.8-20 6.8l-3.2 2.3 3.4 1.4c8.6 3.5 19.9.2 27.5-7.9 5-5.3 5.3-6.4 2.9-9.8-3.4-4.8-13.8-6.6-21-3.6-2 .8-6.3 4.3-9.7 7.7-7.5 7.6-15.3 12.3-31 18.5-11.4 4.5-11.8 4.8-11.2 7.3 2.5 9.9 1.9 11-6 10.9-5 0-5 0-7.3-4.7-2.2-4.5-2.2-4.8-.6-8.1 1.2-2.4 1.5-4.9 1.1-9.2-.9-9.8-6.5-16-13-14.3-3.7.9-3.4 2.4.4 2.4 4.7 0 8.9 4.7 8.9 10 0 5.2-1.3 7.6-5.2 9.6-9.3 4.8-20.1-8.4-13-15.9 1.3-1.4 2-3 1.7-4-.4-1 1.2-3.6 4.8-7.5 5.2-5.7 8.4-10.2 7.2-10.2-1.9 0-13.3 6.7-16.8 9.9-2.3 2-6.1 4.3-8.3 4.9-4.9 1.4-9.4 4.7-9.4 6.9 0 1.3 1 1.5 6.3 1 3.4-.4 7.3-1 8.6-1.3 2.1-.6 2.3-.5 1.6 1.2-1.6 3.8-1.7 9.1-.1 12.2.9 1.7 5.3 5.7 9.8 8.9 8.6 6.1 12.4 10.9 11.3 14.2-.3 1-1.9 3.7-3.5 6-2.7 3.6-3.5 4.1-7.1 4.1-5.2 0-8.3-1.7-14.4-7.9l-4.9-5.1h-13.8c-10.1 0-14.9.4-17.5 1.5-5.6 2.4-7.3 2-7.3-1.6 0-2.2.9-4 3.1-6 1.7-1.6 3.4-2.9 3.8-2.9.8 0 4.8-9.4 5.3-12.5.2-1.3 1.8-2.5 4.6-3.5 2.3-.9 4.9-2.3 5.8-3.2 1.4-1.4 1.2-1.6-3-2.2-2.6-.4-5.5-.5-6.6-.1-1.4.4-2.9-.4-5.4-3.2-2-2.1-3.6-4.1-3.6-4.4 0-.3 1.7-1.1 3.8-1.7 6.8-2 11.8-7.4 17.2-18.5 2.8-5.6 5-10.7 5-11.4 0-2.9-9.3-4.8-15-3.1zm12 3.8c0 1.2-4 3.3-4.7 2.6-.9-.8 2.8-4.7 3.8-4 .5.3.9.9.9 1.4zm-23.2 39.5c7.6 6.3 2.8 18.5-7.2 18.5-4.3 0-7.9-1.8-9.5-4.8-.5-.9-1.2-4-1.6-6.8l-.6-5.1 4.3-2.2c5.8-2.9 10.9-2.7 14.6.4zm87.6 16.3c-.7 3.2-2.4 3.5-2.4.3 0-1.6 2-4.4 2.7-3.7.2.1 0 1.7-.3 3.4zm2.4 4.8c2.7.8 2.8 2.8.2 5.4-3 3-4 2.5-4-2 0-4.2.1-4.3 3.8-3.4zm-21 4.8c.3 1.2-.1 1.7-1 1.4-.7-.3-1.5-1.3-1.6-2.2-.3-1.2.1-1.7 1-1.4.7.3 1.5 1.3 1.6 2.2zm-75.2 5c-.4 1.9-.3 3.7.1 3.9.5.3 3.8-.1 7.3-.8 7.8-1.7 10.3-1.8 9.5-.5-.3.5-2.1 1-3.8 1-1.8 0-8.4 1.4-14.7 3.1-12.1 3.3-24.8 4.3-28.3 2.3-1.5-.8.4-1.2 8.3-1.8 12.4-.8 18-2.9 19.9-7.5 1.7-4.1 2.5-4 1.7.3zm36.2 1.6c2.4.1 2.5.2.9 1.1-2.1 1.2-6.7.4-6.7-1.2 0-.6.7-.8 1.6-.5.9.3 2.8.6 4.2.6zm55.1 1.6c3.4 4.3 2.2 14.2-1.9 16.4-2.7 1.4-9.5 1.2-13.5-.4-4.2-1.8-5.7-4.4-4.6-8.3 2.2-7.5 5.7-10.2 13.3-10.3 3.9 0 5 .4 6.7 2.6zM896.3 99c.3 1.1.1 2-.4 2-.4 0-1.3-.9-1.9-2-.8-1.6-.8-2 .3-2 .8 0 1.7.9 2 2zm69.6.4c7.3 7.8-.6 21.4-11.8 20.3-6.6-.7-7.8-2.4-6.3-9.4.7-3.2 2-6.9 3-8.3 4-5.4 11.3-6.6 15.1-2.6zm-51.9 9.8c0 1.3-2.3.5-2.8-1-.2-.7.2-1 1.2-.6.9.3 1.6 1.1 1.6 1.6zm11.5 5.8c2.8 1.6 6 3 7.3 3 3.1 0 2.9 3.4-.4 6.7-2.1 2.1-3.2 2.4-6.2 1.9-4-.6-8.9-5-9.2-8.1-.8-7.4.8-8.1 8.5-3.5zM250.3 19.7c-.8.3 1.1 3.3 5.1 8.1 3.4 4.2 7.4 9.7 8.9 12.2 2.6 4.6 5.2 12.8 4.4 13.7-.3.2-3.7-4.9-7.5-11.4-6.6-11.1-12-17.5-17.1-20.3-2-1-2.1-.8-2.1 2.6 0 2.2 1.3 5.9 3.5 9.8 1.9 3.5 3.5 7.5 3.5 8.9 0 2 .5 2.7 2 2.7 1.1 0 4.9 2 8.6 4.5 4.5 3.1 7.5 4.5 9.9 4.5 3.2 0 3.4-.2 4.1-4.6 1.9-13.2-5.7-27.4-16.3-30.3-4.1-1.2-5.1-1.2-7-.4zM779.4 24.4c-2 4.3-2.6 7.7-3.1 15.8l-.5 10.3 3.5 2.3c4.1 2.7 15.1 6.4 15.5 5.2.4-1.1-8.1-19.2-10.7-22.9-2.3-3.1-2.7-6.7-1.1-9.1.8-1.2 1.8-.7 5.5 3.2 4.7 4.9 5.5 6.8 3 6.8-.8 0-1.5.3-1.5.7.1 1.8 9.6 19.7 10.6 20 1.6.5 4.4-6.9 4.4-11.5 0-6-3.8-12.1-10.9-17.8-3.6-2.9-7.7-5.9-9.3-6.9l-2.8-1.6-2.6 5.5zm20.1 19.4c-1.9.4-3.5-1.3-3.5-3.7 0-1 .8-.7 2.6 1 2.2 2 2.3 2.5.9 2.7zm-17.1 3.4c-.7 1.1-4.4-.9-5.1-2.8-.3-.8-.2-2.1.1-3.1.5-1.3 1.1-1 3.1 1.7 1.3 1.8 2.2 3.7 1.9 4.2zM312.6 23.2c.3 1.8 1.8 5.8 3.2 8.8 3.2 6.5 8.9 10.4 17.2 12 5.3 1 11 .6 11-.8-.2-2.4-19.5-18.6-25.5-21.3-5.8-2.7-6.5-2.5-5.9 1.3zM612 21.7c-6.1 2.2-14.6 10.8-15.6 15.8-.8 4.4 1.1 11.5 3.1 11.5.7 0 1.5.5 1.7 1 .5 1.7 13-2.6 18.4-6.3 7-4.7 8.7-7.6 9.2-15.3.3-4.9.1-6.9-.9-7.5-2.2-1.4-10.9-.9-15.9.8zm8.4 8.9c-1.6 3.3-15.3 15.8-16.3 14.8-.2-.2 1.5-2.6 3.7-5.3 2.3-2.7 4.2-5.5 4.2-6.2 0-.7 2.1-3.2 4.8-5.5 5.2-4.6 6.5-3.9 3.6 2.2zM644.4 28.4c-6.7 3.1-12.3 8.2-14.5 13.1-1.7 3.7-2.6 13.5-1.4 14.7 1 .9 9.7-1.1 15-3.6 10.6-4.8 17.5-13.5 17.5-22.1V26l-2.6 1.7c-2.4 1.6-2.7 1.6-3.6 0-1.2-2.3-4.4-2.1-10.4.7zm6.9 6.7c-3.4 5.9-16.3 17.7-16.3 15 0-1.6 5-7 7-7.6 1.5-.5 2-1.5 2-4.1 0-2.1.4-3.3 1-2.9.6.3 2.2-.3 3.6-1.4 3.8-3 4.8-2.6 2.7 1zM745.7 31.4c-.4.9-1.3 1.6-2.1 1.6-2.1 0-2.6 2.3-2.6 11.2 0 8 0 8.1 3.8 11.8 5.8 5.8 14.3 7.1 25 3.9 3.1-1 3.2-1.3 3.2-6.1 0-4.9-.1-5-2.5-4.4-2.8.7-3.3-.5-1-2.4 3.8-3.2-.2-10.1-7.9-13.6-7-3.1-15.1-4.2-15.9-2zM751 42c.6 1.1 2 2 3 2 1.3 0 2 .7 2 1.9 0 1 2.1 3.7 4.8 5.9 2.6 2.2 4.4 4.3 4 4.7-1.1 1.2-10.6-4.4-13.2-7.7-3.5-4.7-5-8.8-3.1-8.8.8 0 1.9.9 2.5 2zM519.7 31.6c-1.2.4-1.6 1.2-1.2 2.5.5 1.5.2 1.9-1.4 1.9-2.7 0-2.7 2.3 0 9.6 2.5 6.6 7.7 12.7 13.1 15.5 4.7 2.4 12.8 3.7 12.8 2 0-1.7-7.1-9.2-9.7-10.2-1.3-.5-2.3-1.7-2.3-2.8 0-1-.7-2.4-1.5-3.1-1.3-1-1.9-1-3.4.4-1.4 1.3-2.1 1.4-2.6.5-.5-.7-.1-1.6.9-2.1 2.4-1.3 2-2.4-1.4-3.8-4.7-1.9-3.7-3.3 1.8-2.5 5.6.8 5.2.6 5.7 4.1.1 1.6.8 2.8 1.4 2.6.6-.1 1.6-.3 2.2-.5.5-.1 1.6 1.5 2.3 3.6 1.7 4.5 2.6 5.7 6.4 8l3 1.7.7-3.1c1.8-8.2-2.9-18-10.6-22-4.1-2-12.7-3.3-16.2-2.3zM538 41c0 .5-.7 1-1.6 1-.8 0-1.2-.5-.9-1 .3-.6 1-1 1.6-1 .5 0 .9.4.9 1zm5 6.4c0 1.6-1.8 3.1-2.7 2.2-.8-.8.5-3.6 1.7-3.6.5 0 1 .6 1 1.4z"/><path d="M899.9 34.9c-6.4 2.5-10.7 5.9-13.4 10.6-2.2 3.9-4 9.5-3 9.5.2 0 3.7-2.2 7.7-4.8 9.2-6.1 17-10.4 23.1-12.7 2.6-1 4.7-2.4 4.7-3.1 0-2.1-13.3-1.8-19.1.5zM958.5 34.9c-6.9 1.3-18.7 10.1-21.2 15.8-.7 1.8-1.3 4.8-1.3 6.7 0 3 .4 3.7 2.8 4.3 8.6 2.4 19-.6 25-7.1 3.4-3.7 8.1-13 7.1-14-.2-.2-5.3 2.5-11.4 5.9-6 3.5-12.8 6.7-15 7.1-4 .7-4 .7-2.2-1.4 1-1.1 5.2-3.7 9.4-5.7 4.8-2.4 7.9-4.6 8.6-6.2 1-2.2 1.6-2.4 4.9-2 2.4.3 4.1 0 4.8-.9 2.7-3.1-1.9-4.1-11.5-2.5zM702.6 38.1c1.6 1.7 4.6 3.9 6.7 4.9 3 1.4 6.2 5.1 15.2 17.4 23 31.6 27.3 40.8 36.2 77.1 6.2 25.3 5 42.6-4 56.1-2.4 3.5-3.6 6.7-3.9 10.1-.4 4.7-.3 5.1 2.7 7.2l3.2 2.1.6 23.3c.7 26.4-.2 38.5-3.7 50.7-1.4 4.7-3.6 15.2-5 23.5-2.5 15.2-5 25-6.5 25.9-.4.3-7.9-4.2-16.7-10-17.3-11.5-21.4-13.9-21.4-12.6 0 2.1 9.1 9.2 13.9 10.9 3.9 1.4 5.1 2.3 5.1 3.9s1.8 2.9 8 5.8c7.3 3.4 12.2 7.7 10.7 9.3-.4.3-3.2-1.4-6.4-3.8-8.1-6.3-9.3-6.8-14-6.9-3.9 0-4.3-.2-4.3-2.6 0-2.3-1.8-3.4-22.2-13.3-12.3-5.9-31-14.5-41.5-19.1l-19.3-8.4v-6.7c0-3.6-.7-8.6-1.5-11-.9-2.4-2.5-10-3.5-16.9-2.1-13-4.4-21-6.2-21-.7 0-.8 2.6-.4 7.7 1 10.9 2.3 17.3 5.9 28.5 2.6 8.1 2.9 10.3 2.1 13.4-1 4.1-2.8 5.4-3.8 2.9-.3-.9-.9-5.6-1.2-10.3-.3-4.8-1.2-10.5-1.9-12.7-.8-2.2-1.9-7.2-2.5-11-1.7-11.1-3.2-17.5-4.3-17.5-1.7 0-.1 12.7 3.3 26 3.4 13.5 4.2 22.2 2.3 24.1-2.1 2.1-2.7.3-3.4-11.4-.6-7.8-1.7-14.4-3.8-21.6-1.7-5.7-3.1-11.2-3.1-12.2 0-3.2-1.8-3-2.4.4-.7 4 .6 11.8 4.5 25.6 2.7 9.9 3.8 19.1 2.2 19.1-1.2 0-10-3.4-10.2-4-.2-.3 0-2.1.4-4 .4-2.5-.3-7.1-2.4-15.4-1.7-6.5-3.1-12.9-3.1-14.2 0-1.3-.5-2.4-1-2.4-.7 0-.8 1.8-.4 5 .4 2.7.4 5 0 5s-1.5-2-2.6-4.5-2.4-4.5-3-4.5c-1.7 0-1.1 4.9 1.6 14.4 2.7 9.6 2.4 13.9-1.1 15.3-.9.3-5.1-.8-9.3-2.5-6-2.3-7.6-3.4-7.5-4.8 1-7.6 2.4-15.5 3.1-17.4.8-2.1.5-2.6-2.2-4-3-1.4-3.1-1.8-3.4-8.3l-.3-6.8 5.7-5.2c3.8-3.4 6.7-7.3 8.6-11.2 4.1-8.8 3.8-10-1.7-6.7-8.5 5.2-12 3.2-11.2-6.5.6-8.2-.4-8.2-8.9.3-8.8 8.7-14.4 10.6-18.9 6.4-1.7-1.6-4.9-2.2-17.4-3.5-27.5-2.7-41.4-1.5-50.3 4.5-2.7 1.9-4.6 2.5-5.4 2-.7-.6-1.8 0-3.2 1.9-2 2.7-11.6 7-12.8 5.8-1.6-1.6-1.4-9.2.6-17.2 1.2-5 2.5-12.2 2.8-16l.7-7 4.2-1.3c3.7-1.2 4.2-1.7 4.8-5.2.6-3.3 1.2-4.1 4-5 6.4-2.1 13-10.7 17.1-22.3 1.2-3.5 1.2-4.2-.6-7.7-1.1-2.2-2-5.3-2-6.9 0-2.1-1-4-3.2-6.1-3.2-3.1-3.3-3.2-1.3-4.5 5.7-4 5.9-4.3 6.5-9.5.6-6.8 1.9-7.6 9.3-6 10.6 2.2 16.1 9.5 16.2 21.7 0 6.6.2 7.3 2.3 7.8 1.4.3 2.2 1.3 2.2 2.6 0 1.4-.5 1.9-1.4 1.6-1.9-.8-2.8.3-1.5 1.9.6.7 1.6 4.5 2.3 8.3 1 6.4 1.6 7.5 6.8 13.4 3.4 3.8 6.9 6.7 8.5 7.2 1.5.3 3.7 1.5 4.8 2.4 1.1 1 4.8 2.4 8.3 3.1 6.1 1.3 10.2 1.2 38.7-.6 5-.3 9.6-.1 10.3.4 1.4 1 1.4 1.3-4.3 32-1.5 7.8-3.2 19.1-3.8 25l-1.2 10.7-2.8-.3c-1.6-.2-2.7.1-2.7.9 0 2.7 9.3-.1 19.8-6.1 7.6-4.3 12-6.1 15.8-6.6 6.2-.7 16.1.8 21.3 3.3l3.6 1.8.3 7.9c.2 4.4-.2 10.2-.8 13-.8 3.9-.8 5.2.2 5.5 2.7.9 5.5 4.9 6.1 8.8.4 2.3 1.9 5.5 3.3 7.2 2.9 3.5 11.1 8.7 12.1 7.7.7-.6-1-4.2-5.2-11.1-3.4-5.6-3.3-11.1.4-16.1 3.7-5.1 5.8-6.9 10-8.3 4.9-1.6 7.9-1.4 19.9 1.3 5.9 1.3 15 2.7 20.2 3 5.9.5 11.1 1.4 13.9 2.7 4.9 2.2 14.1 2.5 21.9.8l5-1 .6-6.8c1.1-10.4.8-26.6-.4-31.3-1.5-5.5-5.9-9.8-10-9.8h-3.1l6.7-9.6c7.2-10.5 10.4-17.4 10.4-22.9V173h-37l-2.5-4c-1.4-2.2-2.9-4-3.3-4-.4 0-1.6 1.9-2.7 4.2-2.6 5.6-5 6-6.9 1.3-1.8-4.2-3.1-4-4 .6-.6 3.1-.6 3.2-5.4 2.4-2.6-.4-9.6-1-15.7-1.3-10.1-.6-11-.9-11.3-2.8-.5-3.5 3.4-7.1 11.1-10.1 5.8-2.3 6.7-2.9 4.5-3.1-4.8-.6-10.4 1.7-20.3 8.3-5.3 3.6-10.1 6.5-10.7 6.5-.5 0 .1-1.9 1.4-4.1 2.5-4.5 8.2-9.8 14.4-13.3 3.5-2 5.6-4.6 3.7-4.6-2.8 0-11.6 7.6-20.5 17.7-7.9 9-9.9 11.9-9.4 13.6.3 1.4-.5 3.7-2.4 6.7-3.9 6.1-4.9 9.1-3.9 11.7 1.2 3.3 2.5 2.8 4.3-1.7 1.9-4.7 6.3-8.1 7.7-5.9.5.8.9 2.7.9 4.3 0 2.4.2 2.7 1.5 1.6.8-.7 1.5-1.8 1.5-2.5 0-1.9 4-6.5 5.6-6.5 1 0 1.4 1.3 1.4 4.5 0 5.6 1.6 5.8 3.7.6 2.6-6.5 6.3-6.6 6.3-.2 0 3.6.1 3.7 2.9 3.3 3.4-.5 4.7 1.2 5.7 7.7.5 3.4 1.1 4.1 2.9 4.1 2.8 0 5.9 3.3 8.4 9.3 1.5 3.5 1.7 4.9.8 5.2-.6.2-7 1.8-14.2 3.5-10.8 2.6-13.2 2.9-13.9 1.7-.7-1.1-1.6-1.1-5.2.2-3.9 1.4-4.4 1.4-6.1-.1-1.4-1.2-4.6-1.7-13.5-2-6.5-.2-12-.7-12.3-1-.9-.8 3-19.3 7.6-36.3 3.4-12.5 4.1-16.6 4.2-25.5.2-9.3.5-10.9 2.6-13.9 3.5-4.9 9.3-7 22.3-8.2 6.2-.6 15.4-1.9 20.3-2.9 5-1 13.1-2.4 18-3.1 5-.6 11.9-2 15.5-3.1 13.2-4 38.9-18.8 32.7-18.8-2 0-2.2-1.1-.5-2.8 2.7-2.7-2.2-.9-16.3 5.8-15.7 7.5-21.9 9.2-38.4 10.4-4.9.4-11.9 1.6-15.4 2.7-3.7 1.1-9.2 1.9-13.4 1.9-3.9 0-9.7.7-12.9 1.6-5.5 1.6-6 1.6-7.7 0-1.8-1.6-1.8-2-.4-5.4 2.4-5.7 1.4-18.3-2-24.8-1.4-2.7-3.3-5.6-4.1-6.4-2.1-1.6-14.7-.8-19.8 1.3-2.2.9-4.1 1.2-4.9.6-2.2-1.4-11.2-1-15.8.6-6.6 2.3-9.8 5-10.5 9-.9 4.6-1.8 4.9-6.6 2.5-6.2-3.2-6.8-5.5-3.4-13.7 2.2-5.3 2.8-8.5 2.9-14.5.2-8.8 1.4-10.9 9-15.3 8.1-4.8 15.1-4.3 27.8 2.1 3.7 1.8 6.7 2.8 6.7 2.2 0-.6-1.7-2.8-3.9-4.8-6.7-6.4-16.7-7.6-27.7-3.5-7.5 2.8-7.4 2.8-7.4 1.6 0-.5 2.4-1.9 5.3-3.2 4.2-1.9 7-2.3 14.2-2.4 7.8 0 9.7.4 14.6 2.7 3 1.5 6.1 3.8 6.7 5 .6 1.3 1.2 5.5 1.4 9.3.5 11 5.2 15.7 15.9 15.7 7.2 0 10-1.6 13.7-7.9 5.1-8.5 5.9-9.3 9.3-8.3 2.4.7 3.1.6 3.6-.8.3-.9 1.7-2.7 3-3.8 1.4-1.2 2.3-2.9 2.1-3.8-.3-1.4-1-1.3-5.7 1l-5.5 2.5-2.5-2c-13.8-11.1-21.9-12.7-29.5-6l-3.4 2.9-3.4-3.4c-4.1-4.1-9-5.6-17.8-5.5-5.7 0-16.3 2.2-21.2 4.3-1.2.6-2.1 0-3.2-2.1-.8-1.6-2.8-4.4-4.4-6.1-2.8-3-3.5-3.2-9.6-3.2-4.1 0-8.5.7-12 2-5.7 2.2-6.6 3.5-6.6 9.7 0 1.7-.4 3.4-.9 3.7-.5.3-.2 2.5.6 4.8.8 2.5 1.2 5.6.8 7.6-.4 2.4-.3 3.2.7 3 .7-.1 4.1.4 7.5 1.1 3.5.8 7.8 1.1 9.8.8 3.3-.5 3.4-.5 3.1 2.4-.5 3.9-1.3 4.7-3 2.4-1.5-2.1-3.6-1.3-3.6 1.4 0 1-1.1 4.5-2.5 7.9-3 7.5-3.1 11.6-.5 16 2.3 3.8 6.6 7.9 9.3 8.7 1.2.5 1.7 1.7 1.7 4.6 0 11.8 10.5 19.7 22.3 16.8 4.5-1.1 5.2-1 6.4.7 1.9 2.6 1.8 13.3-.2 14-.8.4-2.2.1-2.9-.5-1.1-.9-2.8-.7-7.3.8-7.7 2.6-23.6 4.5-32.6 3.9-12.8-.8-18.7-5.7-18.7-15.3 0-3.1-.9-6.3-3-10.2-2.3-4.3-3-6.9-3-11.4 0-4.7-.4-6.1-2-7.2-1.1-.8-3.1-3.7-4.5-6.5-2.9-6.1-6.1-8.5-16.3-12.2-5.9-2.1-8.9-2.7-12-2.3l-4.2.6v-4.4c0-2.4-.7-7.7-1.5-11.7-.9-4-1.4-8-1.3-8.8.2-.7-1.3-2.2-3.2-3.1-4-2-8-7.5-8-10.9 0-2.3.2-2.2-18.5-11.8-4.7-2.5-7.2-3.1-12.1-3.1-5.4 0-7.3.6-15.5 4.8-5.2 2.7-10 5.6-10.6 6.5-3.4 4.3-.3 15.5 5.7 20.6 3.6 3 3.6 3 7.9 1.5 3.9-1.4 3.9-2.3.1-3.9-7-2.9-6.9-11 .1-11 1 0 1.9.7 1.9 1.5s1.3 2.1 2.9 2.7C446.8 67 457 76.5 457 78.5c0 .8.8 1.8 1.8 2.1.9.3 3.6 1.4 5.9 2.4 5.1 2.3 8.4 8.1 11.2 19.7 1.1 4.3 2.2 8.5 2.6 9.4.5 1.3-.8.9-5.2-1.3-5.4-2.8-6.4-2.9-14.3-2.5-10.2.5-18 3.2-25 8.8-6.9 5.4-10.1 10.6-10.9 17.6-.4 3.2-1.1 6.4-1.5 7.2-.8 1.3-5 1.1-10.2-.4-1.8-.6-2.2-.2-2.8 2.7-.3 1.8-1.7 4.6-3 6.3-2.6 3.2-2.4 3.2-4.1-2-.8-2.7-2.5-1.6-4.8 3.2-2.1 4.5-2.4 4.7-8.5 6.1-4.8 1-8.3 2.8-14 6.8-4.3 3-10.7 6.9-14.4 8.7-7.1 3.3-8.9 5.3-3.9 4.2 3.7-.8 4.8 1.6 1.9 4.2-1.6 1.5-4.2 1.9-14.4 2.3-14.3.6-14.4.6-14.4 9 0 11.1-.7 12.6-6.6 16-8.4 4.7-9 7.5-2.5 13.2 3.1 2.8 4.6 6.8 5.6 15 .3 2.6 1.4 5.6 2.3 6.8l1.7 2.1 7.3-2.6c5.6-1.9 7.7-2.3 9.2-1.5 4.7 2.5.6 8.3-11.5 16.4-9 6.1-12.9 10.2-14 14.9-.6 2.3-.4 2.7 1.1 2.5 3.8-.3 6.9.3 8.8 1.7 1.8 1.3 1.7 1.6-1.4 5.5-3.8 4.8-6.4 5.6-12.6 4.1-3.9-1-5-.9-7.1.4-3 2-2.7 4.7 1.2 14.4 3.2 7.7 3.2 10.7.3 11.7-4.2 1.3-15.4.6-25.4-1.6-13.3-2.9-30.4-2.9-43.4 0-10.6 2.3-17.4 2.5-26.8.9-9.2-1.6-13.2-.3-15.8 5.3-1.9 4.2-2 4.3-7.4 4.6-5.3.3-5.8.1-9.7-3.7-6.3-5.9-13.8-8.4-24-7.9-7.6.4-8.6.7-12 3.7-2.1 1.7-5.1 4-6.7 4.9-4.6 2.7-8.2 6-7.4 6.7.4.4 1.9-.2 3.4-1.4 6.7-5.3 25.5-6.9 35.7-3.1 5 1.9 11.7 7.3 10.5 8.5-.3.3-4.9-1.7-10.4-4.5-13.8-7.1-18-6.8-35.6 2.1l-9.7 4.9.6-3.3c.2-1.8.1-4.8-.4-6.7-1.2-4.6-4.2-5-9.3-1.5-3 2.1-4.5 2.5-7.3 2-6.3-1.2-14.4 2.4-19.5 8.6l-2.4 2.9 2.2 3.6c1.3 2 1.9 3.9 1.4 4.4-.5.5-3.9 0-7.9-1.1-13.3-3.7-24.6-1.8-30.9 5.1-4.4 4.9-4.5 7.2-.6 14.8 3.6 7.2 3.8 9.8.8 10.6-4 1-8.8.6-12-1l-3-1.6-5 4.9c-2.7 2.6-5.6 6.1-6.4 7.6-1.4 2.7-1.4 3.1 1.5 7.6 4.6 7 4.3 7.5-3.6 6.7-3.8-.3-8-.9-9.4-1.2-2.4-.5-2.8-.2-4.4 4-2.1 5.5-1 9.6 2.6 9.6 2.1 0 2.1-.1.6-1.8-2.6-2.8-2.1-3.2 3.6-3.2 11.3 0 18.8-4.7 20.6-12.9.9-4.2.8-4.6-2.1-7.3-3.5-3.3-3.3-4.3.6-2.8 5.3 2 12.9 1.2 19.2-2 6.5-3.3 13.5-9.1 11.7-9.7-4.3-1.5-9.3-8.4-9.3-12.8 0-2.5 4.6-6.5 7.4-6.5 1.4 0 4.7 1.3 7.3 3 6 3.8 9.8 3.8 17.3 0 3.3-1.7 7.1-3 8.6-3 2.5 0 2.6.1 1.2 2.2-.9 1.3-3.8 3.2-6.5 4.3-14.3 5.8-21.5 18.8-16.8 30.2 1.4 3.4 1.4 3.9-.9 8.7-4.1 8.7-4.2 9.9-.5 14 1.7 2 5.1 4.8 7.5 6.2 4.9 2.9 4.8 2.8 3.4 5.4-1.8 3.3-5 4.3-17 5.1-14.6 1-22.6 3.6-28.6 9.4-3.4 3.2-4.4 4.9-4.4 7.3 0 1.7.5 3.4 1 3.7.6.3 1 .2 1-.4 0-2.2 6.3-8.1 10.5-9.7 3.3-1.2 5.7-1.5 9.2-.9 2.7.4 8.3.8 12.7.9 7.1.1 8.2-.2 11.6-2.7 2.1-1.5 6.4-5.9 9.5-9.7 5.3-6.5 6.2-7.1 12.4-9 3.6-1.1 7.2-2.4 7.9-2.8.6-.5 3.8-4.6 7-9.2 4.8-7.2 6.4-8.7 10.1-10.1 6-2.2 14.6-11.2 16.1-16.8.6-2.4.8-6.1.5-8.2-.7-3.8-.6-3.9 2.2-3.9 1.6 0 4.5-1.1 6.5-2.5 8.7-5.9 11.1-5.2 11.5 3.2.1 3.2.5 11 .9 17.3.3 6.3.3 14.7-.1 18.6l-.6 7.2-8.7 5.1c-16.2 9.6-30.1 21.2-46.5 38.9-12 12.9-15 17.7-19.7 31.5-7 20.7-8.8 36.4-5 44.1 2.6 5.1 3.7 4.2 3.9-3.1.6-19.4 9.7-39.4 27.7-61.1 3.8-4.6 8.5-9.2 10.5-10.2 1.9-1 7.3-4.9 12-8.6 7.8-6.2 16.7-11.4 19.7-11.4 1.5 0 1.5.5-.3 3.9-.8 1.6-1.1 3.1-.8 3.5 1.1 1.1 4 .6 5.3-.9.7-.8 2.3-1.5 3.6-1.5 2.1 0 2.4.5 2.4 3.7-.1 5.3-3.1 11.5-8.2 16.5-6.6 6.6-20.7 15.5-32.6 20.4-16.3 6.7-18.7 9.2-21.6 22-1 4.4-3.6 14.2-5.8 21.9-4 13.8-4.1 14.2-15.8 32-11.2 17.1-18.4 29.4-22.2 37.8l-1.8 3.9 3.9-.7c4.9-.8 6 1.3 2.5 4.6-2 1.9-3.8 2.3-10.8 2.7-7.6.4-8.3.6-7.9 2.3.5 1.7-.1 1.9-4.3 1.9-5.7 0-9.4.9-9.4 2.1 0 .5.5.8 1.1.7.6-.2 1.3.2 1.6.8.2.7-1.1 1.4-3.4 1.7-6.5.8-14.3 3.1-14 4.2.2.5 1.4 1.2 2.6 1.5 4 .9 2.6 2.5-3.7 4.2-7.2 1.9-8.2 2.4-8.2 4.4 0 .9 1.1 1.4 3.1 1.4 4 0 3.5 1.1-2.6 5.2-2.7 1.8-5.1 4.1-5.3 5.1-.3 1.6-.1 1.7 1.8.7 4.1-2.2 3.3 0-1.9 4.8-2.8 2.6-5.1 5.3-5.1 5.8 0 .6 1.9 1.9 4.2 3 6.4 2.9 6.4 5.9-.2 12.8-7.9 8.4-7.9 14.2-.1 26.4l3.9 5.9 31.8-.2c27.1-.1 33.9-.5 45.1-2.3 11.7-1.8 14.6-2 26-1.1 8.4.7 31.5.8 67.8.2 43-.7 56.6-.6 62.5.4 6.4 1.1 8.2 1.1 13.2-.3 4.9-1.4 8.2-1.5 24.5-.7 10.3.6 22.2.7 26.3.2 27.5-2.9 40.8-3.9 51.4-3.9 6.7 0 27.4-.7 46.1-1.5 39.4-1.7 86.9-1.8 120.5-.4 12.9.6 25.3 1.1 27.5 1 2.2 0 15.5-.2 29.5-.4 14-.1 28.5-.6 32.2-1.1 5-.7 7.1-.6 8.3.4 1 .9 3.2 1 7.1.5 3.5-.4 6.6-.2 8.3.5 2.1.8 17.4.8 60.2-.1 59-1.2 79.9-1.4 90.4-.8 3.3.2 8.7-.3 12-1 4.8-1.1 18.9-1.2 69-.9 35.3.3 65.4.1 68.5-.4 3-.5 7-1.1 8.8-1.5 1.9-.3 6.7 0 10.7.6 6.1 1 8.2 1 12.4-.3 4.1-1.2 6.9-1.3 13.9-.6 4.8.5 31.4 1.4 59.2 2 27.8.6 54.1 1.6 58.5 2.2 4.4.6 13.2 1.3 19.5 1.4 6.3.2 20.5.9 31.5 1.5s26.3 1 34 .9c7.7-.1 20.3-.3 28-.4 7.7-.1 14.9-.5 16-.9 1.1-.3 9-1.3 17.5-2.2 15.4-1.5 26.2-3.6 28.6-5.6 2.1-1.7 3.6-7.8 3-11.4-.4-1.9-2.2-5.7-4.1-8.6-2.9-4.2-3.5-6-3.5-10.5 0-4.9-.2-5.5-2.9-6.9-4.2-2.1-4.7-3.5-2.1-5.5 3.1-2.3 2.1-3.5-5.1-6.1-3.3-1.2-6.2-2.6-6.6-3.2-.8-1.4 1.7-2.7 5.5-2.7 2 0 3.2-.5 3.2-1.4 0-2-2-3.3-7.3-4.6-5.3-1.4-6.8-2.8-4.3-4.2 2.8-1.6 1.8-2.6-4.1-4.3-3.2-.9-6.6-1.8-7.5-2.1-1.3-.4-1.7-1.4-1.5-3.7.2-3 0-3.2-3.8-3.7-6.6-.9-9-3.6-3.8-4.2 2.8-.3 4.5-2.8 2-2.8-.8 0-2-1.3-2.6-3l-1-3h-9.5c-7.9 0-9.6-.3-9.6-1.5 0-.9 1.1-2 2.4-2.7 1.4-.6 2.7-1.7 3-2.4.7-1.9-5.1-1.8-8.4.1-4.7 2.7-9.1 1.5-5.5-1.5 2.7-2.3 1.7-3.3-2.6-2.6l-4.1.7.7-3.1c.8-3.6.3-3.7-4.2-.9-4 2.5-5.1 1.9-3.5-1.6.9-2 .9-2.5-.2-2.5-.7 0-1.9.6-2.5 1.4-1.5 1.8-4.5 2.6-6.2 1.5-1.1-.6-1.1-1.1-.1-2.1.6-.6 1.2-1.5 1.2-1.8 0-.9-11.4.6-13.6 1.8-1.4.8-2 .6-2.9-1.1-.9-1.8-1.9-2.2-6-2.2-2.8.1-5.9.5-7 .9-1.5.7-1.4.2.8-1.8 3.3-3.3 3.4-4.4.5-4.8-1.5-.2-3-1.7-4.4-4.3-1.9-3.7-2.2-3.9-6.1-3.7-2.3.2-7.1-.4-10.8-1.3-3.7-1-8.5-1.5-10.6-1.2-4.4.6-4.8-.1-1.9-2.8 3.1-2.8 2.4-3.5-3.7-3.5-3.2-.1-7.8-.5-10.2-.9-4.2-.8-4.4-.8-6.3 2.5-1.6 2.8-2.6 3.4-5.4 3.4-1.9 0-4.9-1.1-6.9-2.4-4.2-2.9-9.8-3.9-18.4-3.4-5.1.2-6.1 0-6.1-1.3 0-1.4-.6-1.6-3.7-.8-2.1.5-5.3.9-7.2.9h-3.4l.6-22.9.7-22.9-3.5-10.8c-1.9-6-5.2-14.7-7.2-19.2l-3.7-8.4-8.1.4c-7 .3-9.2.8-15.6 4-8.2 4.1-19.4 14-18.5 16.3 1.1 3 1.8 11.5.9 11.5-2 0-5.6-13.5-6-23-.4-8.7-.2-9.9 2.1-14.5l2.6-5-2.8-2.2c-2.1-1.8-2.3-2.2-1-2.3 1 0 4.3 2.3 7.5 5.2 3.1 2.8 5.9 4.6 6.1 4 .2-.6-1.1-3.7-2.7-6.9l-3.1-5.8 3.4-.3c3.5-.3 3.4-.1 6.8-9.4 2-5.5 3.9-7.7 10.6-12.5 11.6-8.3 20.5-6.9 32 5 10.3 10.8 13.8 20.8 12.9 36.8-.5 8.3-.3 10.4 1.5 15 1.7 4.6 1.9 6.9 1.5 14.9-.3 5.6-1.4 12.2-2.7 16-1.1 3.5-2 7.6-1.8 9 .6 5.3 14-22.6 15.7-32.8.5-3.1 1.2-13.4 1.6-22.7.8-20.2 1.7-25.7 5.1-30.8 1.4-2.1 3.4-7.5 4.4-12 3.2-13.5 4.8-17.7 10.8-29.5 7.8-15.2 13.1-21.6 20.2-24.3 16.1-6.3 30.1.7 41 20.5 6 10.8 8.3 20.9 7.8 33.3-.4 9.4-.3 10.1 1.2 9.3 4.2-2.3 7.6-15.5 6.5-25.4-.4-3.4-2.4-13-4.5-21.5-3-12.1-3.6-15.8-2.7-17.2.9-1.5.7-2.3-1-4.1-3-3.2-4-6.4-5.8-18.1-1.8-12.2-2.1-13.1-9.5-32.2-7-18-9-27-9-40.7.1-15.3 1.5-23.6 6.1-35.5 2.3-6 5.2-14.2 6.6-18.3 1.3-4.1 3-8.9 3.8-10.5 2.3-5.4 16.7-23.6 26.9-34.3 19.4-20.1 36.4-32.5 48.6-35.1 7.8-1.8 10.9-3.1 12.1-5.3.9-1.6.5-2.1-2.4-3.3-1.8-.7-8-1.7-13.8-2.1-5.7-.4-11.4-1.1-12.7-1.5-1.4-.6-4.5-.3-8.5.8-3.9 1-10.5 1.7-17.9 1.7-15.5.1-17-1.4-7.4-7.3 1.9-1.2 3.7-2.8 4-3.6.9-2.3-5.5-.9-31.4 7-33.2 10.2-49.2 13-70.7 12.3-15.1-.5-18.4-1.8-25.7-9.9-5.8-6.4-5.9-8.8-.7-16.5 5.2-7.7 9.1-11.3 15.4-14.4 3.7-1.8 5.3-3.2 5.5-4.8.3-1.8-.1-2.2-2.1-2.2-6.5 0-24.4 9.8-29.2 15.9-1.6 2.1-5.6 5.5-8.7 7.6-16.7 10.8-30.4 27.5-53 64.5-21.2 34.8-36.2 57.8-38.7 59.3-1.4.9-5.5 4.2-9.1 7.3-7.6 6.7-15.5 10.7-20.2 10.2-3.2-.3-3.3-.4-4.2-6.6-.5-3.4-1.2-6.2-1.6-6.2-1.3 0-3 6-3 10.4 0 5.2 3.7 11.4 13 22.1 10.6 12.2 12.3 16.8 14.5 40.3l1.4 14.4-4.5 6.1c-2.5 3.4-5.8 6.7-7.4 7.3-7.4 3.2-2.1 4.5 9.4 2.3 6-1.1 11.6-.5 11.6 1.3 0 .5-1 1.8-2.2 2.9-2.3 1.8-2.3 1.8 5.2 1.9 8.6 0 18.3 2 20.8 4.3.9.8 3.5 1.8 5.7 2.2 6.3 1.1 12 5 23.2 15.9 12.9 12.5 13.7 15.7 2.3 9-4.2-2.5-11.9-6-17.2-7.9-9.5-3.4-9.8-3.4-14.7-1.9-4.1 1.2-5.5 1.2-7.3.2-2.2-1.1-2.1-1.2 2.2-2.5 5.3-1.6 16.3-2.1 20.5-1l3 .9-3-3.2c-6.7-7.1-18.2-10.7-37.2-11.7l-12.3-.6v-3.4c0-3.9-.3-4-13.5-1.8-13.4 2.2-18.8 2-22.1-.8l-2.7-2.3 2.5-2.5c1.4-1.4 4.1-5.5 6.2-9.2 2.1-3.6 5.1-7.7 6.7-9.1 1.6-1.4 2.9-2.7 2.9-3 0-1.3-11.2-.5-15.7 1-2.6.9-9 4.3-14.1 7.6-12.1 7.7-16.7 9.8-21.9 9.8-7.3 0-6.1-2.8 3-7 2.6-1.2 4.7-2.5 4.7-2.9 0-1.8-12.4 1.1-21.4 4.9-6.1 2.6-12.2 4.4-15.6 4.7l-5.7.6-.6-3.9c-1.8-10.7-.2-14.5 4.9-12 1.6.8 5 1.7 7.5 2.1l4.6.7-1.9-8.9c-1.3-5.7-1.8-10.7-1.4-14.2.5-5.3 2.9-10 5.5-10.9.7-.2 4.4 2.8 8.3 6.7 3.9 3.9 7.4 7.1 7.9 7.1 2.2 0-1-17.9-5.6-30.7-1.9-5.4-3.5-10.1-3.5-10.5 0-1 6-2.8 9.6-2.8 4.2 0 12 2.6 15.7 5.2 2.7 1.9 2.7 1.9 2.7-.1 0-3.5-2-7.5-5.8-11.4-3-3.1-4.3-3.7-7.7-3.7-3.9 0-4.5-.5-18.5-15-8-8.3-15-15-15.7-15-3 0-2.9 20.3.2 28.9 1.9 5.6 2 5.4-1.1 4.8-2.4-.4-2.9.1-6.3 7.2-3.6 7.6-3.6 7.6-4.2 24.6-.4 12.2-1 18.2-2.2 21.4-1 2.4-1.7 5.7-1.7 7.4 0 1.8-.9 4.1-2.2 5.5-2.2 2.2-2.3 3.2-2.3 16.5.1 20.3 3.1 28.8 11.8 32.8 5.7 2.6 8.3 2.4 14.7-1.1 3-1.6 6.8-2.9 8.4-3 2.8 0 2.8.1 1.2 1.9-3.7 4.1-11.3 6.3-23.6 6.8-9 .5-11.9.3-12.5-.7-.5-.8-1.1-6.7-1.5-13.2-.9-16.2-1.6-16.5-3.9-1.9-1.5 9.4-3.3 10.4-2.9 1.6.1-3.9.1-10.4 0-14.5-.3-7.2-.3-7.4-1.6-4.5-.8 1.6-2.6 4.2-4.2 5.6-3.4 2.9-8.4 6.2-8.4 5.4 0-1.2 4.5-9.4 10.7-19.4 3.5-5.7 6.2-10.6 5.9-10.8-.8-.9-6.8 1.6-11 4.4-2.1 1.5-6.7 6.3-10.1 10.8-9.4 11.9-11.8 13.7-7 5 2.1-3.9 4.6-8.6 5.6-10.6 1.6-3.1 3-4.1 9.6-6.8 10.3-4.1 13.9-6.4 16.3-10.3l1.9-3.2-2.3-1.5c-1.3-.9-3.5-2.4-4.9-3.4-2.3-1.6-2.9-1.7-5.9-.4-4.6 1.9-11.8 10.2-15.3 17.5-1.6 3.5-3.8 6.5-5.1 7.1-1.3.6-3.5 2.8-5 5-2.8 4.2-2.9 4.3-9.8 2.4-2.4-.7-1.1-1.9 6.1-5.7 4.9-2.7 6.3-4.2 10.2-10.6 5.8-9.6 13.3-17.1 19.4-19.5l4.7-1.8 3.8 2.7c6.4 4.4 6.9 3.9 7.8-7.2.4-5.3.8-15.2.8-21.9v-12.2l2.3.5c1.8.5 2.3.2 2.3-1.3 0-1 1.2-3.6 2.8-5.8 2.7-3.9 2.7-4.2 2.7-19.5 0-29.9-2.3-72.8-4.5-85.5-4.6-26.4-11.1-49.3-15.5-55.1-1.5-1.8-1.5-1.8-1 .6 3.5 17.8 3.7 29.5.7 36.2-1.2 2.9-2.7 4.8-3.7 4.8-2.4 0-9-3.6-13-7.2-4.2-3.7-17.2-20.8-27.5-36.3-9.5-14.3-24.6-33.1-31.3-39-6.8-6-23.2-16.9-27.6-18.4-1.9-.6-4.3-1.1-5.4-1.1-1.9 0-1.8.3.9 3.1zM445.5 49.2c3.7 1.7 3.1 3.2-1.1 2.5-4.2-.7-4.9-1.1-3.9-2.6.8-1.4 1.8-1.4 5 .1zm9.7.5c1 .9 1.8 2.9 1.8 4.5 0 2.6-.3 2.9-2.7 2.6-1.4-.2-2.7-1-2.9-1.8-.1-.8-.5-2.7-.9-4.3-.6-2.2-.4-2.7 1.1-2.7.9 0 2.6.7 3.6 1.7zm11.5 2.4c.9.9.6 1.7-1.3 3.1-2.7 2.2-4.8 1.4-5.7-2.2-.4-1.7 0-2 2.7-2 1.8 0 3.7.5 4.3 1.1zm105.6 3.6c5.3 2.7 8.8 12.5 5.5 15.2-7.6 6.3-8 6.5-12.5 6.2-5.8-.3-13.5-11.8-11.5-17.2 2.4-6.3 10.6-8.2 18.5-4.2zm-111.2 3.8c0 .5-1.2 1.1-2.6 1.3-1.8.2-2.5-.1-2.5-1.3s.7-1.5 2.5-1.3c1.4.2 2.6.7 2.6 1.3zm13.9 3c0 2.6-1.6 4.2-2.2 2.3-.7-1.9.3-5.8 1.3-5.2.5.3.9 1.6.9 2.9zm4 3.8c0 4.2-1.3 7.7-2.3 6.1-.8-1.4.5-11.4 1.4-10.8.5.3.9 2.4.9 4.7zM454 63c0 .5-.7 1-1.5 1s-1.5-.5-1.5-1c0-.6.7-1 1.5-1s1.5.4 1.5 1zm10.9-.1c1.1.7 1 1.1-.7 2-2.5 1.4-5.2 1.4-7.2.1-1.3-.9-1.3-1.1 0-2 1.9-1.2 6-1.3 7.9-.1zm184.2 1.2c4.7 1.5 6.4 5.4 5.7 13.5-.6 7.1-2.7 9.4-8.5 9.4-5.3 0-9.2-1.8-12.7-6-3.3-4-3.3-7 .1-13.1 2.5-4.7 2.8-4.9 7.1-4.9 2.5 0 6.2.5 8.3 1.1zm-165.1 3c0 .6-.4.7-1 .4-.5-.3-1-1.1-1-1.6 0-.6.5-.7 1-.4.6.3 1 1.1 1 1.6zm-13.2 2.6c-.3 1.5-1.6 1.9-7.1 2.1-3.7.2-6.7-.1-6.7-.6 0-2.1 2.9-3.2 8.3-3.2 5 0 5.8.2 5.5 1.7zm13 5.2c.5 2.9-1.3 5-2.9 3.4-1.5-1.5-.3-6.6 1.4-6 .7.2 1.4 1.4 1.5 2.6zm-8.4-.3c.9.3 1.6 1.2 1.6 2 0 1.5-5.1 1.8-8.5.5-1.9-.8-1.9-.8 0-1.9 2.3-1.3 4.6-1.5 6.9-.6zM490 77c0 2.4-2.1 7-3.2 7-1.2 0-1-4.5.3-7.4 1.3-2.8 2.9-2.6 2.9.4zm86.8 4.4c.3 1.2-.1 1.7-1 1.4-.7-.3-1.5-1.3-1.6-2.2-.3-1.2.1-1.7 1-1.4.7.3 1.5 1.3 1.6 2.2zM479 82c0 2.4-2.6 3.7-4.8 2.3-2.3-1.4-2.6-3.1-.5-3.6 4-1 5.3-.7 5.3 1.3zm3 7.1c0 1.8-3.1 2.2-4.8.5-1.5-1.4-1.5-1.8-.3-2.6 1.6-1 5.1.4 5.1 2.1zm9 .2c0 2.3-1.7 4.7-3.2 4.7-1.1 0-1-1.3.2-4.4 1.2-3.2 3-3.4 3-.3zm81 8.9c-1.4 7.8-.3 12.3 3.2 13.4 1.1.3 1.7.8 1.5 1.1-1.2 1.2-4.8-1.1-6.3-3.9-2.2-4.3-2.1-12.8.2-16.7 2.5-4.2 2.9-2.3 1.4 6.1zm-5.3.8c-1 3.8-1.6 4.8-2.1 3.5-.3-1 .1-3.8 1.1-6.3 2.2-5.8 2.8-4.2 1 2.8zM483 94.8c0 2.6-1 3.3-3.1 2.1-2.8-1.4-2.4-3.9.6-3.9 1.8 0 2.5.5 2.5 1.8zm9 1.3c0 2-2.1 4.9-3.5 4.9-1.9 0-1.9-1 .1-3.8 1.6-2.3 3.4-2.9 3.4-1.1zm12 2.8c2.2.7 1.9.9-2.2 1.6-5 .8-7.8.3-7.8-1.5 0-1.1 6.2-1.2 10-.1zm120.1.7c-2.5.8-4.7 1.2-4.9.9-.8-.7 4-2.4 6.8-2.3 1.8 0 1.2.4-1.9 1.4zm-141.6 1.9c0 .5-1 1.1-2.2 1.3-1.6.2-2.3-.2-2.3-1.3s.7-1.5 2.3-1.3c1.2.2 2.2.7 2.2 1.3zm150.8.2c.3 1 .8 3.6 1.2 5.8.4 2.2 1.4 4.8 2.2 5.7 2.4 2.7 1 12.1-3.8 26-2.2 6.5-3.9 13-3.7 14.6l.3 2.7 1.3-2.2c.7-1.3 1.7-4.8 2.3-7.8.6-3.5 1.9-6.4 3.5-8 1.3-1.3 2.4-3.2 2.5-4.2 0-1.4.3-1.2 1 .6.9 2.2 1.3 2.3 6.2 1.7 2.8-.4 6.3-1 7.7-1.3 1.4-.3 2.2-.2 1.8.2-.9.9-9.9 4.4-13.5 5.2-3.1.7-3.8 1.8-7.2 11.3-2.3 6.6-2.7 8.7-1.8 10.1 1.2 1.9-.8 14.4-5.8 35.8-1.3 5.7-2.7 14.5-3.1 19.6l-.6 9.2-5.5 1.6c-3 1-9.3 4-13.9 6.7-9.1 5.4-9.1 5.4-7.3-3 1.1-5.3 2.9-6.8 2.9-2.3 0 2 .3 2.4 1.2 1.5.6-.6 1.4-5.5 1.7-10.9.4-7 1.1-10.5 2.4-12.3 1-1.4 1.7-4.3 1.7-6.8 0-2.4 1.2-8.2 2.6-12.8 3.1-9.8 3-18-.2-21.5-1.8-2.1-2.3-2.1-15.4-1.3-30.5 2-49.6.4-51.4-4.2-.5-1.2-.2-1.5 1.1-.9 11.7 4.8 32.8 5.5 48.4 1.6 10.9-2.7 15.2-2.4 19.9 1.5 2.8 2.4 3 3 3 9.9 0 5.4-1.1 11.7-4 22.9-2.2 8.6-4.3 18.4-4.6 21.8-.3 3.5-.7 7.6-1 9.2-.4 2.8-.3 2.9 1.5 1.2 1.5-1.3 1.9-3.6 2.4-11.4.4-6.9 1.6-13.3 4.2-22.2 5.8-19.7 5.9-34 .2-34-3.5 0-6.7-2.7-6.7-5.7 0-2.5.1-2.5 1.8-1 2.7 2.4 2.9 2.2 3.5-3.1.3-2.6.9-5.7 1.2-6.9.5-1.6.2-2.3-1.4-2.8-2.5-.8-2.9-3.8-.5-3.3.9.2 3 2 4.7 4l3 3.8-2.1 2.3-2.2 2.4 2.2 4.9c2 4.2 2.3 6.5 2.2 15.9 0 9.2-.6 13.6-3.8 26.5-3.5 14.6-5.7 30-4.2 30 1.4 0 2.8-6 3.6-16.2.7-8.4 1.7-13.2 4.7-21.5 3.1-9 3.8-12.1 3.8-18.8 0-7.4-.3-8.5-3.2-13.1-1.8-2.8-3.3-5.8-3.3-6.7 0-1 1.4-2.3 3.3-3.1 3.8-1.6 5-1 2.3 1-1.9 1.4-1.9 1.6 2 9.5 5.2 10.8 5.1 14.3-1 31.9-4.9 14.2-6.8 26-4.8 31 .9 2.3 1.1 2.2 2.5-3 .9-3 2.3-11 3.2-17.7 1.5-12 3.1-18 5.6-22.1 1.8-2.8-.1-18-2.7-21.9-2.3-3.5-2.2-4.4 3.2-18 5-12.5 5.3-16.3 2.4-24.8-1.1-3.2-2-7.2-2-8.8 0-2.9-.1-2.9-4-2.4-4.2.5-4.6-.7-.6-2.3 3.5-1.4 6.4-1.1 6.9.7zm9.2 8.7c2 6.5 1.8 11.1-.5 16.6l-1.9 4.5.5-5.5c.3-3.3-.1-8.6-1.1-13.5-3-14.5-3-13.4-.6-10 1.2 1.6 2.8 5.2 3.6 7.9zm-28.6-6.9c2.4 1.2 3 2.2 3.5 6.8.9 6.7-.7 13.7-3.5 15.9-2.4 2-8.3 2.3-12.6.7-4.3-1.6-8.2-5.9-9.4-10.3-1.3-4.8 1.1-12.3 4.5-13.6 3.5-1.4 14.4-1.1 17.5.5zm-95.6 1.5c1.4 1.2 4.8 5.5 7.4 9.8l4.8 7.7.5 13c.5 12.4 1.7 17.5 4.1 17.5.9 0 .4-3.3-1.2-7.8-1-2.6-1.2-6.8-.3-6 .3.4 1.8 4.9 3.3 10.2 3.1 10.6 2.5 12.1-2.9 6.8-3-3.1-4.1-7.3-6-23.1-1.3-11.5-4.4-18.4-11.1-25.1-3.9-3.9-4.6-5-3.1-5 1.1 0 3.1.9 4.5 2zm-27.3 1.9c0 1.8-1.8 4.1-3.2 4.1-1.2 0-1-2.8.4-4.9 1.4-2.2 2.8-1.8 2.8.8zm138.5 9.6c.4 5.7.4 12.4.1 14.8-.8 5-3.9 10.7-6 10.7-1.6 0-6.9-5.7-9-9.8-1.4-2.7-1.3-2.8 1.4-4 4.3-2 7.4-8.9 6.8-15.7-.5-5.6-.1-6.3 3.9-6.4 2-.1 2.1.5 2.8 10.4zm418.5-3c0 2.1-.5 3.5-1.2 3.5-2.9 0-5.8-1.3-5.8-2.5 0-1.4 3.8-4.4 5.8-4.4.7-.1 1.2 1.2 1.2 3.4zm-578.4-.7c1.8.9 6.1 4.4 9.7 7.8l6.5 6.1-3.2 1.9c-2.8 1.7-5.3 1.9-24.1 1.9h-21l-.5 8c-.5 7.6-.6 8-3 8.3-1.4.1-3.2-.2-4-.8-1.3-.8-1.3-1.3-.2-3 .9-1.5 1-2.5.3-3.4-.8-.9-.7-1.8.3-3.2 1.2-1.6 1.2-2.3.1-4.4-2.7-5.3 4.8-13.9 16.1-18.5 7.3-3 18.2-3.4 23-.7zm22.4-.9c0 1.1-2.8 4.1-3.9 4.1-1.8 0-2-1.5-.4-3.2 1.7-1.9 4.3-2.4 4.3-.9zm81.1 3c1.3 1.1 2 2.3 1.6 2.7-.4.4-2-.4-3.5-1.9-3-3.1-1.6-3.7 1.9-.8zm16.9 8c3.5 5.3 7 8 10.3 8.1 2.5 0 2.1 2.6-.9 4.9-3.5 2.8-12.3 2.9-14.6.3-2.9-3.2-4.8-8.1-4.8-12.2 0-9.4 4.1-9.8 10-1.1zm150.1-5.1c-1.3.9-5.1 3-8.5 4.5-4.9 2.2-5.7 2.4-4.1.8 1.1-1 4.2-3.1 7-4.5 5.7-3 9.4-3.5 5.6-.8zM721 126c0 .5-.7 1-1.5 1s-1.5-.5-1.5-1c0-.6.7-1 1.5-1s1.5.4 1.5 1zm-8.6 3c-1.6 1.6-14 3.8-24.3 4.3-13.1.7-9.2-.9 6.5-2.7 7.1-.8 14-1.9 15.4-2.4 2.8-1.1 3.9-.7 2.4.8zm504.9.7c1.5 1.4-1.8 3.3-5.7 3.3h-4.1l2.5-2c2.5-1.9 6.1-2.6 7.3-1.3zM490 133.1c0 .5-.9.9-2 .9-3 0-2.4 1.4 1 2.7 3.4 1.3 4 3.8 1 4.6-2.6.7-2.6 2.7.1 2.7 1.6 0 1.9.4 1.4 1.7-.4 1-1.1 3.1-1.7 4.8-3.4 10.5-4.2 10.8-13.5 6.1-8.3-4.1-13.8-5.7-20.5-5.8-3.1 0-6.3-.7-8.3-1.9l-3.3-2-3 2.6c-1.7 1.4-3.7 2.3-4.5 1.9-1.3-.5-1.1-1.2 1-4.2 2-3 2.4-4.5 1.9-7.8-.5-3.8-.3-4.3 2.2-5.2 3.9-1.6 5.6-1.7 28-1.9 11.6-.1 20.2.3 20.2.8zm118 .4c1 1.2 1 1.5-.4 1.5-.9 0-1.6-.7-1.6-1.5s.2-1.5.4-1.5.9.7 1.6 1.5zm66.7.1c-.3.3-1.2.4-1.9.1-.8-.3-.5-.6.6-.6 1.1-.1 1.7.2 1.3.5zm509.3 3.3c0 .5-1.8 1.1-4 1.3-3.8.3-4.8-.1-3.3-1.5 1-1 7.3-.8 7.3.2zm-574.7 5.5c.6 1.9.5 3.7-.3 5.4-1.1 2.6-1.2 2.6-3-2.8-1.1-3-1.9-6.1-2-6.9 0-2.3 4.3 1.2 5.3 4.3zm189.7-.7c3.2 3 4.7 5.4 6.5 10.8 1.3 3.8 2.2 7.1 2 7.4-1 .9-3.8-2.6-6.5-7.8-1.5-3.1-4-6.7-5.5-8.1-7-6.5-3.7-8.6 3.5-2.3zm375-2.2c0 1-1 1.5-3.2 1.5-3.1-.1-3.2-.1-1.4-1.5 2.5-1.9 4.6-1.9 4.6 0zm-745 9.3c1.4.5 3.4 1.9 4.4 3.1 2.3 2.5 4.2 2.6 9.6.5 5.3-2.1 6.3-1 2.3 2.6-9.8 8.8-33.2 3.8-33.3-7.1v-2.5l7.3 1.2c3.9.7 8.3 1.7 9.7 2.2zm721.8-2.2c-.9.9-53.2 26.4-54.2 26.4-1.9 0 1.9-3.1 7.7-6.4 3.4-1.9 8.6-5.9 11.6-9l5.4-5.5h6.2c4.4 0 8-.7 12.1-2.4 7.1-3 12.5-4.5 11.2-3.1zm-746.2 10.8c2.1 1.8 5.4 5.9 7.3 9 3 4.9 3.4 6.5 3.5 13 .1 8.8-.9 10.6-5 8.8-2.3-1.1-3.4-.8-11.6 3.9l-9 5.2-8.6-9.1c-5.3-5.5-10.2-9.8-12.5-10.7-6.7-2.8-2.1-4.5 4.8-1.9 1.9.8 1.9.7.2-1.9-2.5-3.8-2.1-4.7 1.8-4.7 3.3 0 3.5-.2 3.5-3.1 0-3 .1-3.1 3.3-2.5 2.1.4 4 .1 5.2-.8 1.1-.8 3.1-1.2 4.5-.9 1.4.2 3.7 0 5.1-.5 2.2-.9 2.5-1.5 2.1-4.1-.6-4 .5-3.9 5.4.3zm59.3.2c.8.7-4.6 4.3-8.2 5.4-4.2 1.2-5.3.9-4.4-1.5.4-.9 1.9-1.5 3.7-1.5 1.6 0 3-.5 3-1 0-.6-.5-1-1.1-1-.5 0-.7-.4-.4-1 .5-.8 6.3-.3 7.4.6zm-18.7 5.8c.1 1.1 3.2 4.4 6.8 7.5 8.7 7.3 9.7 8.8 7.6 10.9-3.6 3.6-12.7.9-17.9-5.2-1.8-2.2-1.7-4.7.4-13 1-3.8 2.4-3.9 3.1-.2zm22.6-2.2c.7.7 1.2 2 1.2 3.1 0 1.3.6 1.7 2.3 1.5 2.5-.3 2.5-.2.7 6.4l-1.2 4.8-2.6-2c-2.8-2.2-4.8-2.6-5.4-.9-.4 1.3-4.4-.6-8.7-4l-2.5-1.9 6.4-4.1c6.8-4.4 7.9-4.8 9.8-2.9zm-39.6 8.3c1 2.9 3.7 6.9 6.6 9.9 3.7 3.8 5.1 6.1 5.6 9.1.3 2.2.8 5.2 1.2 6.7 1 4.5-1.3 3.3-4-2-1.3-2.6-4.7-7.5-7.4-11-5.6-6.9-7.7-12-6.8-15.8 1-3.7 2.8-2.5 4.8 3.1zm-7.2 0c0 4.4 2.3 9 9 18 5.8 7.7 8 12.1 8 15.9 0 4.7-2 3.6-7.6-4.1-3.1-4.3-7-9.2-8.7-11-1.9-2-3.1-4.5-3.2-6.5-.2-1.8-.6-6.1-1-9.6-.7-5.9-.7-6.2 1.4-6.2 1.7 0 2.1.6 2.1 3.5zm186.7-.8c2.6 4 2.1 12.9-1.6 23.8-1.6 4.9-3 8-3 6.9-.1-1.2.9-5.3 2.1-9 2.8-9 3-17.4.4-20.3-1.1-1.2-2.6-1.9-3.5-1.7-2.4.8-31.3 2.8-31.8 2.3-.9-.9 22.3-4.2 31.9-4.6 3.1-.1 4.1.4 5.5 2.6zm203.1.9c.4 3.3-1.1 2.4-2.3-1.5-.5-1.7-.4-2.2.6-1.9.8.3 1.5 1.8 1.7 3.4zm4.6 7.3c1.4 2.4 1.6 3.5.7 4.4-1.5 1.5-3.1-.2-4.1-4.7-1-4.6.6-4.4 3.4.3zm274.1-.4c-4.1 2.6-9.2 3.4-7.9 1.4.9-1.6 6.5-3.8 9.4-3.8 2.3 0 2.1.2-1.5 2.4zm-370 2.5c1.8 2 1.8 2.2.2 4.9-.9 1.6-1.7 3.6-1.7 4.4 0 .8-1.6 2.7-3.5 4.1-3 2.4-3.5 2.5-3.5.9 0-1 1.4-3.8 3.1-6.3 2.2-3.3 2.9-5.2 2.5-7.3-.7-3.2.4-3.5 2.9-.7zm22 6.9c-3 5.9-11.4 9.9-17.8 8.5l-3.1-.7 3.9-3.4c5.1-4.4 11.1-7.2 15.3-7.3h3.3l-1.6 2.9zm-367.5 3c4.9 3 10 10.1 10.3 14.7.2 2.6-.1 2.9-3.2 3.2l-3.4.4 1.6-2.6c2-2.9 2.2-4.5.5-2.8-1.9 1.9-3.5 1.4-4.3-1.5-.3-1.5-2.4-4.6-4.5-6.9-2.1-2.2-4.3-5.1-5-6.4-1.1-2-1-2.1 1.2-1.5 1.2.4 4.3 1.9 6.8 3.4zm444.8-1c.3 1.6-.1 2.2-1 1.9-.7-.3-1.5-1.5-1.6-2.7-.3-1.6.1-2.2 1-1.9.7.3 1.5 1.5 1.6 2.7zm-137 1.8c.4 3.8.8 4 3 1.3 1.7-2.1 1.7-2 5.5 1 2.7 2.3 3.7 3.9 3.7 6.1 0 3.3.2 3.4 2.9 1.7 1.6-1 2.6-.5 7.2 3.6 2.9 2.6 9 6.5 13.7 8.8l8.4 4.1-.6 3.6c-.3 2-.6 5.7-.6 8.4 0 3.9-.5 5.3-3 7.9-1.6 1.7-3 3.7-3 4.4 0 1.4-10.5 2.3-14.7 1.2-1.7-.5-3-.2-4 .8-1.7 1.6-4.3 1.9-4.3.4 0-.6.5-1 1-1 .6 0 1-.3 1-.8 0-.4-1.9-.6-4.3-.4-2.3.2-5.8 0-7.7-.5l-3.4-.9 4.9-2.8c5.3-3 4.4-2.9 22.7-1 5.2.6 5.9.4 8.2-1.9 6-6 .5-16.4-10.8-20.7-4.1-1.5-4.5-.4-.6 1.7 6.9 3.8 9.5 6 9.8 8.1.4 2.6.4 2.6-10.4 1l-8.2-1.2-2.1-5.2c-1.2-2.8-5.3-9-9.1-13.7-3.8-4.8-8.1-10.7-9.6-13.2l-2.7-4.6 3.4.3c3 .3 3.4.7 3.7 3.5zm-316.9 0c1.2 1.4 1.9 2.8 1.7 3-.9.9-6.6-2.8-6.6-4.2 0-2.4 2.7-1.7 4.9 1.2zm82.6 2.2c-.5 1.8-1 2-2.1 1-1.5-1.2-1.9-4.1-.7-5.3 1.3-1.3 3.5 2.1 2.8 4.3zm-91.8-.9c6.1 2.7 10.3 5.9 14.9 11.6l3.8 4.6-2.5 1.9c-2.2 1.8-3.5 1.9-14.6 1.3-15.5-.8-20.7.6-7.8 2.1 8.3.9 9 1.2 9.3 3.3.3 2.2.7 2.3 6.9 2 3.9-.2 6.7.1 7 .7.2.6-2.2 2.6-5.2 4.4-3.1 1.9-7.2 4.8-9.1 6.6-2 1.9-5.2 3.6-7.2 4-2.1.3-5.5 1.5-7.7 2.5-2.2 1.1-5.4 2.2-7.1 2.6-3.1.6-3.1.6-3.1-4 0-3.5-.6-5.2-2.3-7.1-2.3-2.4-2.3-2.6-.5-3.9 2-1.4 1.5-2-3-3-2.8-.7-2.9-.9-1.2-2.1 1.7-1.2 1.5-1.4-2.5-2.2l-4.3-.9 4.5-2.8c6.9-4.4 9-6.7 9.6-10.7.5-3.2 1.1-3.9 3.7-4.5l3-.6-2.8-2.2c-2.8-2.2-2.8-2.3-.9-4.5 1.7-2.1 2.5-2.2 8.2-1.7 3.4.3 8.4 1.5 10.9 2.6zm446.3 4c1.3 2.7 3.1 5.2 4.1 5.5 1 .3 2.1 2 2.5 3.8.3 1.7 1.5 5.1 2.6 7.6 1 2.4 2.3 6.2 2.7 8.3 1.4 6.1-1.2 3.1-6.5-7.5l-4.5-8.8-6.2.2c-3.4.1-7.3-.3-8.7-.9-1.4-.6-5-1.8-8.1-2.6-3.1-.9-6.2-2.3-6.9-3.2-1.2-1.4-.2-1.5 10.6-1.2l11.9.3.3-3c.7-7.2 2.3-6.8 6.2 1.5zm-393.9-4c2.3 1.3 2.6 4.5.3 3.6-.9-.3-2.9-.6-4.5-.6-3.5 0-3.8-1.3-.6-2.8 2.8-1.4 2.5-1.4 4.8-.2zm18.4 9.2c2.6 3.4 4.6 7.4 5 9.7l.6 3.9 2.9-1.6c4-2.3 5.5-.6 5.3 6-.2 7.5-1.5 8-6.6 2.5-2.4-2.6-5-4.7-5.9-4.7-1 0-1.7-1.2-2.1-3.4-.3-1.8-2.6-6.3-5.1-10-4.3-6.2-5.6-10.3-3.9-11.9.9-1 4.6 2.7 9.8 9.5zm32.5-5.8c0 3.1-4.6 22.2-6.2 25.4-1.7 3.7-6.7 8.2-8.9 8.2-1.6 0-1.6-3.2-.3-10.1.8-4.1 1.3-9.3 1-11.5-.5-4.2-.5-4.2 5.7-8.3 5.4-3.6 8.7-5 8.7-3.7zm572 4.2c0 1.9 2 1.8 7.1-.6 7.9-3.6 13.6-1.8 6.3 2-1.6.8-7.6 4.7-13.4 8.6-5.8 3.9-17.2 11.3-25.5 16.4-8.2 5.1-18.6 12-23 15.3-4.4 3.3-9.8 6.7-11.9 7.4-5.7 2-7.7 3.3-7.1 4.4.9 1.4 6.7 1.1 11.5-.6 4.8-1.7 18-2.1 18-.5 0 .5-1.3 1-2.9 1-1.5 0-9.8 1.8-18.4 4-8.6 2.2-18.3 4.3-21.7 4.7-3.3.3-5.9.9-5.8 1.4.2.4 1.8 1.8 3.7 3.1 1.9 1.3 3.6 2.9 3.9 3.7.7 2-9.6.4-13.1-2.1-3.2-2.2-4.2-1.7-5.4 2.9l-.8 3.1-6.3-5.9c-6.5-6.1-6.6-7.9-.4-6.5 5.2 1.2 5.7 1.1 7.4-2.2 2.2-4.5 1.9-4.4 7-2.9 3.9 1.2 5 1.2 8.9-.3 7.2-2.9 19.9-10.1 26.4-15 3.4-2.6 10.2-7.1 15.1-10 21.2-12.7 31.6-21.2 36.4-29.9 2.2-3.9 4-4.6 4-1.5zm-616.2 1.6c4 4.4 9.7 18.8 7.4 18.8-.4 0-4.2-1.2-8.4-2.7-7.1-2.5-7.7-3-8-5.8-.2-2-.9-3.1-2.1-3.3-1.5-.3-1.8 0-1.2 1.6.4 1.5 0 2.4-1.7 3.3-3.1 1.6-3.8 2.8-3.8 6.6 0 2.6-.4 3.3-1.9 3.3-1.8 0-3.1-1.8-3.1-4.4 0-.7 1.1-3 2.5-5.1 1.5-2 2.4-3.9 2.3-4.1-1.1-1-4.7 1.1-5.2 3-.6 2.5-4.8 4.8-7.1 4-.8-.4-1.5-1.8-1.5-3.4 0-2.4.5-3 3-3.5 2.3-.5 2.8-1 2.1-1.9-.8-.9-.4-1.9 1.3-3.5 3.5-3.3 9.2-5 16.7-5.1 5.5 0 6.9.3 8.7 2.2zm412 5.8c2.4 2.2 2.8 4.5 1.1 5.5-1.4 1-4.6-2.1-5.2-5.1-.5-3 1.1-3.1 4.1-.4zm-320.3 4.1l3.6 3.2 7.4-1.3c7.5-1.3 13.2-.9 19.2 1.2 4.5 1.6 6.8 7.7 6.8 17.8 0 6.6-.4 8.4-3.6 15-2 4.1-6.7 11.7-10.5 16.8-6.3 8.5-7 9.2-8.2 7.5-2.1-2.8-.9-9.9 3.1-18.9 2-4.5 3.7-9.1 3.7-10.2 0-3.1-2.1-7.2-3.7-7.2-1.2 0-1.3 1.1-.8 5.4.5 3.4.3 6.1-.4 7.5-1.7 3-3.1 2.6-3.1-.9 0-4.7-2.8-2.6-3.6 2.7-.6 4.4-4 8.7-9.1 11.6-1.9 1.1-3 0-1.5-1.5s1.5-2.8.2-2.8c-.6 0-1.9 1.4-2.9 3.1-1.1 1.7-3.7 3.9-5.8 4.9-4.4 2-8.9 6.5-7.4 7.4.5.4 2.5-.7 4.4-2.4 2.7-2.3 4.4-3 7.7-3 3 0 5.5-.8 8.6-3l4.4-2.9v6.2c0 4.7-.8 8.2-3.4 14.6l-3.4 8.3 1.9 3.2c1.8 3 3.2 11.6 4.2 24.4l.4 5.3-4.1-.6c-20.2-3.2-34.6-7.8-52.2-16.9-13.6-7-31.3-19.3-31.4-21.7 0-2.1-1.7-3.4-5.5-4.4-2.6-.8-2.1-1 3.7-1.5 7-.7 11-2.6 8.6-4.1-.7-.5-2.5-.9-4-.9-4.9 0-3-1.5 3.3-2.7 3.3-.6 6.9-1.9 8-2.9 2.4-2.2 2.5-4.7.2-4.1-11.4 3.2-16.5 3.2-17.7.1-.4-.9-.5-1.8-.3-2 .1-.2 3.3.1 7 .6 5.3.8 7.5.7 10.2-.4 1.9-.8 3.5-2 3.5-2.5 0-1.3-.6-1.4-4.7-.2-2.3.7-3.7.5-5-.4-3-2.2-.1-3.9 7-4 7.2-.1 11.5-2.2 16.8-8.3l3.3-3.7-6-.5c-7.1-.6-6.4-1.2 3.9-3.4 8.2-1.8 13.5-5.1 12.5-7.8-.3-.8-2.4-2-4.7-2.6-2.2-.7-4.3-1.7-4.6-2.2-1.3-2.1 2.9-2.2 7-.2l4.4 2.1 5.8-2.9c4.2-2.2 9.5-3.6 18.8-5.2 11.6-1.9 18.1-3.8 13.1-3.8-2.2 0-13.6-5-13.6-6 0-3.1 4.4-2.5 8.5 1.1zm66.5-.2c0 3.2-5.6 7.1-10.2 7.1-3.7 0-3.9-.2-2.7-1.7 1.8-2.2 9.9-7.3 11.6-7.3.7 0 1.3.9 1.3 1.9zm-23.2 5.2c.9 1.6 1.2 5.1.9 10.6-.3 7.8-1 10.4-2.3 9.1-1-1.1-3.4-11.3-4-17.6l-.7-6.2 2.4.8c1.3.5 3 2 3.7 3.3zm-169.1-.9c1.3 1.2 2.3 3 2.3 4 0 1.7-.2 1.7-2.7.4-1.6-.8-3.7-2.1-4.8-3-1.7-1.3-1.8-1.7-.5-2.6 2.2-1.4 3.1-1.2 5.7 1.2zm110.1-1c1.9 1.9 1.4 2.5-1.8 2.4-2.1-.1-3-.6-3-1.9 0-2 3-2.3 4.8-.5zm110.2 5.2c0 3.5-.5 5.8-1.5 6.6-1.3 1.1-1.5.8-1.5-1.6 0-4.7 1.2-10.4 2.1-10.4.5 0 .9 2.4.9 5.4zm-13.8-1.2c-3.5 5.6-9.4 9.1-16.2 9.6-5.6.4-6 .3-6-1.7 0-1.1-.4-2.1-1-2.1-.5 0-1 1.6-1 3.5 0 2.1.5 3.5 1.3 3.5.6 0 1.8.4 2.6.9 1.2.8 1.2 1.3-.3 3.5-2 3.2-5.8 3.4-10.3.6-2.9-1.7-3.3-2.5-3.3-6.2 0-8 .6-8.8 6.4-8.8 2.8 0 9.4-1.3 14.6-3 5.2-1.6 10.8-2.9 12.3-2.9l2.9-.1-2 3.2zm-176.4 1.3c4.7 2.2 5.3 2.7 4.6 4.7-.9 3.1-.7 3.1-5 1.9-5.5-1.5-8.4-3.8-8.4-6.7 0-3.1 2-3.1 8.8.1zm74-.8c.2.8-.6 1.3-2.2 1.3-1.7 0-2.6-.5-2.6-1.6 0-1.9 4.1-1.6 4.8.3zm-53.6 4.8c.9 1.2-1 3.5-2.8 3.5-.9 0-1.4 1.2-1.4 3.4 0 2.6 1 4.6 4 8.1 2.2 2.5 4 4.8 4 5.1 0 1.8-6.5 12.4-7.5 12.4-3 0-6.6-2.1-7.7-4.5-1-2.2-1.8-2.5-6-2.5-2.7 0-5.7.4-6.7 1-1.3.6-3.3.4-6.8-1-6.5-2.4-15.7-3.4-21.1-2.2-3.4.8-4.4.7-4.9-.4-.4-1-1.5-.8-5.1 1.1-2.6 1.3-5.9 2.7-7.4 3.1-2.5.5-2.8.3-2.8-1.9 0-1.6 1.1-3.5 3-5.1 2.7-2.2 2.9-2.8 2-4.6-2.3-4.2 1.3-10.6 7.7-13.9 2.9-1.5 7.6-1.4 9.1.1.8.8 4.3 1.3 9.5 1.4 6.5 0 9.1.5 12.5 2.2 5.1 2.7 8.2 7.3 8.2 12.4 0 2.1.5 3.8 1 3.8 1.9 0 2.2-2.8 1-8.5-.6-3.1-1-5.8-.8-6.1.2-.2 2 .9 3.9 2.5 3.5 2.9 7.9 4.8 7.9 3.4 0-.4-1.9-2.1-4.1-3.7-3.2-2.2-4-3.3-3.7-5.5.3-2.4.6-2.6 5.1-2.5 3.7 0 4.7-.3 4.7-1.6 0-3.3 2.7-3.1 5.2.5zm7.8 8.4c8.1 2.8 9.1 4.2 4.9 7.3-2.4 1.8-2.9 1.8-6 .5-4.1-1.7-6.5-4.3-7.4-8-.8-3.2-1-3.2 8.5.2zm-77.6 2.5c-1.7 3.5-3.6 4.4-6.2 2.8-1.3-.9 1.3-3.9 5.3-6 2.7-1.4 2.9-1 .9 3.2zm102.1-2.4c.3.5-.3 1-1.5 1s-1.8-.5-1.5-1c.3-.6 1-1 1.5-1s1.2.4 1.5 1zm193.5 5.9c0 4.5-1.1 7.1-3.1 7.1-2.2 0-3.9-2.9-3.9-6.8 0-3.7.3-4 4-3.4 2.5.3 3 .9 3 3.1zm26.8-1c-.2 1-1.5 1.7-3.6 1.9-2.6.3-3.2 0-3.2-1.6 0-2.6.5-2.9 4-2.4 2.2.3 3 .9 2.8 2.1zm-9.8.3c0 1.9-3.1 4.8-5.2 4.8-2 0-2.3-1.2-.8-4.1 1.2-2.1 6-2.7 6-.7zm-8 1.1c0 1.7-2 3.7-3.7 3.7-.7 0-1.3-1.1-1.3-2.5 0-2 .5-2.5 2.5-2.5 1.4 0 2.5.6 2.5 1.3zm-93 3.1c0 2.8-.4 3.5-2.5 4-3.7.9-7.7-.3-7.3-2.3.3-1.6 6.2-5.1 8.6-5.1.7 0 1.2 1.3 1.2 3.4zm-18.7.3c.6 3.4.1 4.3-2.4 4.3-2 0-2.3-1-1.3-4.8.9-3.1 3.1-2.8 3.7.5zm4.7.9c0 .8-.7 1.4-1.5 1.4-1 0-1.5-1-1.5-2.6 0-2.2.2-2.5 1.5-1.4.8.7 1.5 1.9 1.5 2.6zm263 5.7c0 3.4-.4 4.7-1.2 4.5-.8-.3-1.4-2.8-1.6-6.9-.2-5.9-.1-6.2 1.3-4.5.9 1.2 1.5 4.1 1.5 6.9zm-274.1-4.7c-1.5 1.8-2.2 1.3-1.3-1 .3-.9 1-1.3 1.6-1 .5.3.4 1.2-.3 2zm-101.3.8c1 .8 1.7 1.6 1.4 1.9-1.3 1.1-12.1 4.9-12.6 4.4-1.4-1.4 5.2-7.6 8.2-7.7.5 0 1.9.6 3 1.4zm111.8 4.5c1.6 1.7 2 1.8 4.4.5 2.4-1.3 9-1.1 11.3.2.4.2-.3 2.2-1.4 4.5-1.9 3.8-1.9 4.4-.6 6.8.8 1.4 2.5 2.7 3.7 2.9 2.6.4 2.7 1 .5 3.4-1 1.1-1.6 3.2-1.5 5.1.1 1.8-.6 9.3-1.7 16.8-2.4 17.1-1.6 23.5 3.8 28.3 2.5 2.3 2.9 7.6.6 7.6-.8 0-1.6-.9-1.6-2-.3-4.1-.5-4.5-2.4-4.2-1.1.2-2.2.5-2.3.7-.9.9 2.2 7.6 4 8.9 1.9 1.4 2 1.6.4 3.1-.9 1-2.8 3.9-4.1 6.5-2.1 4.2-5.7 8-7.5 8-.3 0-.3-2.3-.2-5 .3-3.3-.1-5.8-1.1-7.3-1.3-2-1.3-2.6-.1-4.2 1.6-2.2 1.8-9.8.4-17.6-.5-3-1.6-13.5-2.5-23.4-.9-9.9-2.2-21.3-3.1-25.4-1.5-7.8-1.2-9.9 1.2-6.7 1.3 1.9 1.4 1.8 1.4-1.3 0-2.6-.5-3.4-2.9-4.2-1.6-.6-3.2-1.7-3.5-2.5-.8-2.1 2.8-1.8 4.8.5zm480.2.2c.3.6 5.7 3.5 11.8 6.5 9.9 4.7 17.9 10.5 16.5 11.9-1.1 1-8-1.7-13.1-5.2-9.1-6.3-13.3-7.4-32.8-8.4-9.6-.4-17.7-.9-18-.9-1.7-.3 6.3-3.5 10-4.1 7.7-1.1 24.8-1 25.6.2zM542 252c0 3-12.9 21.6-19 27.5l-4.2 4 1.7-4c2.1-5.2 3-6.5 10.4-15.3 3.3-4 6.8-8.6 7.6-10.2 1.5-2.9 3.5-4 3.5-2zm-190.1 3.1c-1.1.6-1.1 1.3-.3 2.6.9 1.4 2.2 1.7 6 1.4l4.8-.3-2.9 3.8c-1.5 2.2-4 5.1-5.3 6.6-4.9 5.3-.7 2.7 5.8-3.5 6-5.9 7.1-6.5 14.2-8.2l7.7-1.8 7.5 5.7c4.1 3.2 9.1 6.2 11 6.7 3.6 1 3.6 1 2.1 3.8-2.4 4.8-6.5 9.1-10.6 11.2-3.5 1.7-3.8 2.2-3.2 5l.6 3-5.4-.7c-7.6-.9-11.3-3.2-11.7-7.2-.4-4.3-3.9-4.5-5.3-.2-.6 1.6-1.6 3-2.2 3-3.3 0-17.7-4.7-17.7-5.8 0-.6-.7-1.2-1.5-1.2s-3.3-1.6-5.5-3.6c-3.7-3.4-4.3-3.6-8.5-3-3.7.6-4.6.4-5.2-.9-.9-2.4 1.6-3.7 6-3.1 3.6.4 5.1-.9 2.2-2-3.5-1.4-.9-4.4 3.7-4.4 1.1 0 2.7-.9 3.6-2 2.1-2.6 9.4-6.9 10.6-6.2.4.2.2.8-.5 1.3zm49.8 5.5c1.9 2 3.2 3.8 2.9 4.1-.4.5-8.2-3.2-10.4-5-1.1-.8-1.1-1.2 0-1.8 2.4-1.5 4-.9 7.5 2.7zm9.6-1.1c1 1.4 1.6 2.5 1.3 2.5-1.5 0-5.6-2.5-6-3.6-.9-2.4 2.8-1.5 4.7 1.1zm136.5.7c1.5 4.7 2 8.4 3.7 26.3 1.6 17.3 3.3 26.5 4.8 26.5.5 0 .7-2.6.5-5.8-.2-4.5 0-5.7 1.2-5.7.9 0 1.8 1.5 2.4 4.2.8 3.8.6 4.4-2.3 8.1-2.5 3.1-3.3 5.2-3.9 10.3l-.7 6.3-4.4 1.6c-6 2.1-7.5 5.9-3.8 9.8 2.4 2.6 2.5 3 1.5 8.7-.5 3.3-.8 8.1-.6 10.6l.3 4.7-5.6-.5c-9.3-.9-16.4 4.1-21.5 15.2-1.3 2.7-2.4 5.7-2.4 6.5-.1 3.8-1.6 4.1-6.1 1.5-5.2-3-14.6-3.4-19.3-1-2.9 1.5-3.1 1.5-5.3-1.3-3.4-4.4-8.9-6.2-18.8-6.2-8.1 0-8.6-.1-9.5-2.4-2.8-7.5-12.9-14-20.4-13.4l-3.8.3-2.4-7.8c-1.5-4.5-3.7-9.2-5.5-11.2-3.1-3.5-8.9-6.1-11.4-5.1-1.1.4-1.5-.2-1.5-2.4 0-1.6-.5-5.2-1.1-7.9-1.1-5.3-4.5-9.1-8-9.1-2.4 0-2.4.2.6-6.7 2.9-6.4 6.7-11.8 9.4-13.2 1.6-.9 1.7-.7 1.3 1.4-.8 4.3.7 7.2 6.8 14.2 3.3 3.7 6 7 6 7.3 0 .3-2.1 1.7-4.6 3-4.9 2.7-8.3 7.5-6.5 9.3.7.7 2.7.5 6.3-.5 5.2-1.4 5.3-1.5 5.6-5.6.2-2.5.8-4.2 1.5-4.2s4.3 2.7 8 6c3.8 3.3 7.3 6 8 6 .7 0-1.6 2.6-5 5.8-5.5 5.1-6.3 6.3-6.3 9.5 0 3.5.2 3.7 3.2 3.7 2.9 0 6.8-2.3 6.8-4 0-.4-1-1.1-2.2-1.5l-2.3-.8 2.2-.4c2.1-.4 6.7-4.9 7.5-7.3.2-.6 5.6 1.4 12.8 4.9 11.8 5.6 23.7 10.1 26.7 10.1 1.7 0 1.7.4-.7 5-2.3 4.6-2.5 5.7-.7 4.1 1.5-1.2 2.7-.5 2.7 1.5 0 .7-.8 1-2.1.7-4.5-1.2-5.5 7.2-1.4 11.3 2.1 2.1 2.8 2.3 4.6 1.4 1.5-.9 2-1.9 1.6-3.6-.3-1.6 0-2.4.9-2.4 2 0 1.7-1.8-.6-4.8-1.5-1.8-1.8-2.8-1-3.6.8-.8 1.7-.4 3.1 1.4l2 2.5-.7-5.4-.6-5.4 7.8.7c22.2 1.9 28.2 1.9 33 .1 3.5-1.3 4.9-2.5 6-5.1 2.2-5.1 1.7-7.9-2.1-12.4-2.8-3.3-3.4-4.7-2.9-6.8 1.2-4.7 2.1-5.7 7.4-7.6 3.9-1.4 4.9-2.1 3.7-2.7-.9-.5-3.2-.3-5.7.6-6 2.1-7.6 1.9-10-1.5-2.6-3.6-6.4-13.2-7.4-18.3l-.7-3.7h5.2c3.4 0 5.9-.6 7-1.6 1.6-1.4 2-1.2 5.5 3 2.1 2.5 4.2 4.6 4.6 4.6 1.1 0-.9-3.8-3.9-7.4-1.6-1.9-2.3-3.8-2-5.3l.4-2.4-2.1 2c-4.4 4.2-12.7 5.3-19 2.7-6.1-2.5-6-8.7.3-14.6 4-3.7 16.4-19.7 19.3-24.9 2.3-4.2 5.3-4.1 6.6.1zm6.2 1.9c.6 2.3.8 4.8.5 5.8-1.1 2.8-3.5-1.7-3.5-6.7 0-5.2 1.5-4.8 3 .9zm-132 4.4c0 4-2.2 7-6 8.3-2.7 1-3 .9-3-1.1.1-3.2 2.5-9.5 4.6-11.8 1.7-1.9 1.9-1.9 3.1-.3.7 1 1.3 3.2 1.3 4.9zm-13 5.4c0 1.6-.7 3.6-1.5 4.5-1.2 1.1-1.3 2.1-.5 4.1 1.5 3.9 1.2 16.4-.5 22.2-.8 2.8-2.5 6.3-3.7 7.8l-2.2 2.9-.7-2.5c-1.5-5.2-.9-15.8 1.1-21.1 2.2-5.8 2-7.3-.5-3.5-3.7 5.8-4.6 16.6-2 25.3 1.1 3.9 1.2 5.6.3 8.7l-1.2 3.9-1.5-2.9c-.9-1.8-1.6-6.4-1.9-12.8-.2-5.5-.8-11.3-1.4-12.9-1-2.4-.9-3 .5-3.8 1.1-.6 1.7-2.2 1.7-4.3 0-2.8.8-4 4.4-7 2.5-2 5.1-5.3 6-7.5 1.9-4.7 3.6-5.2 3.6-1.1zM980.5 291c7.2 6.2 17.6 15.7 23.3 21.3 8.1 7.9 10.2 10.5 9.8 12.2-.4 1.5 1.9 5.3 8.2 14.1 4.8 6.6 13.4 19.5 19.2 28.7l10.5 16.7 5.1 1.5c5.4 1.6 9.1 4.6 7.9 6.4-.3.6-2.4 1.1-4.5 1.1h-3.9l2.4 8.9c1.3 4.9 4 14.5 6 21.3 4.5 15.5 7.2 29.6 8.1 41.9.7 10.3.2 11.8-3.4 9.3-2.7-1.9-3-8.7-.6-15.4l1.6-4.5-6-18.5c-3.4-10.2-7.3-23.3-8.6-29.3-2.9-12.2-4.3-15.3-9.9-22-2.2-2.6-5.2-7.9-6.8-11.8-4.3-10.6-13.1-23.3-23.4-33.9-5.1-5.2-10.4-11.8-11.8-14.5-5.1-9.9-20.6-27.1-38-41.8-3.5-2.9-5.7-5.6-5.7-6.8 0-2.5.7-2 20.5 15.1zm-393.2-13.1c3.7 1.1 9.3 3.2 12.5 4.7 5 2.4 5.4 2.8 3.1 3.1-1.4.2-6.5-.7-11.3-2.2-4.9-1.4-9.7-2.5-10.7-2.5-1.4 0-1.9-.7-1.9-2.5 0-3-.2-3 8.3-.6zm18.2.1c.3.5-.3 1-1.4 1-1.1 0-2.3-.5-2.6-1-.3-.6.3-1 1.4-1 1.1 0 2.3.4 2.6 1zm-48.5 3.6c1.5 4.3.6 8.6-1.5 7.8-1-.4-1.5-2-1.5-4.8 0-2.3-.5-4.7-1.2-5.4-.9-.9-.7-1.2.9-1.2s2.5 1 3.3 3.6zm-134.4 6.9c5.6 6.3 7.9 8.1 6.8 5-.4-.8-.2-1.5.4-1.5.5 0 1.2.9 1.5 1.9.6 2.3 12.5 10.8 24 17.1 23.3 12.9 43.5 18.3 75.7 20.3l4.5.3-3.7 1.7c-5.5 2.5-14.4 2.2-23-.8-3.9-1.4-12.1-3.4-18.2-4.6-16-2.9-37.8-12.2-52.3-22.1-2.3-1.5-6.3-3.7-8.8-4.8-2.5-1.1-4.5-2.4-4.5-2.9s-3.1-4.6-7-9.1c-3.8-4.5-7-8.6-7-9.1 0-2.1 6.2 2.4 11.6 8.6zm435.9-2.6c-.4 1.3.1 2 1.7 2.5l2.3.7-2.2 1.1c-2.7 1.3-7.3.3-7.3-1.7 0-1.4 3.7-4.5 5.3-4.5.5 0 .6.8.2 1.9zm252.3 2.4c4.7 1.9 5.2 2.4 4.7 4.4-.3 1.5.4 4.1 2 7 1.4 2.7 2.5 5.8 2.5 7.1v2.3l-2.9-2.3c-3-2.3-18.1-19.2-18.1-20.1 0-.8 3.3-1.4 5-.9.8.2 3.9 1.4 6.8 2.5zm-516.2.8c3.7 1.1 3.7.1.4 21.4-2.7 18-3.2 25.4-2 31.5 1.7 8.8 4 41.5 4.7 66.7.5 20.7.4 23.3-1 23.3-.8 0-2.7-1.5-4.2-3.3-1.4-1.7-3.3-4-4.1-5-2.8-3.4-2.6-1 .5 8.1 3.3 9.6 3.8 15.3 1.7 19.1-1.3 2.3-1.3 2.2-2.5-2.4-.6-2.6-1.9-5.7-2.7-7-2.1-3.2-10.4-6-10.4-3.6 0 1 .9 2 5.9 6.4 3.4 2.9 4.1 6.4 1.5 7.4-.9.3-3.6-.4-6-1.6-2.5-1.1-5.4-2.1-6.6-2.1-2 0-2.1-.3-1.5-9.3.8-11.9 4.5-26.2 10.4-39.5 7.9-18.1 7.2-25.3-3.2-32.7-6.5-4.7-9-5.3-14.4-3.4-1.7.6-4.3.8-5.7.5-2.3-.6-2.6-1.1-2-3.8.9-4.4 2.1-5.5 8-7.4 4.8-1.5 5.5-2.2 11-10.4 6.3-9.7 10.5-18.9 10.6-23.3 0-1.5-1.1-4.4-2.5-6.5-3.3-5-4.8-12.4-4-19.5l.7-5.9 7.2.7c3.9.3 8.5 1.1 10.2 1.6zm28 0c12.7 3.9 61.5 24 59.7 24.6-.6.2-6.1-1.5-12.4-3.8-6.3-2.2-19-6.8-28.4-10-9.3-3.3-19.1-7.4-21.7-9.1-7.1-4.5-6.8-4.7 2.8-1.7zm325.4-1.2c0 .5-.6 2.3-1.4 4.1l-1.3 3.2-1.7-2.3c-2.2-3.3-2.1-5.2.4-4.4 1.1.4 2 .2 2-.4 0-.6.5-1.1 1-1.1.6 0 1 .4 1 .9zm-587.8 3.8c.3 2.1.4 4 .2 4.1-.7.9-3.5-5-3-6.3 1-2.7 2.4-1.6 2.8 2.2zm-5.9 0c.4.2.7 1.1.7 1.9 0 1.9 2.2 5.4 8.7 13.5 6.8 8.5 8.4 12.3 7.7 18.6-.5 3.4 0 7.1 1.5 12.4 1.1 4.1 2.1 9.4 2.1 11.6 0 3.7-.2 4.1-3.1 4.7-5.2 1-5.6.8-6.9-3.7-.6-2.4-2.3-5.7-3.7-7.3l-2.4-2.9.5 3.5.6 3.5-2.6-2.9c-2.6-3-2.6-3-.5-3.8 4.1-1.5 2.2-9-4.9-18.8-7.7-10.6-7.6-10.3-3.5-15.7 4-5.2 4.3-7.6 1.5-11.8-1.1-1.7-2-3.3-2-3.8 0-.7 4.5 0 6.3 1zm-7.5 4.1c5.9 6.4-3.8 17.4-12.4 14.1-1.5-.5-2.9-.8-3.1-.6-1 1 1.3 3.9 4.1 5.4 4.4 2.2 7.6 5.3 7.6 7.5 0 2.7-7 30.9-8.3 33.3-1 1.9-1 1.9-1.7 0-.4-1.1-1.5-7.7-2.4-14.7-1.8-14.3-3.2-18.9-8.7-30-2.2-4.3-3.9-8-3.9-8.3 0-.3 2.5-.5 5.5-.5 3.4 0 6.8-.7 8.8-1.7l3.2-1.8-8.5-.5c-4.7-.3-9.6-1.2-11-2-2.3-1.4-1.8-1.5 8-2.2 5.8-.4 11.4-.9 12.5-1.1 3.9-.7 8 .5 10.3 3.1zm22.7-2.8c.3.5 2.5.9 4.8.8 2.3-.1 6.6.2 9.5.6l5.2.8v6.3c0 8.6 2.4 20.5 5.5 27.2 1.4 3.1 2.5 5.9 2.5 6.4 0 2.2-5.3.6-11.1-3.4-5.4-3.5-6.5-4.8-7.1-8-.9-4.2-4.8-12.3-8.8-18.2-3.9-5.7-7-12.1-6.3-12.9 1-1 5.1-.7 5.8.4zm238.8.7c3.3.6 3.4 2.4.7 11.1-1.2 3.7-2 9.2-2 13.1 0 9.1-1.7 18-4.1 21.3-2.1 3-2.6 4.9-.7 3 2.4-2.4 3.8-1.3 3.9 3 .1 2.4.5 5.6.9 7.3 1.2 5.1 2.4.2 1.7-7.5l-.6-6.8 3.1-.6c5-1 6.7-.7 8.8 1.4l2 2v-2.9c0-1.7.4-3.2.8-3.5.9-.5 12.9 2.8 14.8 4.2 1.6 1.1 3.5 5 2.7 5.5-.5.3-2.9.3-5.5 0-4.1-.5-4.7-.9-5-3.1-.4-3.4-2.6-3.9-3.4-.8-.3 1.4-1.2 2.6-1.9 2.6-.8 0-2.7 1.1-4.3 2.5-4.1 3.5-5 3.2-5.4-1.8-.3-4-.4-4.1-1.6-1.9-1 1.7-1 3.2-.3 5.9.8 2.8.7 4.1-.3 5.2-1.9 2.2-4.8 8.2-4.3 8.8.3.2 1.9-1.3 3.7-3.5 3.6-4.5 8-6.2 16.1-6.2 8.7 0 12.3 1.5 15.5 6.3 1.5 2.3 3 5.5 3.4 7.2.5 2.7 1.5 3.4 8.5 6.2 4.4 1.7 11.6 3.7 16 4.4 4.6.7 10.7 2.5 14.3 4.2 5.6 2.7 7.7 3.1 17.1 3.5 5.9.2 14.7-.1 19.5-.7 4.9-.7 9-1 9.3-.7.9.8-12 27.6-15.3 32-5.2 6.9-9.1 14.6-12.4 24.4-1.6 5.2-3 9.7-3 10 0 .3 2.1-1.4 4.8-4 7.6-7.4 10.4-8.3 14.7-4.5l2.7 2.3-10.6 9.7c-7.9 7.4-11.1 11.1-12.9 15.1-1.9 4.1-3.2 5.6-5.6 6.4-3.8 1.3-5-.2-3.1-3.8.6-1.2 1-2.4.7-2.6-.2-.2-2.8.7-5.8 2.1-3 1.4-6.3 2.5-7.3 2.5-1.8 0-1.9-.1-.1-2 2.9-3.2 1.2-3.3-5.6 0-3.5 1.6-7.5 3-8.8 3-2.3 0-2.3-.1-.8-1.8 1-1 4.9-3.6 8.7-5.7 8.5-4.7 9.6-7.2 1.8-4-2.6 1-2.3-1.3.5-3.5 3.2-2.6 1.4-3.6-2.1-1.1-3.9 2.7-5.6 2.8-4.2.1 1.6-2.9.3-2.5-7.4 2.5-3.8 2.5-7.3 4.5-7.8 4.5-1.9 0 2.4-6 7.4-10.4 4.5-3.9 5-4.6 3-4.6-1.2 0-3.9 1-6 2.3-5.4 3.4-7.2 3.9-7.2 2.1 0-3 3.1-7.3 9.1-12.8 8.7-7.8 4.8-7.4-5.3.6-1.8 1.4-4.2 2.8-5.3 3-1.8.3-2-.2-1.7-3.7.2-2.3 1.6-5.9 3.2-8.5 1.6-2.4 2.7-4.6 2.5-4.9-1.2-1.2-5.5 3.5-9 9.9l-4 7.3-.3-4c-.3-3.5 1-10.7 3.4-19.1.5-1.6.2-2.2-1-2.2-1.4 0-1.6-1.4-1.6-8.9 0-7.6-.4-9.7-2.6-14-3.4-6.9-5.4-16.5-6-29-.5-11.3-.9-12.8-2.9-11.1-.9.7-1.3 4.3-1.4 11.6-.1 9.8.2 11.4 4 22.7l4.1 12.1-1 26.6c-.9 24-1.2 27.3-3.6 35.3-3.1 10.3-3.1 10.5-.9 12.9 2 2.2 7.8 2.3 34.3.7 10.2-.7 20.6-.9 23.2-.5l4.8.7-4 7.9c-5.4 10.7-14.9 25.2-16 24.5-.5-.3-.7-2.5-.4-4.9.9-6.4-1.5-10.2-8.2-13.3-5-2.3-6.6-2.5-15.7-2.2-6.8.2-11.5-.1-14.1-1-9.5-3.3-25.2.8-32.7 8.5-4 4.1-3 4.2 4.7.8 8.3-3.7 14.7-3.1 23.9 2l6.8 3.9-2.7 1.4c-2.2 1.2-4 1.2-9.5.4-11.2-1.8-18.7 1.4-28.7 12.2-6.5 7-11.5 14.8-14.4 22.6-1.7 4.4-1.8 5.1-.5 5.1.9 0 2.4-1.9 3.4-4.4 2.2-4.9 11.5-14.6 17.8-18.3 8.8-5.1 22.1-4.1 37.8 2.8 11.5 5.1 16.3 5.8 23.3 3 6.6-2.6 10.2-2.7 12.9-.1 1.9 1.7 2 2.4 1.1 5.2-.5 1.8-1.3 4.6-1.6 6.3-.5 2.9-.5 2.9 1.9 1.4 2.7-1.8 8.9-13 8.9-16 0-1.2-1.3-2.5-3.5-3.6-1.9-.9-3.5-2.4-3.5-3.3 0-.9 5.1-4.8 12.3-9.5 8.6-5.6 15.1-10.8 22-17.7 9.3-9.4 9.9-9.8 14.1-9.8h4.3l2.8 13.2c5.2 25.2 9.3 35.8 14.9 38.8 3.6 1.9 4.1.9 1.8-3.7-4.9-9.6-6.7-17.4-6.7-28.8 0-6.3.5-12.5 1.3-14.5l1.2-3.6 7.3.4c11.3.6 25.1 2.7 44.7 6.8 20.9 4.4 19.6 2.4 11.8 17.9-8 15.9-8.8 18.9-10.4 39.5-1.9 24.6-2.9 28.1-3.6 12.4-.6-11.4-1.6-15.9-4.2-17.6-1.7-1.2-6.1-.9-8 .5-1.6 1.2-1.4 1.4 1.9 3 3.5 1.7 3.6 1.9 3.3 6.5-.4 6.2-2.4 6.5-8 1.4-6-5.5-7.8-6.2-15.1-6.2-7.8 0-15.3 2.4-17.4 5.6-1.9 2.9-1.2 4 1.5 2.5 2.6-1.4 10.2-1.4 10.2-.1 0 1.5-3.6 3-7.1 3-4.8 0-16.9 6.4-23.6 12.5-3.2 2.9-5.5 5.6-5.2 5.9.3.3 5.5-1.3 11.5-3.5 11.9-4.5 25.1-6.7 22.6-3.7-.7.9-3.1 1.9-5.4 2.2-5.6.9-15.2 6.1-18.9 10.4-1.7 1.9-2.8 3.6-2.6 3.8.2.2 2.4-.4 4.8-1.5 7.4-3.3 20.4-5.4 28.8-4.8 11.1.9 14.9 2.4 20.8 8.4 9.1 9.3 13.5 9.3 21.1.5 6.3-7.4 15.7-21.3 22.1-33l5.1-9.2v-14.5c0-18.2.3-18.4 10.3-6.1 4 4.8 10.6 8.8 18.7 11.2 2.6.8 6.3 2.7 8.3 4.2 8 6.4 29.7 8 43 3.3l5.8-2-.6 3.2c-1.7 7.7-8 20.5-16.6 33.3-3.8 5.7-5.9 7.7-11.4 11l-6.8 3.9-17.6.1c-21.9.1-31.9 2.2-40.5 8.6-1.6 1.3-1.2 1.4 4.1 1 3.8-.3 6.9.1 8.4.9l2.4 1.2-3 1.3c-5.1 2.2-14.7 1.6-27.2-1.6-11.5-3-26.1-4.2-24.8-2 .3.5 1.4 1 2.3 1 .9 0 3.7 1 6.2 2.1 3.5 1.6 4.1 2.2 3 2.9-4.8 3.1-16.5-.7-34.5-11.2-17.8-10.2-24.2-12.5-25.2-8.8-.9 3.2-8.8 2.7-20.8-1.5-18.4-6.5-29.5-6.6-42.1-.5-5.6 2.7-16 10.7-15.1 11.6.2.3 3.6-.9 7.5-2.6 7.9-3.4 11.7-3.7 15-1.4 3.1 2.1 2.8 2.9-1.7 4.2-2.1.7-5.9 3-8.4 5.2-7.9 7-12.9 18.2-15.8 35.3-.8 4.6-1.7 7.6-2.4 7.3-12.5-5.4-25.1-12-25.7-13.3-.3-1-.7-3.7-.7-6.1-.1-2.4-.6-5.2-1.1-6.3-1.2-2.1-4.5-2.7-3.7-.5.3.7-.1 4.9-.9 9.2-.7 4.3-1.4 9.2-1.4 10.8 0 2.5-.2 2.7-1.7 1.5-.9-.8-2.9-3.2-4.5-5.4s-4.2-4.7-5.7-5.5c-1.5-.8-7.5-6.7-13.4-13s-11.3-12.1-12-12.8c-.7-.7-3.9-3.6-7.1-6.5-6.9-6-12.7-14.5-14.6-21.1-2.2-8-4.1-4.7-2.8 4.9 1 7.5.9 15.3-.2 16-1.5 1-5.5-2.2-7.7-6.2-1.2-2.1-3.5-7.4-5.1-11.8-3.1-8.5-7.5-16.5-9.2-16.5-.6 0-1-1.1-1-2.4 0-2.6-2.4-5.3-3.4-3.7-.4.5-.4 2.8 0 5 .5 2.8.3 4.1-.5 4.1-1.2 0-3.2-3-14.3-21.7-5.7-9.8-7.8-11.7-7.8-7.2 0 1.1-.7 3.5-1.4 5.4-2.9 6.8-6.8 3.6-10.1-8-1.2-4.5-3.6-8.6-9.5-16.5-4.4-5.7-9-12.6-10.2-15.2-1.3-2.6-2.7-4.8-3.1-4.8-.5 0-.6 3.6-.2 8 .7 8.2.2 9.5-2.8 6.2-2.6-2.9-10.7-16.5-10.2-17.2.2-.4 6.6-1.2 14.2-1.9 7.6-.6 15.6-1.4 17.7-1.6 2.9-.3 5.1.3 8 2 2.3 1.3 6.8 3.1 10.1 4 14.2 3.9 17 5.8 18.4 12.6 1.4 6.5 3.4 10.1 8.4 15.6 3.6 3.9 19.6 16.3 21.1 16.3 1.2 0 4.7-14.4 6.6-27.6 2.1-14.6 3.6-20.3 6.6-24.9 1.6-2.5 2.2-2.6 8-2.3 7.4.4 7.3.5 9.9-12.3 1.9-9.2 3.2-12.4 6.4-15.3 1.8-1.7 2.1-3.1 2.1-10.5 0-4.7.7-13.1 1.5-18.6 2.1-14.2 1.9-28.7-.4-39.3-1.1-4.8-2.9-19.1-4-31.7-2.1-24-1.9-30.6 1.9-50.4.5-3 1-8.5 1-12.4 0-6.7.1-6.9 2.3-6.2 1.2.4 3.4.9 5 1.2zm12.2 3.5c2.5.7 4.5 1.5 4.5 1.9 0 .4-.9 2.9-2.1 5.5-2.1 4.9-1.9 9.9.4 9.1.6-.2 1.5-2.3 1.9-4.8 1.3-7.5 1.8-8.9 3.4-8.9 1.3 0 1.5 1.1 1.2 6.5l-.4 6.5-6.2 3.1c-6.3 3.1-8 5-3.9 4.2 2.2-.4 2.3-.2 2 2.9-.8 6.3-1.3 7.8-3.1 7.8-.9 0-2.8.9-4.2 2-1.4 1.1-3.3 2-4.2 2-2.4 0-2.3-4 .2-20 1.1-6.9 2-14 2-15.8 0-3.7 1.1-4 8.5-2zm28 9c22.3 7.3 22.2 7.3 23 12.4.8 5.7-.1 10.1-2.5 11.4-1.6.8-1.9.5-2.5-1.9-.9-4.2-6.8-10.5-12.2-13.1-3.5-1.7-7.3-2.4-14.1-2.8l-9.3-.5.6-2.5c.3-1.3.9-3.8 1.2-5.4.4-2.2 1-2.7 2.2-2.2.9.4 7 2.4 13.6 4.6zm304.3 5.6c1.8 3.7 3.3 7.2 3.2 7.8 0 .6-1.2 3.2-2.6 5.8-3.7 6.6-9.4 9.2-6.6 3 3.3-7 3.4-12.1.7-21.2-.5-1.5-.3-2.2.6-2.1.8 0 2.9 3 4.7 6.7zm-673 5.2c2.3.9 3.1 1.7 2.7 2.7-.3 1-.1 1.3.9 1 5.5-2.1 9.8-2.7 11.2-1.6 2.4 2 1.6 2.6-5.5 4.8-6.9 2.1-13.1 6.6-13.1 9.6 0 .8 2.7 5.6 6.1 10.7 3.3 5.1 7.7 12.9 9.8 17.3 4 8.3 9.4 22.5 8.6 22.5-.7 0-4.8-8.6-8.5-17.8-4.1-10.4-9.2-18.4-16.4-25.5-5.3-5.4-5.7-5.6-8.6-4.5-1.7.5-4.5.7-6.2.4-2.9-.6-3.7-.1-8.5 5-7.4 7.8-14.9 19.5-22.9 35.6-3.8 7.6-7.2 13.8-7.6 13.8-1.7 0-.7-5.9 1.5-9.1 1.2-1.9 2.9-5.4 3.6-7.9.7-2.5 2.5-6.8 4-9.6 4.7-8.8 18.8-27.8 22.1-29.7 4.5-2.7 3.9-3.6-5-7.7-1.4-.6-4.3-2.1-6.5-3.3-2.9-1.5-5.8-2.1-10.5-2.1-5.5-.1-7.5.4-13 3.4-7.4 4-17 13.3-21.5 20.9-2.9 4.8-3.3 5.1-9.3 6.5-4.7 1.1-7.1 1.2-9.3.4-4.1-1.4-3.4-4.1 1.2-4.8 3-.5 11.5-5.7 10.7-6.6-.2-.1-2.8.6-5.9 1.6-7.3 2.5-14.8 3.7-13.4 2.1.6-.6 3.5-1.5 6.5-2.1 6.3-1.2 6.7-1.5 5-3.5-4.6-5.6-22.5-9.5-35-7.7-7.3 1.1-8.7.8-4.4-.8 9.3-3.6 22.5-2.9 32 1.6 4.9 2.3 6.3 2.5 12 1.9 6-.6 6.4-.5 6.4 1.4 0 3.1 1.5 2.6 5.2-2 1.8-2.2 4.2-5.2 5.3-6.5 2.9-3.6 22.6-9.5 32.1-9.7 6.4-.2 7.6.1 12.3 3.1 4.5 2.7 5.9 3.1 9 2.6 3.3-.7 3.5-.6 2.2.9-1.1 1.4-1.1 2.1.3 4.2 1 1.4 2.9 3.1 4.3 3.8 2.2 1 2.8.8 4.3-1.1 1-1.2 2.3-2.2 3-2.2 2.5 0 .4-4.5-2.8-6.2-1.8-.9-2.9-1.9-2.3-2.2.6-.4 3.3.5 6.1 1.9 3.6 1.8 5.5 2.3 6.7 1.6 1.4-.8 1.2-1.2-1.7-3-6.6-4-12.3-3.9-22.2.4-1.8.7-6.8-3.3-6.8-5.6 0-1.5 27.2-.6 31.8 1.1zm174.1 6.4c20.9 8.7 33.2 12.8 46.3 15.4l9.3 2-.3 3.3c-.4 4.7-4.8 13.9-6.6 13.9-2.7 0-24.9-8.2-34.1-12.6-12.3-5.8-20.1-11.1-27.9-18.7-5.1-5-6.4-6.8-5.9-8.5.3-1.2.7-2.2.9-2.2.2 0 8.4 3.3 18.3 7.4zm-240.5-3.3c-.3.5-1.6.9-3 .9-2.8 0-3.3-2.6-.6-3.2 2-.5 4.4 1 3.6 2.3zm431 1.3c2.5 1.5 4.6 3.1 4.6 3.6 0 .6-2.6 1-5.7 1-3.2 0-7.5.3-9.5.6-3.7.6-3.8.6-3.8-2.5 0-1.9-.4-3-1-2.6-.5.3-1 2.2-1 4.1 0 3-.3 3.4-2.5 3.4-2 0-2.5-.5-2.5-2.5 0-1.5.7-4 1.6-5.7 1.6-3 1.6-3.1 8.4-2.6 5 .4 8.1 1.2 11.4 3.2zm46.1 2.1c11.2 4.8 19.2 9 26.2 13.7 4.1 2.8 4.2 2.8 4.8.7.9-2.8 3.3-2.1 13.4 3.8 9 5.4 9.1 5.5 6.2 14.8-3.2 10.4-8.1 11.1-17.6 2.5-3-2.7-6.7-5.3-8.2-5.7-5.8-1.6-13.8-.6-26.3 3.4-14.7 4.8-20 5.8-20 3.8 0-.7 1.6-3.5 3.5-6.1 10.8-14.9 11.7-17.4 9.2-26.3-.9-3.1-1.9-6.4-2.2-7.4-.4-.9-.5-1.7-.2-1.7.4 0 5.4 2 11.2 4.5zm-129.8-2c.3.9.3 1.9-.1 2.2-.7.7-3.6-1.6-3.6-2.8 0-1.5 3-1 3.7.6zM376 323c0 .5-.4 1-1 1-.5 0-1-.5-1-1 0-.6.5-1 1-1 .6 0 1 .4 1 1zm332.7 3.6c8.4 5.7 9.6 6.9 6.3 5.9-1.4-.4-5.9-2.9-10-5.6-5.3-3.4-6.8-4.9-5.3-4.9 1.2 0 5.2 2.1 9 4.6zm-587.9-1.4c1.4 1.4 1.6 5.8.2 5.8-1.2 0-3-3.3-3-5.4 0-1.9 1.1-2.1 2.8-.4zm113.9 2.9c5.4 2.3 10.1 4.5 10.5 4.8 1.5 1.4-2.3 8.5-8 14.9-4.3 4.8-6.8 8.8-8.6 13.5-1.3 3.6-5.3 12.5-8.7 19.6-6 12.6-6.3 13.1-9.3 13.1-3.7 0-20.8 4.1-29 6.9l-5.9 2.1.7-3.8c.4-2 .9-8.7 1.2-14.7.3-6.1 1.2-12.4 2-14.2.8-1.7 1.4-4.3 1.4-5.7 0-2 .9-3 3.9-4.5 7.3-3.8 20.1-14.2 22-17.9 3.2-6.2 7.4-11 12.5-14.7 2.7-1.9 5.1-3.5 5.2-3.5.2 0 4.7 1.9 10.1 4.1zm88.3-1.6c.5 1.4 1.3 3.7 1.6 5.1.7 2.6.6 2.6-2.2 1-1.6-.8-4.2-2.7-5.8-4.2-3.3-2.9-2.4-4.4 2.7-4.4 2 0 3 .7 3.7 2.5zm83.8 4.1c1.3 3.8 1.3 14.7-.1 16-.3.4-1.7 0-3-.9-1.8-1.2-2.3-2.2-2-4.1.3-1.4 0-5.5-.6-9.1-.7-3.6-.9-7-.5-7.6 1.1-1.8 4.8 1.6 6.2 5.7zm119.9-4.4c-.3.8-.6.5-.6-.6-.1-1.1.2-1.7.5-1.3.3.3.4 1.2.1 1.9zm-421.7-.4c0 .5-1.1 1.4-2.4 2-1.3.6-4 2.5-6 4.2-2.3 2.1-3.6 2.7-3.6 1.8 0-2 3.8-5.4 8-7.2 4.2-1.8 4-1.8 4-.8zm208.9 4.8l6 5.7v11.1c0 6.1.5 15.6 1 21.1.6 5.5 1.1 10.5 1.1 11.2 0 1.2-7.8 4.5-13.6 5.7-3 .7-3.1.6-5.9-6.6-3.7-9.8-13.3-28.9-18.5-37.2l-4.3-6.7 2.8-2.9c3.8-4 11.9-6.6 21.2-6.9 3.8-.1 4.8.4 10.2 5.5zm245.5-5c.9.3 1.6 1.2 1.6 2 0 1.6-4.2.4-4.8-1.4-.4-1.3.8-1.5 3.2-.6zm-292.7 1.9c.3.9.3 1.9-.1 2.2-.8.9-3.7-1.8-3-2.8.8-1.4 2.4-1.1 3.1.6zm85.3.6c0 2.4-2.3 2.1-2.8-.4-.2-1 .3-1.7 1.2-1.7 1 0 1.6.9 1.6 2.1zm24.2.6c2.3 2.1 2.6 5.2.2 3.3-1.8-1.6-3.8-5-2.8-5 .4 0 1.6.7 2.6 1.7zm-177.6.8c-2.2 1.7-3.6 1.9-3.6.7 0-1.4 1.2-2.2 3.4-2.2 2.1.1 2.1.1.2 1.5zm-80.8 4.3c.6 4.3-5.9 9.2-12.1 9.2-3.6 0-6.1-2-6.9-5.6-.5-1.9.2-2.4 5.6-3.9 3.3-1 6.6-1.9 7.1-2.1 3-.9 6 .2 6.3 2.4zm237 0c.4 2.4-.7 2.9-2.6 1-1.8-1.8-1.5-4 .6-3.6.9.2 1.8 1.3 2 2.6zM424 332c0 1.2-3.8 3.2-5.2 2.8-1.4-.5 1.9-3.8 3.8-3.8.8 0 1.4.4 1.4 1zm4-.1c0 1.2-2 2.5-2.7 1.8-.7-.7.6-2.7 1.8-2.7.5 0 .9.4.9.9zm132.7 1.3c1.6 2 2.4 6.6 1.3 7.3-.5.3-1.5-.3-2.2-1.4-1.2-2-1.3-2-2.5.2-1.1 2.1-1.2 2.1-1.9.3-.5-1.2-.2-2.3.7-3 .8-.6 1.3-1.9 1.1-2.9-.4-2 2.1-2.3 3.5-.5zm577.7 2.7c1 1.7 1.6 3.5 1.2 3.8-.9 1-3.4-1.6-4.5-4.8-1.4-4.1.7-3.4 3.3 1zm-1006.5.7c-2.6 2.9-12.8 9.8-13.4 9.2-.3-.2.4-1.8 1.5-3.6 1.7-2.8 12.8-9.7 13.9-8.6.3.2-.6 1.6-2 3zm419.1-2.2c0 .7.3 2.8.6 4.6.7 3 .6 3.1-2.2 2.8-2.5-.3-2.9-.8-3.2-3.7-.3-3.3.9-5.1 3.6-5.1.6 0 1.2.6 1.2 1.4zm-163.3 3.7c7.4 3.3 8.2 5.1 6.4 14.4-1.5 8.3-1.4 14.1.4 19 1.7 4.7 2 16.1.4 17-.5.4-2.8-.5-4.9-1.9-2.1-1.4-5.1-2.8-6.7-3.2-2.5-.6-2.6-.5-1.5.8.7.9 2.7 2.2 4.5 2.9 5.4 2.1 5.8 2.7 4.2 5.8-.7 1.5-2.6 3.3-4.1 4-2.6 1.2-3 1-5.4-1.8-1.9-2.4-3.3-3.1-6-3.1-5 0-10.8-1.8-13.1-4.1-2.5-2.5-3.1-2.4-2.7.3.3 2.3 3.4 4.3 8.1 5.3 3.3.7 3.4 1.8.3 3.5-3.3 1.7-8.8.6-12-2.7-3.1-3.1-3.3-5.5-.5-9.9 2.1-3.5 1.4-4.3-2.1-2.4-1 .5-2.1 2.2-2.4 3.7-2.5 10.1-2.7 10.5-4.2 9.2-.9-.7-2.6-3.3-3.9-5.9-6.2-12.2-7.3-26.3-2.5-33l2.5-3.5.3 3.8c.4 4.7 2.2 3.8 2.2-1.1 0-2 .4-4.3.9-5.1 1.2-1.8 4.1-.7 4.2 1.6 0 1.4.2 1.3.9-.5.6-1.2 1.8-2.2 3-2.2 2.8 0 8.3 11.5 6.8 14.3-1.7 3.3-1.4 10.8.6 12.3 1.1.8 1.5 1.8 1 2.6-.6 1-.4 1 .9-.1 1.2-1 1.4-1.8.7-3.1-1.8-3.3-1.1-11 1.2-15.2 2.2-3.9 2.4-4 6.6-3.5 3.9.4 9.2 3.7 9.2 5.8 0 .4-1.7.5-3.9.2-5.1-.7-9.9 3.3-10.8 9.2-.7 4.8.6 4 2.7-1.8 2.8-7.6 9.8-7.2 11.8.7.7 2.7 1.3 3.1 4.5 3.4 4.3.4 4.4.1 1.8-3.6-1.1-1.5-2.2-4.4-2.6-6.6-.3-2.1-1.6-4.8-2.8-6-2.1-2.1-2.6-3.8-5.4-20.4-.6-3.2-.5-3.3 2.3-2.6 1.6.4 5.7 1.9 9.1 3.5zm-217.9.9c4.8 3.1.8 4.7-6.1 2.4-4.1-1.4-7.1-1.5-16.6-.9-6.4.4-11.3.4-10.9 0 3.3-3.4 28.9-4.5 33.6-1.5zm-7.9 4.5c1 1.1-.9 1.5-11.4 2.5-6.1.5-12.5 1.4-14.4 2-1.9.5-3.6.8-3.8.6-.8-.8 5.6-4.1 10.2-5.3 4.6-1.1 18.1-1 19.4.2zm98.7 1c4.2 3.2 5.7 3.1 8.4-.3l2.2-2.7 4.4 4.9c7.9 8.6 14.2 21.3 18 36.3 1 4 1.5 7.6 1 8-1 1-23.1 1-42.1 0-9.1-.5-16.9-.5-19.7.1-2.7.5-4.8.7-4.8.5 0-.3 2.9-6.3 6.4-13.3 5.3-10.6 10.2-18.9 20-34.3 1.4-2.3 2.3-2.2 6.2.8zm269.4.6c0 2.3 1 4 3.7 6.5 5.1 4.7 3.6 5.9-7 5.9h-8.2l.3-3c.5-4.6 3.2-9.4 6.1-11 4-2.2 5.1-1.8 5.1 1.6zm-82.6-.6c-.4.8-1 1.5-1.5 1.5s-.9-.7-.9-1.5.7-1.5 1.5-1.5c.9 0 1.2.6.9 1.5zm-379.4.2c0 .8-9.7 5.3-11.2 5.3-.4 0-.3-1.1.4-2.4 1-2.4 2.2-2.8 9.1-3.4.9-.1 1.7.1 1.7.5zm472.2 1c2.5 2.3 2.3 4.3-.6 4.3-2.8 0-5.1-2.4-4.2-4.5.7-2 2.5-1.9 4.8.2zm12.3.3c.7 2.1-1 6-2.6 6s-2.1-2.5-1-5.3c1.2-3.2 2.7-3.5 3.6-.7zm218.5.2c0 1.8-8.8 18.7-12.1 23.3-1.7 2.3-4.4 5.3-6.1 6.5-2.8 2.1-3.1 2.1-2.4.4.4-1 4.8-8.8 9.8-17.1 7.9-13.5 10.8-16.9 10.8-13.1zm-688.1 2.4l3.4 2.3-2.6.6c-3.1.8-13.4-4.4-11.4-5.7 1.8-1.2 6.7.1 10.6 2.8zm37.5 7.9c1.7 1.2 4 1.6 7.1 1.3 2.5-.2 4.5-.1 4.5.2 0 .3-.3 1.5-.6 2.6-.5 2-.9 2.1-4.2 1.2-6.1-1.6-11.8-5.5-13.6-9.2-2.7-5.8-1.9-7.4 1.3-2.4 1.7 2.6 4.1 5.4 5.5 6.3zm-7.3.7c2.6 2.6 5.9 5 7.3 5.4 3.6.9 3.3 2.4-.4 2.4-7.6 0-15-5.9-15-11.8 0-4 .1-3.9 8.1 4zm29.3-5.9c-.5 1.5-6.7 4.7-8.9 4.7-2 0-1.9-1.4.3-3.2 3.2-2.9 9.6-3.9 8.6-1.5zm266.1-.3c.3.5 1.4 1 2.4 1 1.9 0 4.1 3.8 4.1 7 0 1.2-.7 2-1.7 2s-2.7.3-3.9.6c-1.8.5-2.2 0-2.7-3.3-.3-2.1-.9-4.8-1.3-6.1-.5-1.6-.2-2.2.9-2.2.9 0 1.9.4 2.2 1zm254.8 1c-.3 1.1-.9 2-1.4 2-.4 0-1.3-.9-1.9-2-.9-1.7-.8-2 1.4-2 1.9 0 2.3.4 1.9 2zm487.2 2.6c4.4 5.9 4.4 6.9.1 4.3-3.1-1.8-4.5-4.3-4.6-7.7 0-2 .7-1.4 4.5 3.4zm-747 .6c1.5 2.6 2 5.2 2 12.5 0 11.4-1.5 13.8-4.4 7.2-1.2-2.4-2.1-6.5-2.1-9 0-5.9 1.1-13.9 1.9-13.9.4 0 1.5 1.5 2.6 3.2zM94 359.8c0 .4-.5 1.3-1.1 1.9-1.6 1.6-.1 5.7 3.8 10.3 3.7 4.3 3.8 5.6.3 4.5-2.6-.8-4.9-4.3-5.2-7.8-.1-1.5-.6-2.7-1-2.7-1.7 0-3.8 4.8-3.8 8.8 0 3.3.6 4.8 2.6 6.7 1.4 1.3 3.4 2.7 4.4 3 1 .3 2.1 1.2 2.4 2 .4 1.2-.3 1.5-3 1.5-4.9 0-10.4-5.3-10.5-10.2-.2-5.5.2-8.2 1.8-11.5 1.8-4 9.3-9.2 9.3-6.5zm7 2.9c2.5 7.8 3.2 8.3 11.8 8.3l7.7.1-2.8 2.4c-7.8 6.8-23.3-2.8-20.2-12.5 1-3 2.2-2.4 3.5 1.7zm683.9 5.5c-3.2 8.8-6.5 14.8-8 14.8-1.2 0-1.1-1.7.2-4.2 1.7-3.2.2-3.3-2.6-.2-2.6 2.9-2.6 2.9-1.9.4.3-1.4 1.6-4.1 2.7-6 2.4-4 10.6-13 11.8-13 .4 0-.6 3.7-2.2 8.2zM413.2 364c1.7 2.6 2.8 2.5 2.8-.1 0-1.7.3-1.9 1.4-1 1.1.9 1.5.9 1.8 0 .5-1.5 8.6 2 11 4.8 2.3 2.5 2.8 6.7.8 6.8-2.1 0-2.5 4.9-.6 6.4.9.8 2.6 1.1 4.1.7 2.7-.7 3.3-3.3 1.4-6.8-1.8-3.3-.4-3.1 6.6 1.2 3.8 2.3 7.9 4.6 9.2 5.1 2.9 1.1 2.9 2.6.2 5.5-1.9 2-2 2.5-.7 5.1 1.1 2.2 2 2.8 4.3 2.6 3.5-.3 5.5-2.6 5.5-6.5 0-1.5.2-2.8.4-2.8 2.4 0 15.8 3.5 19.2 4.9 3.7 1.7 4.2 2.3 4 4.8-.2 2-.9 2.9-2.5 3.1-2.4.4-2.8 2.4-.7 4.1 2.3 2 7.1-1.1 8.9-5.7 1.2-3.1 2.2-4.1 4.8-4.6 6.2-1.2 6.9-.9 6.9 2.9 0 9.1-6.7 13.6-20.3 13.6-17.3 0-31.6-7.2-58.9-29.4-7.5-6.1-9.8-8.5-9.8-10.3 0-1.4-.7-2.7-1.5-3-1.7-.7-2.1-3.4-.5-3.4.5 0 1.5.9 2.2 2zm81.8 0c0 .5-.7 1-1.5 1s-1.5-.5-1.5-1c0-.6.7-1 1.5-1s1.5.4 1.5 1zm660 2.3c0 1.9-1 2.7-2.6 2-2.1-.8-1.7-3.3.6-3.3 1.1 0 2 .6 2 1.3zM136.1 374c-1.1 3.6-6.1 9.2-9.3 10.3-1.4.5-1.1-.6 1.3-6 1.6-3.6 3.9-7.9 5.1-9.5l2.1-3.1.9 2.4c.6 1.5.5 3.7-.1 5.9zm199.8-2.2c.1 1.3-.3 2-.9 1.7-.5-.3-1-2.3-.9-4.3 0-3 .2-3.3.9-1.7.5 1.1.9 3 .9 4.3zm231.6-3.2c4.4 2.1 12.5 10.7 12.5 13.4 0 1.1-1.7 5.5-3.9 9.8-2.2 4.5-5.1 12.9-6.9 20.1-3.3 13.1-5.2 17.1-5.2 11 0-2-1.2-7.4-2.6-12-2.3-7.2-2.5-8.9-1.6-12.4.6-2.2.9-4.2.6-4.4-.2-.3-1.7.8-3.2 2.2-3.3 3.1-5.3 3.4-9.3 1-3.1-1.8-3.5-1.7-12.6 3.6-3 1.7-3.7 1.7-8.5.5-2.9-.8-7.8-1.4-11-1.4s-5.8-.4-5.8-1c0-2.3 10-9 13.4-9 3.6 0 13.5-3.7 18.5-7 2.5-1.6 6.9-5.2 9.6-8.1 4.4-4.5 9.3-7.7 11.8-7.9.5 0 2.4.7 4.2 1.6zm392-.7c.3.5-.6 2.2-2 3.7l-2.5 2.6 2.1 2.6c3.3 4.2 10.4 8.8 24.3 15.6 7.2 3.5 16.7 8.8 21 11.8 7.5 5 12.6 10.1 11.4 11.3-.3.3-4.3-.8-8.9-2.6-5.2-1.9-10.5-3.2-13.8-3.3-3 0-5.6-.6-5.8-1.2-.5-1.5 4.3-2.4 9.7-1.7 4.1.5 4.4.4 3-1-.8-.9-5.2-3.4-9.7-5.6-4.6-2.2-10-5.2-12.2-6.5-2.2-1.4-6-3.1-8.5-3.7-3.6-.9-5.8-2.4-9.5-6.5-7.9-8.7-7.8-13.6.6-16.3.1-.1.4.3.8.8zm-832 2.3c-2 6.6-8.6 13.1-16.4 16.4-6.8 2.8-5-.2 4.2-7.3 3.4-2.7 6.5-6 7.3-7.9 1-2.3 2.1-3.4 3.5-3.4 1.6 0 1.9.4 1.4 2.2zm322 2.9c1.9 3.5 1.5 4.4-1.4 3.4-4.9-1.5-6.9-6.5-2.6-6.5 1.7 0 2.9.9 4 3.1zm40.5-.2c0 2-1.7 3.7-2.7 2.8-.7-.8.7-4.7 1.8-4.7.5 0 .9.9.9 1.9zm-434.6 3.2c-2.1 2.1-9.4 4.4-9.4 2.9 0-.7 8.5-4.8 10.5-4.9.5-.1 0 .8-1.1 2zm365.4 6.3c1.6.8 6.6 4.6 11.3 8.5 6.2 5.2 12.4 9 23.4 14.5 8.3 4.1 16.8 7.8 18.9 8.2l4 .7-2.2 1.8c-5.4 4.3 1.1 4 6.9-.4 7.1-5.4 8.1-5.7 19.8-5.7 9.7 0 12.2-.4 22.1-3.5 16.2-5.1 20.8-4.7 32.7 3 .1 0 1.6 8.6 3.3 19.1 3.6 22.1 5.1 29 8.7 39.8 1.8 5.7 2.6 10.1 2.6 15.7.1 7.4-.1 7.9-4.2 14.2-4.1 6.4-4.2 6.7-5.1 18.6-.9 11.3-2.8 19.1-4.7 19.1-2.4 0-12.9-9.3-18.5-16.2l-3-3.8 2.3-3.7c6.1-10.4 5.9-10.2 11.1-9.6 5.6.7 5.7.6 2.8-8.7-2.6-8.6-2.5-10.5.9-16.7 2.8-5.1 2.9-5.5 2-12.8-1.9-15-9.9-33.5-14.2-32.7-.9.1-3.4-.6-5.6-1.8l-4-2-6.8 2.1c-3.7 1.2-14 5.6-22.8 10-20.5 10.1-26.4 12.2-29 10.3-2.7-2-3.7-1.8-9.2 2-7.2 4.9-8.4 5.1-11.8 1.6-1.5-1.6-5.5-7.3-8.9-12.7-6.6-10.5-12-15.4-17.4-15.6-3.6-.2-4.4 1.6-1 2.1 1.2.2 2.9 1.3 3.6 2.3.7 1.1 2.6 2.6 4.2 3.4 6.3 3.2 7.8 7.9 4.1 12.7-2.5 3.1-10.5 7.4-16.1 8.7-6.3 1.4-9-.4-9-6.2 0-2.3-1.4-8.9-3-14.7-8.9-30.8-9.8-38.1-5.5-44.4 1.4-2 3.6-5.2 5-7.2s2.5-4.6 2.5-5.6c0-1.8.4-1.7 3.5 1.1 1.9 1.7 4.8 3.7 6.3 4.5zM109 378.5c.6-.3 1-.1 1 .5 0 1.7-2.9 2.4-5.6 1.2-1.3-.7-2.4-1.9-2.4-2.7 0-1.4.3-1.4 3 0 1.7.9 3.5 1.3 4 1zm760.1 2.2c.7 2 1.5 2.4 3.4 2.1 3.3-.7 6.5 2.9 7.2 8 .5 3.6.3 4-2 4.4-3.1.6-5.4-1.1-6.8-5.2-1.7-4.6-2.9-2-2.9 6.2 0 4.2 1.1 11 3 18.3 1.7 6.4 3 12.4 3 13.3-.1 3.4-5-4.3-7.3-11.3-1.9-5.9-2.2-9.3-2.2-21.5 0-8 .3-15.3.8-16.3.9-2.2 2.5-1.4 3.8 2zm-41.3 4.2c.5 3-1.8 2.4-2.9-.8-.7-1.8-.6-2.2.9-1.9.9.2 1.9 1.4 2 2.7zm-496.8 3c1.3 2.9 2 5.7 1.6 6.7-.4 1-.1 2.1.6 2.5 1 .6.9.9-.2 1.3-12.5 3.9-11.8 3.8-15.8 1.8-5.3-2.8-10-4.1-16.7-5l-6-.8 2.7-1.8c1.5-1 6-2.6 10-3.7 4-1 9.6-2.7 12.3-3.8 7.7-3.1 8.8-2.8 11.5 2.8zm146-3.9c.8.5 1.1 1.2.8 1.5-.9.9-6.6-.4-7.3-1.6-.8-1.2 4.6-1.1 6.5.1zm-364.7 6.6c6.2-.5 7.8-.4 7.5.6-1.3 3.9-11.3 5-16.5 1.8-3.7-2.2-4.7-4.8-1.1-2.9 1.4.8 4.8.9 10.1.5zm-9.3 7.8c4.1 0 8.5-.5 9.8-1.2 3.9-2.2 2.8 2.6-1.7 6.8-9.1 8.6-27.2 7.5-32.3-2-2.7-5.1-.4-5 4.7 0l4.4 4.3 8.6-.6c11.2-.6 12.5-2 3.8-3.6-8.3-1.5-14.8-4.3-16.2-6.9-1-1.8-.6-1.8 5.2.6 4.7 2 8 2.6 13.7 2.6zm275-1.5c-.1 1.6-6.4 11.8-10.7 17.1-3.3 4.2-5.5 6-7.1 6-3 0-12.2-4.7-12.2-6.3.1-3.7 7.2-11.7 10.3-11.7 1.4 0 5-1.3 8-2.9 3.1-1.6 6.4-3.1 7.4-3.3 2-.5 4.3.1 4.3 1.1zm-24.1 1c1.2.8.6 2.3-3.3 8-2.6 3.9-4.9 7.1-5.1 7.1-1.5 0-7.5-3.6-7.5-4.4 0-2.3 4.1-7.7 7.2-9.6 3.6-2.1 6.5-2.5 8.7-1.1zm46.3 13.7c1.5 7.1 4.2 18.4 5.9 25.2 1.7 6.8 2.8 12.6 2.5 13-1 .9-7.2-2.7-12.1-7-3.7-3.2-4.5-4.7-5-8.6-.4-2.6-2.5-10.3-4.6-17.1-2.1-6.8-3.9-12.7-3.9-13.2s1.1-.9 2.6-.9c1.4 0 4.2-1.1 6.2-2.5s4.1-2.4 4.6-2.2c.5.2 2.2 6.1 3.8 13.3zM737 401.1c0 4.5-3.1 9-9.5 13.8-3 2.3-5.5 3.9-5.5 3.6 0-2.1 12.7-20.5 14.2-20.5.4 0 .8 1.4.8 3.1zm241.1 6.7c-2.6 4.9-7.1 6.4-7.1 2.3 0-2.5 2-4.1 5.2-4.1 2.4 0 2.7.3 1.9 1.8zm-594 12.6c2.2 6.6 3.9 13 3.7 14.3l-.3 2.4-6-3.7c-3.3-2-8.1-4.9-10.6-6.3-4.5-2.5-4.6-2.8-3.5-5.3 1.3-3.1 10.7-13.6 11.9-13.4.4.1 2.6 5.5 4.8 12zM261.6 415c1.3.5 2.4 1.6 2.4 2.3 0 .8.9 2.2 2 3.2 1.7 1.5 2.4 1.6 4.6.7 2.7-1.3 8.4-1.5 13.3-.6 2.7.6 3.1 1.1 3.1 3.9 0 4.7.8 6.4 4.1 8 3.9 2.1 4.9 1.9 4.9-1.1 0-3.9 1.8-6.4 4.6-6.4 3.3 0 3.8 1.8 2.4 8.5-1.2 5.9-4.1 9.9-7.7 11-2.8.8-3.1-1-.6-3.7 2.8-3.1.9-2.9-3.6.3-4.6 3.4-4.8 4.8-.8 6.7 2.2 1.1 2.5 1.8 2.1 4.1-.4 1.6-.1 3.2.5 3.5 1.6 1 1.3 2.6-.4 2.6-3.8 0-.4 5.6 6 10 2.5 1.7 4.8 4.2 5.1 5.6.5 2 1.1 2.3 2.8 1.8 3.1-.9 5.6-3.4 7.8-7.8 2.5-4.8.3-4.5-3 .5-3 4.4-3.6 4.6-6.7 1.4-3.3-3.2-2.9-4.4 2-6.1 5.8-1.9 10.7-7.7 14.5-17.2 3.3-7.9 3.5-8.2 6.7-8.2 1.8 0 3.3.3 3.3.6 0 1.8-5.7 11.7-9.7 16.8-3 3.8-3.9 5.5-2.5 4.7 1.7-.9 7.7-9.2 12.7-17.4.9-1.6 1.5-1.5 6.3.8l5.4 2.5-2.8 4.7c-4.1 7.2-10.4 15-18.2 22.7-6.4 6.2-7.3 6.8-10.1 6.3-3-.6-3.1-.5-2.9 2.6.3 2.7 0 3.2-1.7 3-1.1-.1-2.4-1-3-1.9-.5-1-3.2-4-5.8-6.7-2.8-2.9-6.6-8.5-9.4-14-2.5-5-5.2-9.7-6.1-10.3-1.1-.8-1.2-1.5-.3-3.2 1.2-2.2 1.5-8.1.5-10.6-1-2.7-2.4-1.8-2.4 1.6l-.1 3.3-1.5-2.8c-1.5-2.8-2.4-3.1-6.1-2.1-1.7.5-2.3 1.4-2.3 3.6 0 1.6-.4 3.7-.9 4.7-1.2 2.1 2.7 6.7 6.4 7.7 1.5.4 2.2 1.1 1.8 2-.3.8.1 1.4 1.1 1.4.9 0 1.6.4 1.6 1 0 .5-.7 1-1.7 1-.9 0-3.7 2.3-6.2 5l-4.7 5.1-4.6-2.6c-6.7-3.7-10.3-4.6-19-4.6-7.1 0-8.1-.2-12.7-3.3-6.6-4.4-11.1-5.9-17.1-5.4-2.8.1-5 0-5-.4 0-1.8-7.9-9.3-11.5-10.9-2.2-1-6.3-1.9-9.2-1.9-3.3 0-5.3-.4-5.3-1.1 0-.7-2-3.4-4.5-6-5.6-6-5.8-8.3-.9-10.4 5.8-2.4 7.1-2 9.3 3 1.1 2.5 2.3 4.5 2.6 4.5.3 0 2.1-1.2 4-2.7 3.1-2.5 3.4-3.1 2.9-6.4l-.6-3.7 9.3-1.7c5.2-.9 13.2-2.1 17.9-2.5 9.9-1 34.1-.3 37.6 1zm721.2 4.6c4 4.2 4.1 5.6.3 4.3-3.1-1.1-6.4-4.3-7.4-7.2-1.1-2.9 3.2-1.2 7.1 2.9zM196 423.1c0 1.1-2.7 1.2-3.4 0-.3-.4-.3-1.1 0-1.4.8-.8 3.4.3 3.4 1.4zm-106-.3c0 2.4-12.2 10.4-13.6 8.9-.5-.4 11.7-9.7 12.9-9.7.4 0 .7.4.7.8zm205 3.7c0 .8-.4 1.5-1 1.5-.5 0-1-.7-1-1.5s.5-1.5 1-1.5c.6 0 1 .7 1 1.5zm699 6.4c1.2 3.3 2 6.5 1.8 7.2-.5 1.6-5.2-4.5-7.3-9.4-1.5-3.7-1.5-3.7.9-3.7 2 0 2.7 1 4.6 5.9zm-676.4-1.3c2.7 1.4 5.1 2.8 5.3 2.9.2.2-1.4 4-3.4 8.5l-3.8 8h-5.9c-6.5 0-9.8-1.2-9.8-3.6 0-.8 1.4-2 3-2.6 3.6-1.2 5.8-5 6.7-11.3.3-2.5 1.1-4.5 1.8-4.5s3.4 1.2 6.1 2.6zm-247.6.3l4.5.7-5 1.6c-3.9 1.2-5.2 1.2-6 .3-.5-.7-1.9-1.7-3-2.3-1.8-1-1.6-1.1 1.5-1.1 1.9 0 5.5.4 8 .8zm207 12.7c0 3.6-.5 4-3 2.4-1.2-.7-1.2-1.2-.2-2.2.6-.6 1.2-2 1.2-3.1 0-1 .5-1.5 1-1.2.6.3 1 2.2 1 4.1zm269 1.6c3.7 7.7 3.8 11.7.6 14.9-9 9.2-26.8 26-30 28.4l-3.8 2.9-1.9-2.2c-2.9-3.6-3.4-10.4-1.5-21.5.9-5.5 1.8-10.2 1.9-10.4.2-.2 3-.8 6.1-1.5 5.9-1.1 6.7-.9 7.9 2.7.3.7 1.3.7 3.3 0 3-1.1 3.1-1.4 6.3-13.3 1.2-4.1 3.2-6 6.9-6.1.7-.1 2.6 2.7 4.2 6.1zm-363.7-.3l.6 3 8.5-.6c7.8-.5 8.6-.4 9.2 1.3.4 1 1.7 4.3 3 7.3l2.4 5.4 5.3-.7c17-2 17.7-2 17.7.2 0 1.5-1.2 2.8-3.9 4.1-2.1 1.1-5.1 3.1-6.7 4.4-1.6 1.4-6.5 4.5-11 6.9-4.4 2.4-10.5 6.3-13.5 8.5-8.3 6.1-13.2 8.3-18.7 8.3-12 0-28.2 9.3-33.3 19.1-1.9 3.5-11.5 11.9-13.8 11.9-1 0-2.3 1.3-3.2 3.2-.8 1.8-2.4 3.7-3.6 4.3-1.3.5-2.3 1.7-2.3 2.7 0 .9-1.8 3.8-4 6.3s-4 5.6-4 6.8c0 1.2-2.1 5.8-4.7 10.2-5.9 10.2-6.5 12.8-4.7 23.4.7 4.7 1.4 10.3 1.4 12.4 0 3.1.8 4.8 4 8.4 7.3 8.3 17.1 24.5 15.7 26-1 1-24.7.9-30-.1-2.3-.4-3.7-1.3-3.7-2.2 0-.8-1.1-3-2.5-4.8-3-3.9-3.1-6.3-.5-9.6 2.5-3.2 2.5-6.7 0-13.2-2-5.2-7.3-11.8-9.6-11.8-4 0-.9-6.7 8.6-18.5 8.5-10.6 9.9-13.2 13.4-24.6 1.6-5.1 4.9-12.4 8-17.5 4.2-7.1 5.4-10.1 5.9-14.6.4-4.1 1.7-7.9 4.6-13.2 2.3-4 4.1-8 4.1-8.8 0-1.1 1.7-1.7 6.2-2.2 8.4-.8 16.3-4.8 28.3-14.1 5.5-4.2 12.3-8.8 15-10.2 5.6-2.9 10.4-7.8 10.4-10.8 0-1.1-.6-3.1-1.4-4.5-.8-1.4-1.4-3.5-1.5-4.8 0-1.9.3-2.1 1.9-1.3 1 .6 2.1 2.4 2.4 4zm568.7 2.6c-.4 1.9-2.2 6-4 9.2-1.8 3.1-3.8 7.3-4.6 9.3-1.2 3.4-1.3 3.4-1.3.7-.2-5.4 3-16.7 5.6-19.7 3.5-4.2 5.3-4 4.3.5zm231.8 3.5c.1 3.9 0 7-.2 7-.3 0-1.2-.7-2-1.6-1.6-1.6-2.3-10.4-.9-11.7 1.9-2 2.8-.1 3.1 6.3zm-156.4-2c3.7.6 10.3 2.2 14.5 3.6 14.6 5 36.5 17.9 37.6 22.3.3 1.3.5 2.5.3 2.7-.2.1-3.9-.2-8.3-.8-14.4-1.8-33.2.5-42.5 5.2-2 1-5.2 3.6-7 5.6-2.6 3-3.6 3.5-4.9 2.7-.9-.6-1.5-1.8-1.5-2.7.1-.9-.6-1.6-1.6-1.6-2.1 0-4.3-2.4-3.2-3.5.4-.4-1.5-.5-4.2-.1-4.9.6-4.9.6-3.1-1.4 1.9-2.1 1.9-2.1-2.6-1.4l-4.4.7 1.9-2.2c1.9-2.1 1.9-2.1-.3-2.1-1.2 0-4.8 1.3-8.1 3-6 3-10 3.8-10 2 0-.6.5-1 1-1 .6 0 1-.5 1-1 0-.6-2.2-.8-5.7-.4-5.4.5-5.7.4-3.9-1 1.1-.9 2.4-1.6 2.9-1.6.4 0 .6-.4.2-.9-.3-.6-1.8-.6-3.7.1-2.3.8-3.6.8-4.9-.1-2.6-1.6-4.4-1.4-8.1.9-1.8 1.1-4.2 2-5.2 2-1.8 0-1.8-.2.5-2.6 4.8-5.3 16.7-14 24.4-18.1 15.6-8.1 31.5-10.8 48.9-8.3zm-250.7 1.5c2.1 1.5 5 9.1 4 10.2-1.5 1.4-9-5.6-10.2-9.5-.5-1.8-.3-2.2 1.7-2.2 1.3 0 3.3.7 4.5 1.5zm-222.8 1.9c3.4 1.8 9.4 8.4 8.6 9.6-1.4 2.2-20.2-4.9-18.9-7.2 2.4-4.3 5.3-4.9 10.3-2.4zm144.1 2.7c0 .7-1.2.9-3.4.5-3.4-.7-3.5-.6-2.7 2.1 1.3 4.5.3 5.6-2.6 3.3-5-3.9-7.4-1.4-2.8 3 4.6 4.4 2.3 5.7-2.7 1.5-2.6-2.2-6.8-3.4-6.8-1.9 0 .3 1.1 2 2.6 3.9 3.1 4.1 1.6 5.5-2.6 2.4-3.6-2.7-5.1-1.8-2.8 1.9 3.8 6 5.1 9.1 4.4 10.8-.6 1.5-1.4 1.1-5.4-2.9-5.3-5.2-6.2-5.6-6.2-2.7 0 1.1-.3 2-.6 2-1.3 0-5-2.5-6.2-4.2-1.8-2.5-3.2-2.2-3.2.7 0 3.1-2 4.1-5 2.5-1.6-.9-2.5-.9-3.5 0-1.7 1.4-2.5 1-10.6-5.5-8-6.4-11.9-10.1-11.9-11.3 0-.5 6.4-1.2 14.3-1.6 7.8-.4 21.4-1.7 30.2-3 18-2.7 27.5-3.2 27.5-1.5zm76 7.5c.6 1.8 1 4.2.8 5.1-.3 1.5-.6 1.4-2-.7-.9-1.4-1.9-4.3-2.3-6.4-.6-3.5-.5-3.8.9-2.7.8.7 2 2.8 2.6 4.7zm-234.2 2.8c.3 1.2-.1 1.7-1 1.4-.7-.3-1.5-1.3-1.6-2.2-.3-1.2.1-1.7 1-1.4.7.3 1.5 1.3 1.6 2.2zm395 4c.2 3.3-.1 5.2-1 5.7-1.6 1.1-8.1 1.2-7.6.1 5.4-12.3 8.1-14.2 8.6-5.8zm250.1 14.4c.2 16 0 19.1-1.4 20.2-1.3 1.1-1.5-.8-1.5-18.9 0-16.1.3-20.1 1.3-20.1 1.1 0 1.4 3.9 1.6 18.8zm-657.4 1.6l-7.9 15.4-2.7-2c-1.5-1.1-3.7-3.3-4.9-5-2-2.7-2-3.1-.7-5.2.9-1.3 2.8-2.9 4.4-3.5 1.5-.7 5-4 7.7-7.3 4.2-5.3 10.2-9.5 11.6-8.2.2.3-3.1 7.4-7.5 15.8zm46.3-11.9c8.7 2.6 15.2 9.9 15.2 17 0 1.9-.5 2.5-2.3 2.5-2.8 0-5.8-2-10.9-7.6-4.9-5.3-6.8-5.7-3.9-.8 4.1 6.9 1.9 6.5-7.8-1.4-3.1-2.5-5.7-4-5.9-3.3-.2.6 1.5 3.4 3.7 6.3 2.3 2.8 3.9 5.3 3.7 5.6-.3.2-3.1-1.2-6.3-3.2-7.2-4.5-9.7-4.7-5.8-.6 3.7 3.8 2.4 5.1-2.3 2.3-2-1.2-5.2-3-7-4-3.5-1.8-3.6-2.1-1.5-12.7l.5-2.9 12.7.6c6.9.3 15 1.3 17.9 2.2zm-84.6 4.5c5.1 3.1 7.3 5.1 8.9 8.1 1.1 2.3 1.8 4.3 1.6 4.6-.3.2-2.3-1.2-4.5-3.1-5.3-4.9-8.1-4.8-4.7 0 1.5 2.2 1.1 3.4-1 3.4-.6 0-3-1.6-5.4-3.6-2.3-2-4.5-3.4-4.8-3-.3.3.2 2.3 1.1 4.4 1 2.2 1.6 5 1.4 6.3-.3 2.2-.7 2-5.9-3.4-5.5-5.6-7.9-6.9-7.9-4.5 0 .7-.4 1.9-.9 2.7-.8 1.2-1.3 1.2-3.5-.3-2.7-1.7-3.3-.8-1.6 2.5.9 1.5.7 1.9-.7 1.9-1 0-2.7-.7-3.7-1.5-2.2-1.7-6.6-2-6.6-.6 0 .6.5 1.3 1 1.6 2.5 1.5.8 3.4-3.7 4.1l-4.7.7 2.7 2.1c3.7 3 1.9 4.6-5 4.6-2.9 0-5.3.4-5.3.8 0 .5 1.8 1.6 4 2.5 4.6 1.8 5.3 3.7 1.3 3.7-1.6 0-4.1.7-5.7 1.5-1.5.8-3.7 1.5-4.7 1.5-2.1 0-2.5 2-.7 3.8.9.9.2 1.2-3.4 1.2-5.7 0-7 1.6-3.5 4.2 3.2 2.3 3.5 3.8.8 3.8-1.1 0-3.6 1-5.6 2.2-4.3 2.5-5.5 1.6-5.5-4.1 0-4.3 5-19.2 7-20.9 4.1-3.5 27.5-18.6 34.4-22.3 19.3-10.3 24.4-11.1 34.8-4.9zm-45.2.9c0 2.9-5 6.5-13 9.6-5.4 2.1-8.8 4.3-13.6 8.7-5.9 5.6-6.4 6.3-6.4 10.3 0 2.6-.6 4.7-1.5 5.5-2.1 1.7-3.3 6.9-4.5 19-1 8.8-.9 10.5.5 11.9.9 1.1 1.5 3.7 1.5 7 0 10.9 9.7 32.3 16.8 37.1 6.2 4.2 9.6 5.9 11.9 6 1.3 0 3.1 1.3 4.5 3.2 1.2 1.8 4.4 6 7.1 9.3 5.4 6.6 9.2 13.3 8.2 14.3-.7.7-10.9.9-24.3.3-9.5-.4-7.9 1.2-13.7-13.4-3.3-8.1-5.9-10.2-11.4-9.3l-3.8.6-.6-14.8c-.8-21.5-5-38.3-17.1-68.2l-5.4-13.5 3.6-2c2-1.1 5.1-3.4 6.9-5.1 1.9-1.8 4.9-3.5 7-3.9 2.1-.3 8.1-2.7 13.3-5.2 15.2-7.3 20.8-9.2 27.8-9.2 5.5-.1 6.2.1 6.2 1.8zm93.6 19c2 8 5 17.3 7.9 24.5.7 1.6.5 1.7-1.6 1.1-6.3-1.9-14.5-9-18-15.8L323 505l4.1-8c2.7-5.1 4.8-8 5.7-7.8.9.2 2.3 3.8 3.8 9.7zm315.7-3.1c1.7 1.6 2.4 6.2.8 6.2-1.1 0-9.1-8-9.1-9.1 0-1.1 6.1 1 8.3 2.9zm-241.1 11.4c2.5 1.2 5.6 4.4 9.3 9.8 3.1 4.3 7.1 8.8 9 10 1.8 1.1 6.8 6.4 11.1 11.8 19.5 24.2 64.1 71.3 70 73.8 1.7.7 6.7 5.2 11 10 5.1 5.6 11.1 10.9 16.9 14.7 5 3.4 14.4 10.7 21 16.4 17.3 14.8 22.4 18.4 32.3 22.6 7.6 3.3 13.2 6.6 13.2 7.9 0 .3-4.4-.1-9.7-.8-5.4-.7-14-1.3-19-1.4-9.6 0-12.5-1.5-5.3-2.6 2.2-.4 3.7-1 3.4-1.5-.8-1.4-12.1-1.1-20.7.6-4.3.8-8.8 1.5-10 1.5-2.2-.1-2.2-.1-.3-1.5 1.1-.8 3-1.5 4.2-1.5 3 0 4.2-2 1.2-2.1-17.6-.4-16.3-.2-16-2.9.5-3.2 2.8-5.8 6.7-7.5l3-1.3-4.7-.1c-3.3-.1-7.4 1-13.4 3.5-4.7 1.9-8.8 3.3-9.1 3-1.2-1.2 1-5.8 4.7-10.1 4.2-4.8 4.9-6.5 2.8-6.5-3 0-7.9 4.4-13.8 12.4-3.5 4.7-6.7 8.6-7.1 8.6-1.5 0 1.4-8.8 5.7-16.8 2.4-4.7 4.2-8.7 4-9-.8-.7-5.8 3.3-11.4 9.2-2.9 3.1-5.6 5.6-5.9 5.6-.3 0-3.1-2.4-6.2-5.4-3.1-2.9-7.1-6.1-8.9-7-3-1.6-3.2-1.6-3.2.1 0 1 1.2 3.8 2.6 6.3 6.3 10.8 6.4 11 5.1 11-.7 0-3.6-1.8-6.6-4-5.5-4.2-9.4-5-12.5-2.7-1.5 1.1-1.2 1.4 2.9 2.6 4.1 1.2 8.5 5 8.5 7.3 0 .5-4.1.6-9.2.2-7.3-.5-10.1-.3-13 .9-5.1 2.1-4.8 3.3.7 2.9 4.5-.4 10.5 1.3 10.5 2.9 0 .4-1 1.1-2.2 1.5-3 1-21.4.7-25.3-.4l-3-.9 3.7-3.5c2.4-2.3 6-4.3 10.8-5.8 6.5-2.1 7-2.4 5.6-3.9-1.6-1.5-9.7-1.8-13.8-.5-2.4.7-2.3-1.8 0-3.9 1-1 4.3-2.5 7.2-3.5 6.1-2.1 7.3-3.7 3.6-4.6-3-.7-10.5 1.9-17.6 6.3-2.8 1.7-5.7 3.1-6.4 3.1-2.3 0 0-4.9 6.7-14.1 3.2-4.5 5.6-8.4 5.3-8.6-1.4-1.4-6 1.9-13.3 9.5l-8.3 8.7V648c0-7-.4-10.1-1.6-11.8-2.9-4.2-5.4-2.3-5.4 4.3 0 4.4-2 13.5-2.9 13.5-.4 0-2.1-2.8-3.7-6.2-1.6-3.4-3.7-7.2-4.7-8.5-2.1-2.6-7.6-5.8-8.5-4.9-.3.3 1.5 5 4 10.4C400 655 401.4 659 400 659c-.5 0-4-2.9-7.9-6.4-10.1-9.4-14.2-11-20.6-8.6-3 1.1-2.5 3 .8 3 1.2 0 4.3 2.2 7.4 5.2 5.9 5.8 6.9 8.4 2.7 6.8-3.6-1.4-7.9-1.2-11.9.4-4.2 1.8-4.6 3.6-.7 3.6 4.6 0 13.2 2.7 17.3 5.4 3.2 2.1 7.9 8.8 7.9 11.1 0 .3-3.5-1.3-7.8-3.5-11.1-5.8-24.8-7-17-1.6 1.2.9 4.3 2.3 6.9 3.1 5.7 1.9 9.1 5.1 6.9 6.5-2.8 1.8-8.1 2.2-18.5 1.5-8.6-.6-10.3-.9-9.8-2.2.8-2.1 4.6-3.3 10.6-3.4 9.5-.1 1.3-2.2-9-2.3-5.1-.1-9.3-.4-9.3-.8 0-1.6 4.9-3.7 11.3-4.9 3.7-.7 6.7-1.5 6.7-1.9 0-.4-1.5-1.5-3.4-2.5-2.6-1.4-4.7-1.7-9.7-1.3-3.5.3-7.3.9-8.4 1.3-1.1.3 1.6-2.7 6-6.9 4.4-4.1 7.7-7.8 7.3-8.1-1.2-1.2-7.4 1.5-13.1 5.5-3.1 2.2-5.8 4-6.1 4-1.4 0-.4-3.6 2-6.7 3.1-4.1 2.1-4.2-3.7-.4-4.4 2.9-9.3 7.6-12.2 12l-1.5 2.3-2.5-3.9c-3.4-5.3-8-9.1-12.2-9.9-5.9-1.1-6.1 0-.7 5.9 2.9 3.2 5.2 6.2 5.2 6.7 0 1.6-5.1 1.1-10.8-1-6.1-2.3-12-2.6-14.7-.7-2.8 2.1-.9 3.7 4.5 3.7 2.7 0 5.1.4 5.5 1 .3.5 2.8 2.1 5.6 3.7 2.8 1.5 5.7 4 6.5 5.5 1.9 3.6.6 3.5-5.3-.2-4.6-2.9-11.5-4.1-12.7-2.1-.3.4 1.2 2.2 3.4 4 6.7 5.4 4.1 8.4-3.4 4-1.9-1.1-4.3-1.9-5.3-1.7-1.3.2-1.9-.4-2.1-2.5-.4-3.3-.6-3.3-4.5-.1-1.7 1.5-3.3 2.2-3.5 1.6-.2-.6.4-3.7 1.2-7 1.9-7 2-11.5.5-14.3-1.6-3-3.4-.9-5.9 6.6-3.1 9.2-8 14.9-8 9.2 0-3.5-4.7-12.7-6.5-12.7-2.1 0-4.5 5.9-4.5 11 0 3.3-.3 4-2 4-1.1 0-3.7-1.6-5.8-3.5-5-4.4-8.6-5.9-10.2-4-.9 1-.7 2.1.4 4.4.9 1.6 1.6 3.2 1.6 3.4 0 .3-2.1 1-4.7 1.6-2.7.7-6.8 2.4-9.3 3.8-6.2 3.4-15.8 4-34.2 1.9-8.1-1-18.5-1.7-23-1.6-4.6 0-13-.2-18.8-.5-7.2-.5-15.3-.1-25.5 1-9.2 1.1-29.2 2-52 2.5-20.3.5-41.2 1.2-46.2 1.6l-9.3.7-2.1-4.8c-1.9-4.3-2-5.4-1-10.4 1.4-6.9 4.3-12.5 8.8-17.2 3.8-4 3.7-5.4-.6-9.3-3.6-3.3-2.7-6.3 4.1-12.8 14.4-13.9 31.5-24.5 49.5-30.8l5.2-1.9-.1 10.7c-.1 11.6 1.4 17.2 5.5 19.4 3.3 1.7 35 .4 40.9-1.7 2.7-.9 5.1-2.1 5.4-2.6.3-.5-1.9-4.4-4.8-8.7-9.5-13.6-12.6-20.2-14.6-31.4l-.9-4.6 22.1-11.5c12.2-6.4 26.5-13.4 31.9-15.6 11.6-4.8 22.6-8.3 23.7-7.6 1.6 1 3.9 14.2 5.5 31.3 1.5 17.3 2.8 25.5 4.4 28.1.7 1.1 1.5 1.1 4.2.2 3.2-1.1 3.6-1 6.7 2.3 2 2.3 3.2 4.6 3.2 6.4 0 3.1 2.7 6 7.5 8.1 4.2 1.9 26.4 2.7 32.8 1.2 2.9-.6 6.3-2 7.7-3.1l2.5-1.9-3.3-6.3c-6.6-12.9-16.7-23.7-28-29.9-5-2.8-6.9-4.7-12.3-12.7l-6.4-9.4-.6-10.1c-.3-5.6-.2-11 .3-11.9.5-1 4.3-3.4 8.5-5.4 12.8-6.2 62.4-17.6 84.3-19.4 15.2-1.2 18.4-.7 22.7 4.1 4.8 5.3 12.8 8.9 21.4 9.6 3.8.3 6.9.2 6.9-.3 0-1.1-2.4-4.8-6.1-9.6-1.5-1.8-2.9-4.5-3.3-5.9-.6-2.6-.5-2.6 10.7-5.3 28.6-6.7 46.2-7.8 54.9-3.4zm585.8 1.4c0 1.5-.6 2.4-1.5 2.4-1.1 0-1.5-1.1-1.5-3.6 0-3.1.2-3.5 1.5-2.4.8.7 1.5 2.3 1.5 3.6zm-826.5 4.7c2.2-.1 3.4 1.6 9.1 12.7 4.5 8.8 6.7 16 4.8 16-2.1 0-5.2-3.9-5.8-7.6-.9-4.6-2.3-5.1-3-.9-.8 4-.6 3.9-4.1 2.3-2.2-1-2.8-.9-3.5.3-.8 1.2-1.6 1.1-5.7-.4-9.9-3.8-14.3-5-15-4.3-.4.4.9 2.2 3 4.1 6.5 5.9 4.1 7.3-4.9 2.9-7.5-3.7-11.7-1.9-5.1 2.1l3.2 2-6 .5c-5.7.5-5.8 1-.9 2.5 2.2.7 1.2 2.8-1.5 3.5-3.7.9-2.5 2.5 2.5 3.2 7.3 1.1 7.3 2.4-.1 3.2-3.6.4-7.7 1.2-9.2 1.9l-2.6 1.2 2.4.6c1.3.4 3.9.7 5.8.8 6.2.2 2.2 1.5-6.5 2.2-8.7.7-13.9 2.8-9.5 3.9 3.2.7 2.8 2.4-.8 3.4-2.5.7-3.1 1.4-3.1 3.7 0 3-2.3 4.9-5.9 4.9-1.7 0-2.1-.6-2-3.3.1-8.1 1.3-10.5 13.9-26.9 14.7-19.1 21.2-26 30-31.8 6.4-4.1 6.6-4.2 12.5-3.4 3.3.4 6.9.7 8 .7zm808.3 1.2c.6 1.4 1.5 2.5 2 2.5.4 0 .6 1.6.4 3.6-.5 4.4-1.6 3.5-4.2-3.4-1.5-4-1.7-5.2-.7-5.2.8 0 1.9 1.1 2.5 2.5zm44.2 5.4c-1 2-4.7 3.7-5.7 2.8-.8-.8 3.5-4.7 5.2-4.7 1.2 0 1.3.4.5 1.9zm-50.4 10.2c-.3 3.4-2.1 10.7-4 16.3-1.9 5.6-3.7 12.7-4.1 15.9-.4 3.8-1.4 6.6-2.6 7.8-2.5 2.5-4.3 2.4-3.6-.1.9-3.5-1-2.2-8.4 5.9-6.7 7.4-9.6 9.8-10.6 8.7-.6-.5 2.8-5.9 10.1-16 9.7-13.5 15.3-25.6 20.2-43.4.2-.6 1.1-1.2 2-1.2 1.5 0 1.6.8 1 6.1zm43.2 2.7l.3 8.2-3.3-.7c-1.8-.3-4.1-1.2-5-2-1-1-2.7-1.3-4.5-.9-1.5.3-3.5.2-4.3-.4-1.3-.8-1.3-1.1 0-2.5 2.7-2.6 14.4-10.3 15.5-10 .6.1 1.1 3.8 1.3 8.3zm-6.4 11.8c2.1.8 4.6 1.4 5.6 1.4 1.4 0 1.8 1.2 2.3 6 .7 6.5 3.2 14.3 9.1 28.2 2.4 5.7 3.9 11 4.3 15.5.7 8 1.4 8.7 10 10.3 3.9.8 9.1 2.9 14 5.7 15.4 8.8 19.3 10.5 25.2 10.7 4.6.1 6.9.9 12.9 4.6 5.5 3.2 9.9 4.9 17.3 6.6 11.5 2.6 14.1 4 16.7 9.1l1.9 3.6 1.6-2.4c1-1.3 1.7-3.4 1.7-4.6 0-3.9-7.5-10.9-16.1-15.2-6.6-3.3-7.6-4.1-6.3-5.2 1.2-1 2.5-1 6.3 0 2.9.7 9.9 1.1 18.2.9l13.4-.3 7.4 4.7c7.3 4.7 13.1 6.2 13.1 3.5-.1-3-4.1-9.7-7.4-12.2-5-3.8-15-7.2-26.4-9.1-5.3-.8-9.8-1.7-10-1.9-.6-.6 4.6-3.7 8.6-5.1 5.6-2 19.6-1.7 26.2.6 3 1 5.7 1.7 5.9 1.4.8-.8-2-5-4.2-6.3-3-1.9-18.8-4.5-27.7-4.5-4.4-.1-12 .9-18.2 2.2-7.3 1.6-11.6 2.1-13.3 1.5l-2.6-.8 2.6-3.5c4.2-5.7 8.6-7.5 18.7-7.5 8.4 0 8.6-.1 7-1.8-3.3-3.7-7.5-5.1-14.7-5.1-9.8.1-14 1.5-24.7 8.6-16.1 10.6-18.4 11.2-30.1 7.7-5.5-1.6-9.9-2.4-13.7-2.4 0 0 .7-3.5 1.5-7.7.8-4.3 1.8-12.8 2.1-18.8.6-9 1-11 2.1-10.5 4.5 1.7 31.3 7.7 39.8 8.9 2.2.4 9.4 1.1 16 1.6 15.1 1.3 20.1 2.7 29.5 8.6 10.4 6.5 16.2 8.9 32.3 13.5 16.5 4.8 20.2 6.5 32.2 15.4 5 3.6 13.3 9.3 18.6 12.5 5.3 3.3 13.8 9.7 18.9 14.4 5.1 4.6 11.5 9.5 14.2 10.8 4.9 2.3 5.8 3.4 13.6 17.1 2.4 4.4 2.8 7.7 1.2 10.8-.8 1.4-.7 2.2.7 3.3 1 .8 2.9 2.4 4.3 3.5l2.5 2.1-2.8 2.5c-1.5 1.3-4.2 2.8-6 3.2-1.7.5-37.4.8-79.2.7-58.3-.1-80.9-.5-97-1.7-49.1-3.7-56.8-4-97-3.3-22 .4-48.3 1.1-58.5 1.6-33.6 1.7-105.4 2.5-104.6 1.2.4-.7 1.8-1.2 3.1-1.2s2.7-.5 3-1c1.1-1.8-7.2-1.1-21.7 2-17.2 3.7-18.2 3.7-14.4.5 3.1-2.5 3.4-2.6 13-4.5 6.4-1.3 6.1-2.3-.9-3.4-5-.8-12.9 1-26.7 6-5.8 2.2-11 3.6-11.4 3.2-1.3-1.3 1.7-3.7 6.7-5.3 2.7-.9 4.7-2 4.4-2.5-1.1-1.7-6.1-1.7-14.3.1-12.8 2.8-12.9 2.8-13.7-3.1-.8-5.6-2.2-6.5-3.2-2-.8 4.4-1.8 4.4-3.8 0-2.4-5.4-5.6-8.1-10.4-8.7-4.6-.6-5 .1-2 3.3 1.8 1.9 2 3 1.5 6.8-.5 3-1.4 4.9-2.7 5.6-1.7 1-1.9.7-1.9-2.7 0-5.5-3.1-10-7.8-11.3-3.1-.8-10.2-.5-10.2.5 0 .1 1.3 2.6 3 5.6 2.6 4.8 4.1 11.9 2.4 11.9-.3 0-2.7-2.2-5.3-5-3.4-3.6-5.5-5-7.4-5-3.3 0-3.7 2.8-.7 5.5 1.1 1 2 2.7 2 3.8 0 1.8-.4 1.9-4.2 1.1-10.5-2-19.3-.1-12.2 2.7 2.3.8 2.5 1.2 1.4 1.9-1.7 1.1-8.7 1.2-11.3.1-1.6-.6-.6-1.8 6-7.8 9.6-8.6 12.5-12.8 15.3-21.5 2.9-9 5.6-11.2 15.3-12.6 11.7-1.8 22.4.4 57.2 11.8 23.9 7.9 32 10 38.6 10 2.6 0 9.6 1 15.5 2.1 8.8 1.8 13 2 21.9 1.6 28.2-1.5 43.8-7.3 81.4-29.8l18.6-11.2 9.7-12.3c18.7-23.6 27.9-40.5 31.9-58.4 2.9-13.3 3.4-14.2 7.8-13.4 2 .4 5.3 1.3 7.5 2zm-77.6 41.1c-3 7.1-9 9.8-20.3 9.1-8.7-.6-11.4-2.1-6.9-3.9 1.6-.6 7.3-2.2 12.8-3.5 5.4-1.3 10.6-2.9 11.5-3.4 3.2-1.8 4.2-1.2 2.9 1.7zm-.8 7.2c0 .6-.4 1.3-1 1.6-.5.3-1-.1-1-.9 0-.9.5-1.6 1-1.6.6 0 1 .4 1 .9z"/><path d="M443.2 141.6c.5 2.7 3.7 4.2 4.8 2.4 1.8-2.7 1.1-4-2.1-4-2.3 0-3 .4-2.7 1.6zM487.3 265.1c-3 1.9-6.3 8.3-4.9 9.6.9 1 4.4-2.7 7-7.4 2.8-4.8 2.5-5.1-2.1-2.2zM472.4 272.7c-2.8 3.1-3.7 5.7-3.2 10.3.5 5.2 2.4 4.6 3.7-1.2.6-3 2-6.8 3.1-8.6 1.7-2.7 1.7-3.2.4-3.2-.8 0-2.6 1.2-4 2.7zM466 295.5c0 1.7 3.9 6 4.7 5.2.9-1-.8-4.7-2.8-5.7-1.5-.8-1.9-.7-1.9.5zM377.7 228.4c-4.5 1.6-11.1 6-9.7 6.4 1.2.4 10.7-3.9 13.5-6.2 2.4-1.9 1.2-2-3.8-.2zM464.4 356.5c-3.6 3.1-3.7 3.4-1.6 3.5 3.7 0 1.4 2-2.4 2-3.1 0-3.4.2-2.4 1.9.5 1.1 1 3.2 1 4.8 0 1.5.5 3.5 1 4.3.8 1.3 1.3 1.2 3.7-.6 4.1-3.1 6.4-7.6 7-13.9.7-6.7-.5-7.1-6.3-2zm4.6 5.9c0 2-1.9 3.1-3.2 1.8-.6-.6-.7-1.5-.4-2.1 1-1.6 3.6-1.3 3.6.3zm-3 6c0 1.1-1.9 1.5-2.5.6-.3-.5.1-1 .9-1 .9 0 1.6.2 1.6.4zM515.4 366.5c-.3.8-.1 3 .6 5 1.9 5.8-.4 8.9-3 4-1.8-3.3-4.4-3.4-3.6 0 1.1 4.5 2.5 7.5 3.5 7.5 1.3 0 5.7-7.6 6.5-11.3.4-1.6.4-3.7.1-4.8-.7-2.2-3.3-2.5-4.1-.4zM605 298.2c0 1.3-1.1 6.8-2.5 12.3-2.4 9.8-3.1 20.1-1.6 23.9.7 1.8.8 1.8 1.4-.5.4-1.3.7-4 .7-5.9 0-1.9.9-9.1 2-16s2.2-13.1 2.3-13.9c.1-.8-.4-1.6-1-1.8-.8-.3-1.3.4-1.3 1.9zM601.3 356.2c.4 5.9 1.8 19.8 3.2 31 1.5 11.1 2.9 27.3 3.2 35.8.5 13.8.3 16.3-1.5 23-1.2 4.1-1.9 8.5-1.6 9.6.4 1.4-.4 3.7-2 6.3-3.5 5.5-5.2 9.9-8 21.1-2.3 9.1-2.5 9.5-5.2 9.8-4.7.5-5.8 1.1-4.6 2.5.7.8 2.5 1.1 4.8.9 3.1-.4 3.9-1 5.4-4.6 1-2.2 2.8-8.2 4-13.1 2.4-9.8 4.1-13.8 7.3-17.3 2-2.1 2.1-3.7 2.5-24 .4-17.8 0-26.9-2.2-50.7-3.5-38.9-3.6-39.4-4.8-40.1-.8-.5-.9 2.3-.5 9.8zM622.2 367.7c-.1 7.5.8 19 2.8 34.7 3.1 24.5 3.8 37.4 2.7 51.6l-.7 8.5 2-4c1.9-3.8 2-5.6 1.7-30-.4-26-.4-26-3.7-37.5-2.5-8.5-3.5-14.5-4-23l-.7-11.5-.1 11.2zM614.7 367.7c.2 3.7 1.1 12.9 1.9 20.3.8 7.4 2.2 20 3 28 1.7 15.8 1.4 36.3-.6 46.2-1 4.6-1.7 5.9-3.9 6.8-5.2 2.1-7.8 10.3-4.7 14.5 1.2 1.7 1.4 1.6 2.6-2 .7-2.1 3.4-7.3 6.1-11.7 5.9-9.7 6.6-14 5-31.3-.6-6.9-1.1-15.5-1.1-19.2 0-3.6-1.3-16.1-3-27.7-1.6-11.6-3.1-23.1-3.2-25.5-.2-2.5-.8-4.6-1.4-4.8-.8-.3-1 1.6-.7 6.4z"/><path d="M608 367.7c0 1.1.7 8.3 1.4 15.9 3.1 29.7 3.9 47.4 2.7 63l-1.1 14.9-4.5 4.2c-3.5 3.3-4.5 4.9-4.5 7.5 0 1.8-.5 5.2-1 7.6-.7 3-.7 4.9.1 6.4 1.1 2 1.2 2 2.1.3.6-1 1.4-5 1.9-8.9.9-8.8 2.5-12.5 5.6-13.2 2.5-.7 2.8-1.4 4.2-11.4 1.9-13 2.3-24.8 1.1-38.9-1.4-17.8-5.7-47.2-7-48.5-.7-.7-1-.3-1 1.1zM622.2 472.3c-1.7 3.9-3.2 7.8-3.2 8.4 0 1.4 3.9 1.7 5.5.5.8-.5 1.9-16.2 1.2-16.2-.1 0-1.7 3.3-3.5 7.3zM616.1 301.3c-.6 1.6-1.3 4.7-1.7 7-.3 2.3-.8 5.3-1 6.7-.5 2.3-.4 2.4 1.1.9 1.6-1.6 4-13.9 3.2-16.2-.3-.6-1 .1-1.6 1.6zM612.7 325.7c-1 1-.8 5.3.2 5.3s2.1-2.4 2.1-4.6c0-1.5-1.2-1.9-2.3-.7zM228.4 419.5c-1.6 2.4-1.6 2.7.2 4.1 1.8 1.5 1.7 1.5-.8.9-2.3-.4-2.8-.2-2.8 1.4 0 2.1 4.4 6.1 6.6 6.1.7 0 2.1-1.1 3-2.5 1.4-2.1 1.4-3.2.4-7.5-1.4-5.8-3.8-6.7-6.6-2.5zM251.7 431.2c-3.8 5.2-4 6.6-1 10.4 3.8 5.1 5.8 5.9 8.3 3.4 1.9-1.9 2.1-2.8 1.4-8.8-.3-3.7-1.2-7-1.8-7.4-2.3-1.5-4.6-.7-6.9 2.4zM209.3 430.7c-1.8.7-1.6 3.2.2 3.9 2.1.9.8 2.4-2.1 2.4-2.8 0-3.2 2.1-.8 4.4 2.3 2.3 5 1.9 7.3-1 2.4-3.1 2.6-4.3.9-7.9-1.1-2.4-2.8-3-5.5-1.8zM234.7 440.1c-1 .6-2.8 3.3-4.2 6.1l-2.4 5 2.7 2.4c3.4 2.9 6.8 3.1 7.7.3.4-1.1.1-4.2-.5-7-.7-2.7-.9-5.6-.6-6.4.6-1.7-.2-1.9-2.7-.4zM808.4 40.6c-.4 2.6-.4 8.4-.1 13 .6 9.5 2.8 13.9 8 15.2 3.4.9 8.7.4 8.7-.8 0-.4-3.6-7.8-7.9-16.4l-8-15.6-.7 4.6zM813 37.5c0 .8.9 1.5 1.9 1.5 2.3 0 3.7 1.6 1.9 2.2-.8.3.2 3.3 3.1 9.4 4.9 10.1 7.5 13.4 10.7 13.4 2.1 0 2.8-1.1 4.8-7.4 1.1-3.4-1.5-10-5.4-13.7-5.5-5.3-17-8.9-17-5.4zM667 40.2c-1.9.5-4 1.5-4.6 2.1-1.5 1.6-5.4 13.4-5.4 16.4 0 2 .4 2.2 2.5 1.7 2-.5 2.4-.3 1.9 1-.5 1.4.6 1.6 8.8 1.6 8 0 9.5.3 10.5 1.9.7 1.1 2.8 2 5.4 2.4 2.3.3 4.9 1.3 5.8 2.2 1.5 1.6 1.4 1.7-1.4 1.1-10.1-2.1-9.8-2.1-9 .5 1.3 4.5 6 10.3 10.8 13.3 4.1 2.5 6 3 13 3.3 14 .6 21.1-3.2 17.5-9.3-.7-1.2-2.5-4.4-4.1-7.3-3.1-5.9-8.3-9.7-14.3-10.7-2.3-.3-8.3-.1-13.3.6-5.1.6-9.5 1-9.7.7-.3-.3 1.8-3.1 4.8-6.4l5.3-5.8-3-.3c-2.1-.2-3.5-1.2-4.7-3.2-3-5.3-10-7.7-16.8-5.8zM681 51c-3.5 2.8-12.1 7-14.2 7-3.1 0-2-1.9 2.4-4.1 9.1-4.6 16.2-6.4 11.8-2.9zm34.5 26.2l5 2.9-4-.6c-6-1-15.4-5.2-12.9-5.7 3-.8 6.5.2 11.9 3.4zM493.2 44.3c-.5.7-1.3 2.9-1.6 5.1-.4 2.1-1.2 4.6-1.8 5.6-1.7 2.7 0 8.8 3.6 12.8 3.1 3.3 3.9 3.6 9.9 4 5.4.4 7.5 0 12.1-2.1 5.1-2.4 5.6-2.9 5.6-5.8 0-5.4-3.8-11.8-8.9-15-6.4-4.1-17.2-6.7-18.9-4.6zm3.6 4.9c-.6 1.8-2.8 2.1-2.8.4 0-.9.7-1.6 1.6-1.6.9 0 1.4.5 1.2 1.2zm9.7 1.8c.3.5-.3 1-1.4 1-1.2 0-2.1-.5-2.1-1 0-.6.6-1 1.4-1 .8 0 1.8.4 2.1 1zm-4.8 5.3c.6.4 1.8.5 2.5.2.8-.3 2.2.3 3.2 1.4 1 1.1 3.4 2.5 5.2 3.1 3.5 1.2 4.6 3 1.9 3-.9 0-3.4-.9-5.7-2.1-2.5-1.3-4.9-1.8-6.4-1.5-1.3.4-2.4.2-2.4-.4 0-.5-1.1-1.2-2.5-1.6-3.4-.8-3.2-3.2.3-3 1.5.1 3.2.5 3.9.9zM341.5 49.3c-5.9 2.9-7.8 4.9-9.5 10.1-1.7 5.4-.1 10.4 6.2 18.9 4.8 6.5 5 6.9 3.3 8.7-1.5 1.7-2 1.7-5.7.4-2.2-.8-6.5-2.8-9.4-4.5-5.4-3-5.4-3.1-5.4-8 0-7.2-2.9-12.2-8.5-14.9-3.4-1.7-5.7-2.1-8.7-1.7-3.2.4-4.7.1-6.9-1.5-3.6-2.7-12-3.4-17.4-1.6-2.8.9-4.5 2.3-5.6 4.6-.9 1.8-2.9 5.1-4.4 7.3l-2.7 4.1 2.9 3.2c1.6 1.7 4.4 5 6.1 7.2 4.1 5.4 7.9 7 12.6 5.4 3.1-1 3.9-.9 6.5 1.1 2 1.4 5 2.4 8.5 2.7 4.5.4 6.2 0 10.3-2.2l4.8-2.7 5.7 3.1c5.4 2.9 7.4 5.2 6.2 7.1-.3.5-1.1.9-1.8.9-.8 0-1.9.7-2.6 1.5-1.8 2.2 1.3 2 5.2-.3 2.5-1.4 2.9-2.2 2.5-4.8-.5-3-.5-3 4.1-3 4.4.1 4.8-.1 6.4-3.3 2.2-4.3 3.8-6 3.8-4 0 2.5-6.9 10.7-9.5 11.3-2.8.7-9.4 8.6-7.2 8.6.7 0 2.2-.9 3.2-2 2.2-2.5 5.8-2.5 11-.1 5 2.2 6.1 3.6 7 8.6 1.2 7.1 10 13.5 18.5 13.5 5-.1 11-3.7 12.6-7.7 2.4-5.7 1.3-10.4-4.6-19.2-4-5.9-5-8.2-4.6-10.3.7-3.6-1.2-4.6-2-1.1-1 4-2.3 5.3-5.3 5.3-1.4 0-5.3 1.3-8.7 2.9-6.3 3-10.3 3.1-12.4.6-.8-1-.5-2.6 1.4-6.2 1.4-2.6 2.6-5.7 2.6-6.8 0-1.3 1.2-2.6 3.2-3.5 1.8-.8 4.5-3.2 6.2-5.3 2.6-3.2 3.1-4.9 3.4-10.6.4-6.4.2-7-2.5-10.1-4.1-4.6-11.5-5.2-18.8-1.7zm14.9 5.6c5.7 9.8-1.1 23.5-10.9 21.7-7.9-1.5-11.6-11.2-7.9-20.5 1.4-3.6 2-4 5.7-4.4 9.2-.9 11-.4 13.1 3.2zm-65.1 4.2c4.5 1.2 4.8 3.2 1.1 9.5-2.3 3.9-2.5 5.1-1.9 10.1l.7 5.6-4.2-.6c-6.7-.9-10.5-5.6-11.9-14.7-.9-5.7 0-7.7 4.3-9.6 3.8-1.6 6.9-1.7 11.9-.3zm18.3 5.4c8.7 3.6 10.7 13.3 4.2 20.2-4.4 4.7-13.5 3.8-18.3-1.8-4.9-5.9-2.2-16.8 4.7-18.8 4.7-1.3 5.4-1.3 9.4.4zm65.2 32.4c3.8 2.7 6.2 7.8 6.2 13.1 0 11.2-14.1 13.8-22.3 4.1-3.2-3.8-4.3-10-2.5-13.8 2.9-6.1 12.4-7.9 18.6-3.4zM175 50c-1.9 1.1-4.3 1.9-5.4 2-1.7 0-1.8.5-1.2 4.7 1.4 10.4 10.6 17.8 22 17.8 6 0 13.5-2.7 14.3-5.2.4-1-8.6-3.4-13.8-3.5-1.8-.1-3.7.5-4.3 1.3-1.2 1.5-6.6 1.4-6.6-.2 0-.5 1.2-1.4 2.8-2l2.7-1.1-3.3-1.2c-2.9-1-5.1-3-5.2-4.6 0-.3 2.8-.5 6.3-.5 5.1.1 6.2.4 6.1 1.8-.2 1.7.1 1.8 8.4 3.7 5.9 1.4 6.7 1.1 5.7-1.9C200.4 51.3 184.2 45 175 50zm22.5 8.8c0 1.8-2 1.5-2.3-.4-.3-1 .1-1.5 1-1.2.7.3 1.3 1 1.3 1.6z"/><path d="M385.2 49.5c-11.4 3.5-17.6 14.3-14.1 24.4.7 2.1 1.7 3.1 2.7 2.9 2.5-.5 7.1-7.8 8.4-13.6.7-2.8 1.8-5.2 2.5-5.2s2.3-1.6 3.5-3.5c1.3-1.9 2.9-3.5 3.5-3.5 1.7 0 .5 3.1-6.8 16.7-3.3 6.2-5.7 11.3-5.2 11.3.4 0 3.8-2.2 7.4-4.9 8.4-6.2 12.5-13.5 11.5-20.5-.5-3.4-1.2-4.5-2.9-5-3.2-.8-5.6-.6-10.5.9zM243.7 53.4c-5.4 1.5-9.1 3.9-12 7.8l-1.9 2.6 3.3 3c8.1 7.3 19.2 10.1 25.1 6.4l3.3-2.1-6.5-2.9c-3.6-1.7-8.3-3.5-10.5-4.1-4.2-1.1-9-4-6.7-4.1.7 0 6.1 1.6 12.1 3.5 11.4 3.7 14.1 4.2 14.1 2.5 0-2.2-4.1-9-5.4-9-.7 0-3-1.1-5-2.5-4.2-2.8-3.6-2.8-9.9-1.1zM779.5 66.7c1.5 8.3 6.6 14.7 14.5 18.2 6.5 2.9 11.3 2.8 13.9-.5 1.2-1.5 2.1-3 2.1-3.4 0-.4-2.3-1-5.1-1.4-5.2-.7-10.9-3.1-16.2-6.8-4.6-3.3-2.4-3.2 6 .3 8.8 3.6 16.3 5.2 16.3 3.5 0-1.7-3.3-6.3-6.2-8.5-4.3-3.4-10.5-5.1-18.5-5.1h-7.5l.7 3.7zM210 67.5c1.4 1.7 8.9 4 9.8 3 1.3-1.2-4.3-4.5-7.7-4.5-2.9 0-3.2.2-2.1 1.5zM526.7 69.1c-10.7 2.5-21.8 12.1-16.4 14.2.7.3.5.6-.5.6-2.7.1-2.1 2.6 1 4.1 3.9 1.9 19.1 2.5 23.8 1 4.2-1.4 8.4-4.6 8.4-6.6 0-.9-3.6-1.1-14.7-.7-19.9.6-15.1-1.9 8-4.3 3.7-.3 6.7-.9 6.7-1.3 0-1.3-5.5-6-8.3-7-3.2-1.2-2.8-1.2-8 0zM976.9 72.4c-5.3 1.9-10.9 5.6-10.9 7.2 0 1.9 3.5 1.8 6.4-.1 1.7-1.2 3-1.3 4.9-.6 1.4.6 5 .9 8.1.8 4-.1 6 .3 7.2 1.5 1.6 1.5.9 1.6-10.4 1.5-6.6-.1-12.3.1-12.7.5-1.3 1.3 2.4 5.7 6.8 8 5.6 2.8 19 3.7 23.3 1.5 3.9-2 7-5.5 5.8-6.7-.5-.5-2.9-1-5.3-1.2-4.6-.3-6.6-2.3-3.6-3.5 1-.3 3.3 0 5.2.6 1.9.7 3.7 1 4 .7 1.3-1.2-3.6-7.1-7.6-9.3-5.1-2.7-15.1-3.1-21.2-.9zM217.2 75.5c-3.4 1.8-6.3 4.2-7.9 6.6-2.9 4.4-2.8 4.9 1.3 5.2 2.5.2 2.9-.2 3.2-2.6.4-3.2 1.8-3.5 2.7-.6.6 1.7 1.2 2 3.3 1.5 1.5-.3 6.4-1 10.9-1.5 8-.9 12.3-2.3 12.3-4 0-1.7-10.3-6.3-15.3-6.7-4.3-.5-6.1-.1-10.5 2.1zm3.8 6.9c0 .2-.7.6-1.5 1-.8.3-1.5.1-1.5-.4 0-.6.7-1 1.5-1s1.5.2 1.5.4zM395.5 74.9c-5 1.2-10.3 4.1-13.5 7.4-3 3.1-4.1 7-1.7 6.2 4.1-1.5 18.8-3.3 21.3-2.6 2.6.7 2.2.9-3.6 1.9-3.6.6-8.6 1.4-11.3 1.8-2.6.3-5 1-5.3 1.5-.7 1.2 5.1 4.6 9 5.3 5.9 1.1 25.1-5 24.8-7.9-.1-.6-2-1.5-4.3-2-2.3-.6-4.4-1.6-4.7-2.3-.4-1.4-.2-1.4 5.7-.3 7.5 1.5 9.2-.5 4.4-5.1-1.6-1.5-4.1-3.2-5.6-3.7-3.1-1.2-10.6-1.3-15.2-.2zM255 79.8c-5 2.5-8.9 8.6-9.7 15.2l-.6 5.5 5.4-4.5c2.9-2.5 7.1-6.3 9.2-8.4 2.2-2.3 4.8-4 6.3-4.1 1.3 0 3.1-.8 4.1-1.7 1.5-1.6 1.5-1.8-1.1-2.8-4.1-1.5-9.7-1.2-13.6.8zM671 80.9c0 1.1.9 4.8 2 8.3 2.1 6.6 2.6 13.8 1.1 13.8-.5 0-1.2-1.2-1.5-2.8-.3-1.5-1-5.3-1.6-8.5-.7-3.3-2.2-6.9-3.5-8.5l-2.3-2.6L663 88c-4.5 14.8-2.7 20.9 8 27.2 3.6 2.1 7.2 3.8 8.2 3.8.9 0 2.5-1.8 3.7-4.3 5.1-10.6.2-29.5-8.9-34.2-2.8-1.5-3-1.4-3 .4zm8.3 30.6c.5 3.1-1.3 2.8-2.4-.3-.6-1.6-.5-2.2.5-2.2.8 0 1.6 1.1 1.9 2.5zM237.4 85.5c-1.6.7-8.5 1.9-15.2 2.6-6.7.7-12.2 1.6-12.2 1.9 0 3 11.7 8 18.6 8 8.3 0 15.1-5.3 14.2-11.2-.4-2.7-1.5-3-5.4-1.3zM270.5 84.8c-3.1.6-6.3 4.1-7.1 7.5-.6 2.8-.8 2.9-1.9 1.3-1.2-1.6-1.8-1.3-7.6 3.3-3.5 2.8-6.7 5.8-7.2 6.7-.7 1.3-.3 1.4 2.7.8 3.6-.6 3.6-.6 3.6 2.9 0 4.3-1.1 4.7-13.5 4.7-7.4 0-9.9.4-13.5 2.2-4.3 2.2-4.5 2.6-5.4 7.8-1.5 9.9 2.2 18 9.3 20.1 3.5 1 4.5.9 9.7-1.5 11.1-5.1 13.6-10 9.9-19.1l-1.6-3.7 4.6-4.2c3.5-3.3 4.5-4.9 4.5-7.4 0-2.7.6-3.5 3.8-5.1 5-2.6 10.8-9 11.7-13.1.8-3.6.7-3.8-2-3.2zm-29.6 31.8c5.8 4.8 6.6 15 1.6 20-2.6 2.6-9 3.3-12.6 1.4-6.1-3.3-7.5-19.9-1.9-22.7 4.2-2.1 9.5-1.6 12.9 1.3zM280.2 93.1c-5.1 2.5-8.6 6.9-11.3 13.9-3.1 8.1-2.6 8.7 3.8 4.1 9.8-6.9 22.3-18.5 21-19.3-2.3-1.5-9.2-.8-13.5 1.3zM789 93.6c-4.4.9-12.4 3.6-14.4 5-1.8 1.2-1.8 1.4-.2 2 1 .4 3.5.2 5.5-.5 6.6-1.9 9.3-1.3 3.7.9-6 2.3-7.6 3.7-5.3 4.6.9.3 4.2-.4 7.4-1.6 4.8-1.8 7-2 12.4-1.5 5.1.5 6.8.4 7.8-.8 1-1.3.6-1.7-2.4-2.7-3.9-1.3-3.8-3.4.1-2.4 2.7.7 3.3-1 .7-2-2.3-.9-12.3-1.5-15.3-1zm7.5 4.4c-.3.5-1.7 1-3.1 1-1.3 0-2.4-.5-2.4-1 0-.6 1.4-1 3.1-1 1.7 0 2.8.4 2.4 1zM439 94.7c-8.8.9-16.2 2.5-22.1 4.9-5.8 2.4-7.3 2.6-16.1 2.1-9.5-.5-13.1.4-6.7 1.7 5.9 1.1 16.5.6 27.4-1.4 6-1.1 11.8-2 12.9-1.9 4.4.1-12.3 5-19.1 5.6-4 .3-7.3.9-7.3 1.4 0 .4 1.6 1.3 3.6 1.9 4.9 1.6 11.8.6 21.2-3.2 9.8-3.9 22.2-4.8 32.5-2.4 8.4 2 7.7 2 7.7-.5 0-1.2-1.5-3.6-3.4-5.5l-3.4-3.4-11.8.2c-6.6 0-13.5.3-15.4.5zm21.4 2.9c3.2 1.2 1.5 1.9-3.9 1.6-3-.2-5.3-.8-4.9-1.3.6-1 6.4-1.2 8.8-.3zM292.2 100.1c-2.9 2.6-8.6 7.1-12.7 10-4.1 2.8-7.5 5.5-7.5 6 0 .4 2.8.6 6.3.3 7.8-.5 16.1-4.4 18.8-8.8 1.9-3 2.6-11 1.2-11.9-.5-.3-3.2 1.7-6.1 4.4zM985.2 98.7c-1.7.3-2.1.9-1.7 2.4.8 2.5-.7 2.4-3-.1-2.8-3.1-3.4-1.2-2.5 7.3 1.7 14.7 8.1 21.7 19.8 21.7 2.9 0 5.2-.5 5.2-1 0-2.9-4.5-9.3-9.8-13.8-5.3-4.6-9.3-10.4-8-11.7 1.1-1.2 8.3 5.3 12.6 11.4 5.6 8 9.8 13.1 10.8 13.1.3 0 .5-3.3.2-7.3-.6-8.7-4.3-16.6-9.3-19.7-3.3-2.1-10.3-3.2-14.3-2.3zM309.5 107.2c-4.4 2.2-9.3 5.2-10.9 6.7-5.7 5.2-9 17.1-4.7 17.1 1.1 0 2.1.5 2.3 1.1.2.7 3.3 0 8.5-2 9.4-3.7 16.7-9.5 19.4-15.6 2.1-4.5 2.4-8.5.8-8.5-.7 0-5.5 4.2-10.8 9.3-10.1 9.9-13.7 12.7-15.9 12.7-1.8 0 8.3-11 14.9-16.2 9.7-7.6 7.6-10.2-3.6-4.6zM387 106c0 .5 1.1 1.2 2.5 1.6 2 .5 2.5 1.2 2.5 3.8 0 2.2 1.2 4.6 4.1 8.1 7.1 8.6 7.8 11.1 5.3 20.2-1.3 4.7 1.5 2.1 3.5-3.1 4.4-11.7 3.6-21.3-2-26-1.7-1.4-4.1-2.6-5.4-2.6-1.8 0-2.3-.4-1.9-1.5.5-1.2-.3-1.5-4-1.5-2.5 0-4.6.4-4.6 1z"/><path d="M385.5 117.3c-.8 2-1.5 5.1-1.5 6.9 0 4.7 4.1 12.7 8.8 17.2 3.9 3.7 4.1 3.7 5.1 1.8 2.6-4.9.5-15.9-3.8-20.7-1.1-1.1-2.1-2.8-2.3-3.9-.1-1-1.3-2.5-2.6-3.4-2.1-1.4-2.3-1.3-3.7 2.1zm9.7 16.7c-.6 3.9-2.2 3.9-1.9 0 .1-1.6.7-3 1.3-3 .6 0 .9 1.3.6 3zM195.2 117.3c-7.3 2.3-16.7 13.8-12.6 15.4 1.3.5 1 1-1.3 2.9-2.8 2.2-2.8 2.3-.8 3.8 1.1.8 4.8 2.5 8.1 3.6l6.1 2.1 8.9-4.5c7.9-4 12.5-7.9 11-9.3-.2-.3-3.6 0-7.5.6-8.7 1.4-18.8 1.4-19.6.1-.7-1.2 1.9-1.7 12.4-2.5 12.6-.9 16.8-3.8 12.4-8.7-3.8-4.4-10.4-5.7-17.1-3.5zM336.6 123.6c-12.2 3.8-18.8 11.6-16.5 19.7 1.8 6.4 1.7 6.4 13.3 1.8 5.8-2.4 12.6-5.8 15.3-7.7 4.5-3.2 9.3-9.4 9.3-12.2 0-1.8-3.4-1.5-8.4 1-4 1.9-4.5 2.5-4 4.7.6 2.5.6 2.5-.9.7-1.4-1.9-1.7-1.8-7.1 3.1-8.6 7.6-14.6 11.7-14.6 9.9 0-.8 1.6-2.4 3.6-3.7 2.4-1.5 3.4-2.7 3.1-3.9-.3-1.2 0-1.6 1.2-1.4.9.3 4.2-1.8 7.6-4.7 3.3-2.9 7.4-6 9-7.1l3-1.8-4.5.1c-2.5 0-6.7.7-9.4 1.5zM326.5 137c.3.5-.1 1-.9 1-.9 0-1.6-.5-1.6-1 0-.6.4-1 .9-1 .6 0 1.3.4 1.6 1zM363.1 128.4c-1.9.6-4.3 2.3-5.4 3.8-2.7 3.6-1.6 10.2 2.7 16.5 3.1 4.4 9.1 9.2 10.2 8.1.3-.3-.5-3.1-1.7-6.2-1.1-3.2-1.9-6.9-1.6-8.2.3-1.9.1-2.4-1-2-2.1.9-2.9-2.5-.9-4 1.2-.9 1.6-2.3 1.4-5.2l-.3-4-3.4 1.2zM371 130.8c0 6.1 1 8.3 3.2 7.7 1.8-.6 1.8-.5-.2 2.7-1.5 2.5-2 5-2 10.3.1 6.5.2 6.9 1.6 5 3.5-4.5 5.7-10.3 6.2-16.2.6-7.3-.9-10.5-5.7-12.1-3.1-1.1-3.1-1.1-3.1 2.6zm5 2.2c0 .5-.7 1-1.5 1s-1.5-.5-1.5-1c0-.6.7-1 1.5-1s1.5.4 1.5 1zM235.1 146.4c-3.7 2.1-6.1 4.3-7.4 6.9-4.3 8.3-2.7 17.9 3.6 21.7 6.2 3.8 6.5 3.4 6.2-9.9-.1-6.6.1-12.5.5-13.2 1.9-2.9 3.1 18.8 1.5 26-.8 3.7 1 4.1 2.9.5.6-1 2.6-4.3 4.5-7.2 5.7-8.8 5.3-16.9-1.3-24-3.6-4-4.7-4.1-10.5-.8zM207.6 147.5c-11.7 3.4-18.5 7.3-20.9 11.8-2.5 4.8-1.7 10.4 1.7 11.7 1.3.5 2.6 1.5 2.9 2.4 1.4 3.5 14.1-1.7 20-8.3 3.9-4.3 7-9.8 8.1-14.4.6-2.6.5-2.7-1.3-1.8-1.1.6-3.3 3-4.8 5.3-1.6 2.4-3.6 4.3-4.5 4.3-.9 0-2.4 1-3.4 2.2-1.1 1.2-4.6 3.8-7.8 5.9l-5.9 3.7 2.2-3.6c1.2-1.9 2-4.1 1.9-4.8-.2-.8.7-1.3 2.2-1.3 2.6-.1 2.7-.5 1.5-4.4-.8-2.6.9-3 2.4-.5.7 1.3 1.3 1.5 1.8.7.5-.7 1.7-1.3 2.7-1.5 1.1-.2 2.1-1 2.4-1.8.3-1-.1-1.2-1.7-.8-1.1.3-2.1.2-2.1-.3 0-1.3 2.9-2 6.1-1.3 3 .6 5.8-1.5 5.9-4.5 0-1.5.3-1.5-9.4 1.3zM866.2 172c-2.4 1.1-6.9 4-10 6.4-7.4 5.8-13.6 8.6-19.4 8.6H832v7.5c0 4.8.6 8.9 1.6 11.3.9 2 1.8 5.4 1.8 7.4.1 2.1.4 3.9.7 4.1.2.1 3.6 1.2 7.4 2.4 3.9 1.1 9.7 3.2 13 4.6 3.3 1.3 7.3 2.8 9 3.2 2.9.6 2.9.6 1.2-1.3-1-1-6.4-4.4-12.1-7.6-5.7-3.1-11.2-6.6-12.2-7.8l-1.9-2.1 8 .7c13.6 1.1 27.9 6.1 39.6 13.9 7 4.7 10.5 6.2 16.1 7.2 6.4 1 23.5.7 28-.6l4.3-1.2-5-.9c-2.7-.4-7.9-1.3-11.4-1.9-7.3-1.1-12.5-3.5-16-7.3l-2.4-2.6h5.6c3.1 0 5.8-.4 6.1-.9.6-.8-9.5-4.1-12.6-4.1-.9 0-2.4-.8-3.4-1.8-.9-.9-4-3.1-6.8-4.8-2.8-1.7-5.6-4.1-6.3-5.5-1.2-2.3-1-2.4 2-3.1 1.8-.4 12-.5 22.7-.1 10.8.3 21.8.2 24.5-.2l5-.8-4.1-1.8c-2.2-1-9.4-2.8-15.9-3.9-11.1-2-18.5-4.6-20-7-.4-.6.9-1 3.4-1 5.4 0 10.1-1.8 8.1-3-2.5-1.6-12.1-1.1-21.6 1-4.9 1.1-10.5 2-12.5 2-4.6 0-10.1-1.9-9.7-3.4.2-.6 2.7-2.2 5.6-3.6 2.8-1.4 5.2-2.8 5.2-3.3 0-1.4-6.5-.6-10.8 1.3zM605.7 239.7c-.6.9 3.9 22.1 7.6 35.8l1.1 4 .4-3.1c.6-6.2-7.5-39.3-9.1-36.7z"/></svg>