<svg xmlns="http://www.w3.org/2000/svg" viewBox="0 0 19.6 24.95"><circle cx="9.8" cy="8.65" r="4.7"/><path d="M9.8,15.05A9.9,9.9,0,0,0,0,24.15a.77.77,0,0,0,.7.8H18.9a.68.68,0,0,0,.7-.7v-.1A9.9,9.9,0,0,0,9.8,15.05Z"/><path id="Path-377" d="M18.6,7.55c-.1-.1-.1-.2-.1-.4A8.75,8.75,0,0,0,8.3.15a8.61,8.61,0,0,0-7,7c0,.2-.1.3-.1.5a2.66,2.66,0,0,0-.3,1.2,2.82,2.82,0,0,0,2.5,2.8c.1,0,.3-.1.3-.2V6.25c0-.1-.1-.3-.2-.3H3.4c-.2,0-.4.1-.6.1S2.6,6,2.7,6A7.69,7.69,0,0,1,17.1,6c0,.1-.1.2-.1.1a1.27,1.27,0,0,0-.6-.1c-.1,0-.3.1-.3.2v5.2c0,.1.1.3.2.3h.1a2.89,2.89,0,0,0,2.5-2.8A2.77,2.77,0,0,0,18.6,7.55Z"/></svg>
